<svg version="1.1" xmlns="http://www.w3.org/2000/svg" xmlns:xlink="http://www.w3.org/1999/xlink" width="187.8258" height="210.67573" viewBox="0,0,187.8258,210.67573"><g transform="translate(-237.0871,25.33787)"><g data-paper-data="{&quot;isPaintingLayer&quot;:true}" fill-rule="nonzero" stroke="none" stroke-width="0.5" stroke-linecap="butt" stroke-linejoin="miter" stroke-miterlimit="10" stroke-dasharray="" stroke-dashoffset="0" style="mix-blend-mode: normal"><path d="M271.83366,81.79708c2.74987,-2.66353 5.4134,0.08634 5.4134,0.08634l1.6994,1.75965c7.59778,9.33745 11.92783,19.26133 15.10936,30.6719c2.12503,-0.18975 4.24472,-0.59454 6.37436,-0.65233c2.15475,-0.05848 4.37582,0.20748 6.53882,0.38207l0.03682,-0.35724l0.14594,-2.06848l0.04883,-0.14963l-0.019,-0.15624l0.40595,-3.25811l0.16967,-0.43883l0.0192,-0.47009l0.43079,-1.46608l0.27546,-1.81927l-0.10153,-1.06887l0.07185,-0.47456l-0.08335,-0.47267l0.15246,-2.16085l0.07261,-0.22251l-0.02213,-0.23301l0.19936,-1.31668l0.11385,-1.10476l-0.18197,-1.91563l0.13819,-0.91271l-0.01655,-0.92296l0.04373,-0.18929l-0.01291,-0.13588l0.13819,-0.91271l-0.01655,-0.92296l0.04373,-0.18929l-0.14762,-1.55399l0.10583,-0.69897l-0.06685,-0.70377l0.11399,-0.75283l-0.13521,-1.42341l0.08563,-0.56552l-0.08111,-0.56618l0.12785,-1.2407l-0.11462,-1.20657l0.10583,-0.69897l-0.06685,-0.70377l0.11399,-0.75283l-0.13521,-1.42341l0.10583,-0.69897l-0.06685,-0.70377l0.11399,-0.75283l-0.10153,-1.06887l0.22559,-1.48995l-0.10396,-0.34571l0.18692,-0.20218l0.13452,-0.88841l1.97064,-1.38866l1.63653,-1.77018l0.8984,-0.01612l0.22507,-0.1586l0.32897,0.14867l1.5067,-0.02703l0.18929,0.04373l1.1815,-0.11224l0.78011,-0.2528l0.29933,-0.24341l0.32632,0.04066l0.31283,-0.10137l0.33981,0.1827l0.04028,0.00502l0.06057,-0.02141l0.70377,-0.06685l0.66653,-0.23554l2.81775,-0.26767l0.05004,-0.0407l0.16367,0.02039l0.15929,-0.01513l1.3046,0.19753l0.16516,0.02058l1.75467,-0.16668l2.92627,0.44307l0.13061,0.18535l0.22658,-0.00889l2.12997,2.05489l0.42189,0.67538l0.12741,0.3932l0.25389,0.32616l0.29047,0.65668l0.00716,0.01147l0.05878,0.02656l0.05496,0.15551l0.08477,0.13571l0.40676,1.25521l0.43964,1.24407l0.01513,0.15929l0.05085,0.1569l-0.02849,0.05299l0.25039,0.70854l0.06685,0.70377l0.23554,0.66653l0.05609,0.59045l0.43448,1.63418l0.00714,0.47991l0.15992,0.45254l0.46978,4.94543l0.05131,0.15833l0.43964,1.24407l0.01513,0.15929l0.05085,0.1569l-0.03055,0.05681l0.80992,8.52601c0.58685,0.19577 0.96907,0.44621 0.96907,0.44621c1.20722,0.79099 2.7329,2.25694 4.23488,2.47454c3.61103,0.52318 7.86859,-0.51274 11.22053,-2.4899c-0.11002,-0.22001 -0.16083,-0.36377 -0.16083,-0.36377c-1.45426,-4.1282 -2.30426,-8.41063 -3.70311,-12.55306c-1.7593,-5.20983 -4.2351,-9.58371 -7.37416,-14.03765l-0.08591,0.104c0,0 -2.95091,-2.43891 -0.512,-5.38983c2.43891,-2.95091 5.38983,-0.512 5.38983,-0.512l1.46691,1.3874c3.54353,5.02943 6.36875,10.07885 8.35251,15.94847c1.14785,3.39631 1.91606,6.88883 2.96398,10.30822c0.78134,-0.40714 1.60764,-0.7799 2.39699,-1.1459c0.49959,-0.69851 1.33481,-1.2906 2.72648,-1.4228c3.81118,-0.36204 4.17322,3.44914 4.17322,3.44914l-2.02592,4.1207c-1.28181,0.65954 -3.38198,1.28087 -4.46718,2.21063c-1.6762,1.43612 -3.05294,3.06697 -5.00901,4.2877c-4.63332,2.89153 -11.2522,4.6438 -16.70892,3.63417c-1.23428,-0.22838 -2.31076,-0.66537 -3.32698,-1.21239l0.03099,0.32624l-0.05432,0.35879l0.07754,0.35449l-0.0806,2.71762l0.10861,4.64l0.51772,5.45007l0.0407,0.05004l-0.02039,0.16367l0.01513,0.15929l-0.19753,1.3046l-0.02058,0.16516l0.13301,1.40015l-0.10583,0.69897l0.06685,0.70377l-0.11399,0.75283l0.23625,2.48698l-0.08563,0.56552l0.08111,0.56618l-0.12785,1.2407l0.31668,3.33374l-0.07185,0.47456l0.08335,0.47267l-0.11901,1.68676l0.25815,2.71762l-0.06188,0.40866l0.08122,0.40527l-0.09954,2.10772l0.14271,1.50225l0.07859,0.17767l0.15752,0.90958l0.00585,0.01654l0.35955,0.81285l0.15752,0.90958l0.30757,0.87036l0.03197,0.33656l0.05131,0.15833l0.43964,1.24407l0.01291,0.13588l0.53416,1.20758l0.12349,0.71309l0.1794,0.5536l0.34904,0.52737l0.48924,1.38444l0.0623,0.6558l0.29792,0.67353l0.07773,0.44882l0.2203,0.39868l0.49768,1.87186l0.41283,1.16821l0.06685,0.70377l0.03824,0.10819l0.09721,0.15562l0.05878,0.02656l0.05496,0.15551l0.08477,0.13571l0.32927,1.0161l0.50719,0.68819l0.81049,1.04121l0.06473,0.14634l0.09785,0.13277l-0.01101,0.06355l0.13891,0.31402l0.00716,0.01147l0.05878,0.02656l0.05496,0.15551l0.08477,0.13571l0.25304,0.78085l0.23295,0.22474l0.99237,0.38369l0.46838,0.10821l0.40924,0.06196l1.30935,0.16315l0.14925,0.0577l0.16308,0.0247l0.03716,0.05273l4.84967,1.87509l2.41919,1.70496l0.03393,0.2242l0.20663,0.09338l0.98612,2.7905l0.06736,0.70906l-0.1696,1.12013l0.15508,0.41082l-0.31809,0.66577l-0.11046,0.72954l-0.35895,0.25294l-0.48839,1.02222l-0.26883,0.32526l0.01083,0.27592l-0.79034,0.81922l-0.65575,0.93045l-0.28327,0.04287l-0.32553,0.33742l-2.3983,1.49813l-0.71885,0.58453l-0.32866,0.15382l-0.25194,0.26115l-0.3576,0.22338l-0.02656,0.05878l-0.15551,0.05496l-0.13571,0.08477l-1.25521,0.40676l-1.24407,0.43964l-0.15929,0.01513l-0.1569,0.05085l-0.05681,-0.03055l-1.89005,0.17954l-0.17767,0.07859l-0.90958,0.15752l-0.87036,0.30757l-15.22625,1.44639l-0.05004,0.0407l-0.16367,-0.02039l-0.15929,0.01513l-1.3046,-0.19753l-0.16516,-0.02058l-2.81826,0.26771l-0.91271,-0.13819l-0.92296,0.01655l-0.18929,-0.04373l-1.19947,0.11394l-0.91271,-0.13819l-0.92296,0.01655l-0.18929,-0.04373l-0.11741,0.01115l-0.05004,0.0407l-0.16367,-0.02039l-0.15929,0.01513l-1.3046,-0.19753l-0.16516,-0.02058l-1.75467,0.16668l-0.47456,-0.07185l-0.47267,0.08335l-1.68676,-0.11901l-1.29951,0.12344l-0.47456,-0.07185l-0.47267,0.08335l-6.00846,-0.42394l-0.9265,0.08801l-0.05004,0.0407l-0.16367,-0.02039l-0.15929,0.01513l-1.3046,-0.19753l-1.30935,-0.16315l-0.14925,-0.0577l-0.16308,-0.0247l-0.03716,-0.05273l-0.41872,-0.16189l-2.84766,-0.29345l-0.34116,-0.12363l-0.36281,0.00651l-1.97965,-0.45735l-1.23374,-0.1868l-0.44899,-0.18732l-0.4852,-0.03535l-5.66076,-1.86148l-0.84346,-0.19486l-0.36813,-0.18793l-0.41015,-0.0511l-1.10483,-0.42717l-0.69963,-0.16163l-0.36813,-0.18793l-0.41015,-0.0511l-1.48547,-0.57435l-0.38324,-0.27009l-0.28627,0.01122l-0.81922,-0.79034l-0.93045,-0.65575l-0.04131,-0.27302l-0.03646,-0.03013l-0.06416,-0.00661l-0.10131,-0.13015l-0.12333,-0.10194l-0.78282,-1.06217l-0.81049,-1.04121l-0.06473,-0.14634l-0.09785,-0.13277l0.01101,-0.06355l-0.02705,-0.06115l-0.55406,-0.75178l-0.40015,-0.18084l-0.24585,-0.6957l-0.43776,-0.59398l0.07496,-0.43267l-0.37747,-1.06816l-0.26767,-2.81775l-0.0407,-0.05004l0.02039,-0.16367l-0.01513,-0.15929l0.19753,-1.3046l0.16315,-1.30935l0.0577,-0.14925l0.0247,-0.16308l0.05273,-0.03716l0.43923,-1.136l1.70496,-2.41919l0.2242,-0.03393l0.09338,-0.20663l2.7905,-0.98612l1.39963,-0.13296l0.05004,-0.0407l0.16367,0.02039l0.15929,-0.01513l1.3046,0.19753l1.30935,0.16315l0.14925,0.0577l0.16308,0.0247l0.03716,0.05273l1.01996,0.39436c0.0753,0.02731 0.14991,0.05616 0.22378,0.08652l2.12045,0.81985l0.58042,0.40906l0.7885,-0.0749l0.15248,-0.04941l0.49267,-0.30775l0.02656,-0.05878l0.15551,-0.05496l0.13571,-0.08477l1.25521,-0.40676l1.24407,-0.43964l0.15929,-0.01513l0.1569,-0.05085l0.05681,0.03055l0.05009,-0.00476l1.24856,-0.77993l0.71885,-0.58453l0.27672,-0.12951l0.00485,-0.0471l0.13015,-0.10131l0.10194,-0.12333l1.06217,-0.78282l0.27634,-0.21511l0.09804,-0.10163l0.65575,-0.93045l0.27302,-0.04131l0.53766,-0.65053l-0.01083,-0.27592l0.79034,-0.81922l0.08565,-0.12152l0.11487,-0.29709l0.53178,-0.75455l0.39795,-0.83293l0.14652,-0.17728l0.10612,-0.85165l0.0577,-0.14925l0.0247,-0.16308l0.05273,-0.03716l0.86639,-2.24082l0.16163,-0.69963l0.18793,-0.36813l0.0511,-0.41015l0.14,-0.36209l0.16163,-0.69963l0.18793,-0.36813l0.0511,-0.41015l0.14,-0.36209l0.10821,-0.46838l0.06196,-0.40924l0.04848,-0.38907l-0.09468,-0.15158l0.31791,-1.25385l0.19364,-1.27895l0.15904,-0.11207l0.05678,-0.22396l0.01359,-0.02529l0.03203,-0.21154l0.1569,-1.25927l-0.01298,-0.72359l0.04373,-0.18929l-0.01291,-0.13588l0.19753,-1.3046l0.02058,-0.16516l-0.03022,-0.31808l-0.0407,-0.05004l0.02039,-0.16367l-0.01513,-0.15929l0.19753,-1.3046l0.02058,-0.16516l-0.03197,-0.33656l0.13819,-0.91271l-0.01655,-0.92296l0.04373,-0.18929l-0.11394,-1.19947l0.10583,-0.69897l-0.06685,-0.70377l0.19936,-1.31668l0.17213,-1.67039l0.12363,-0.34116l-0.00651,-0.36281l0.42652,-1.84619l0.14,-1.35858l0.1019,-1.44426c-4.40632,-0.18746 -8.54291,0.2669 -12.98394,0.39317c-2.72485,0.07748 -5.30073,-0.2179 -8.0102,0.05134l-0.70906,0.06736c0,0 -3.81118,0.36204 -4.17322,-3.44914c-0.36204,-3.81118 3.44914,-4.17322 3.44914,-4.17322l0.70906,-0.06736c0.66389,-0.06073 1.32011,-0.09326 1.97223,-0.10841c-2.78669,-9.43744 -6.49932,-17.78587 -12.88925,-25.65007l-1.47362,-1.51621c0,0 -2.66353,-2.74987 0.08634,-5.4134z" fill="#53390f"/><path d="M263.35475,62.36586c-0.43781,-0.83502 -0.51283,-1.62468 -0.51283,-1.62468l0.07953,0.2734c-0.6599,-3.04207 -3.79789,-4.24814 -6.42535,-5.2984c-1.43362,-0.57305 -2.58189,-1.70165 -3.94394,-2.42864c-0.57726,-0.30811 -1.30786,-0.24209 -1.88339,-0.55342c-2.03933,-1.10316 -4.31511,-2.76234 -6.24656,-4.06052c-1.07861,-1.28918 -3.84061,-4.49658 -4.56905,-5.81301c-2.09699,-3.78959 -3.29986,-9.04352 -2.53399,-13.34421c0.75275,-4.22699 3.48752,-8.31877 5.97554,-11.65245c2.75931,-3.69716 4.99642,-7.80205 7.59955,-11.60778c2.51263,-3.67342 4.85024,-7.49908 7.4803,-11.09143c1.15157,-1.57292 2.07685,-3.4656 3.72261,-4.51042c0.20709,-0.13147 0.41757,-0.25677 0.63086,-0.37698c0.48765,-1.40374 1.75665,-2.46739 3.33274,-2.6171c0.08501,-0.00808 0.16965,-0.01337 0.25382,-0.01597c6.07626,-6.13006 14.15321,-10.54024 22.25782,-12.34561c5.59623,-1.2466 12.19014,-0.37559 17.78997,0.19627c4.09303,0.51178 8.24731,0.95482 12.12475,2.45435c5.37,2.07675 11.71773,5.283 13.46762,11.35642c0.92841,3.22228 0.58278,6.35219 -0.51536,9.28244c1.77786,0.11729 3.51957,0.51779 5.19184,1.48039c2.76882,1.59381 5.03404,5.17241 6.18673,8.0352c0.66937,1.66244 1.12266,3.40403 1.63094,5.12307c0.08253,-0.05885 0.16311,-0.11861 0.24098,-0.17972c3.99775,-3.13701 8.46115,-4.99418 13.14502,-6.83278c1.33165,-0.54726 2.58724,-1.33995 3.99496,-1.64177c2.22591,-0.47723 3.90171,0.63458 6.02168,-0.12156c4.14688,-1.47907 7.12953,-5.10927 11.35859,-6.25083c7.10787,-1.91863 15.15252,0.21797 19.3723,6.43747c1.79946,2.65221 2.46,6.03674 3.12082,9.11741c0.64757,3.01888 0.96733,5.93296 1.11594,8.92278c2.84112,1.11457 5.53324,2.66036 7.83748,4.11243c4.74894,3.25696 9.58508,7.00231 11.97557,12.42834c4.29046,9.73864 2.42252,23.02287 -4.71982,30.91453c-6.36689,7.03485 -14.98019,9.84756 -23.99892,11.38599c-2.91989,-0.03709 -5.94846,0.32671 -8.91054,0.22265c-1.22552,1.98827 -2.82529,3.8252 -3.97416,5.09854c-6.70646,7.43297 -16.50885,12.46354 -25.61909,16.48822c-2.78125,0.98411 -5.43575,2.35376 -8.29009,3.09975c-6.19632,1.61943 -12.89054,1.35962 -18.40092,-1.86257c-1.37191,-0.80222 -2.87377,-1.4745 -3.99751,-2.59828c-2.00938,-2.00947 -3.06914,-5.70208 -3.78118,-8.38312c-0.5468,-2.05888 -0.86516,-4.05681 -0.99739,-6.0236c-4.04126,3.85426 -7.79278,7.94303 -12.24641,11.40612c-2.93766,2.28428 -6.82655,4.9358 -10.69154,5.30551c-1.62381,0.15533 -3.27735,-0.09332 -4.87567,-0.41928c-1.59044,-0.32435 -3.31466,-0.56293 -4.62666,-1.51862c-2.91957,-2.12665 -3.30158,-5.56637 -3.40299,-8.82585c-0.34634,0.60736 -0.69321,1.21504 -1.04054,1.82322c-2.15319,1.70773 -4.93244,4.2459 -7.67002,5.05062c-6.99926,2.05744 -12.51571,-3.31919 -14.64944,-9.42605c-2.92241,-8.36412 -2.27722,-16.40946 0.86079,-24.53431c0.56395,-1.46015 1.1154,-2.81291 1.7546,-4.05621z" fill="#275019"/><path d="M281.47275,86.30607c0,3.21816 -3.21816,3.21816 -3.21816,3.21816h-0.59873c-1.84649,-0.02259 -3.69584,-0.35936 -5.47199,-0.86463c-1.51274,-0.90484 -3.37054,-1.74347 -4.21382,-3.46223c-0.88008,-1.79374 -1.13293,-4.05852 -0.63807,-6.04474c-1.50998,-0.59169 -2.69826,-2.03475 -3.07127,-4.42723c-0.17059,-1.09421 0.46569,-2.17631 0.87763,-3.20427c1.2726,-3.17569 3.51522,-5.67551 6.37134,-7.43328c0,0 2.75955,-1.65573 4.41528,1.10382c1.65573,2.75955 -1.10382,4.41529 -1.10382,4.41529c-0.6092,0.35091 -1.0451,0.64896 -1.41299,0.98616c1.49346,0.1607 3.06991,0.7642 3.91893,1.93419c2.28897,3.15426 -0.01607,5.75309 -2.09074,7.48449c-0.41258,0.34431 -1.00463,0.38304 -1.49682,0.59873c-1.38005,0.60476 0.58522,1.88984 1.00615,2.14455c0.9381,0.27074 1.93397,0.35125 2.91019,0.33284h0.59873c0,0 3.21816,0 3.21816,3.21816z" fill="#2c5a1c"/><path d="M323.13624,65.43004c-0.32722,-0.68539 -0.42451,-1.59076 0.13818,-2.71613c1.43921,-2.87842 4.31762,-1.43921 4.31762,-1.43921l1.43511,0.90219c0.71334,1.15768 1.42669,2.31536 2.14003,3.47304c-0.77849,1.21766 -1.38473,2.56448 -2.33548,3.65298c-1.43975,1.64834 -4.21007,3.08722 -6.11233,4.19576c-0.67581,0.39383 -1.30863,0.88285 -2.04064,1.15851c-0.49649,0.18696 -1.02531,0.33202 -1.55642,0.37244c0.0435,0.61655 -0.56464,1.62217 -0.86361,2.22871c-1.5021,3.04742 -4.38875,6.01446 -7.83152,6.79123c-3.05969,0.69034 -6.45083,-0.61663 -8.41315,-3.01082c-0.27305,-0.33316 -1.32989,-3.03842 -1.60087,-3.71588c0,0 -1.19519,-2.98799 1.79279,-4.18319c2.98799,-1.19519 4.18319,1.79279 4.18319,1.79279c0.29788,0.7447 0.37763,1.58591 0.79404,2.27141c0.61656,1.01498 2.02805,0.4392 2.68551,0.0321c1.48023,-0.91655 2.4533,-2.0863 3.00661,-3.77165c0.32012,-0.97506 0.21766,-2.17285 0.89153,-2.94688c1.10718,-1.27175 3.09287,-1.3538 4.68805,-1.90022c1.41013,-0.48303 3.18322,-2.07527 4.33059,-2.89176c0.12106,-0.08615 0.23697,-0.18759 0.35075,-0.29545z" fill="#2c5a1c"/><path d="M377.86798,70.14041c0,2.27614 -1.60987,2.94242 -2.55235,3.13745c-2.00764,1.0395 -4.13526,1.65986 -6.2638,2.50627c-1.06905,0.4251 -2.09973,1.21206 -3.24919,1.16404c-0.61177,-0.02557 -3.03775,-0.52844 -4.36168,-1.64908c-1.23843,0.95086 -2.96503,1.40579 -4.41621,1.35227c-1.33291,-0.04915 -2.7703,-0.14847 -3.91308,-0.83631c-2.76997,-1.66725 -3.17505,-5.92913 -3.23423,-8.66828c0,0 0,-3.21816 3.21816,-3.21816c3.21816,0 3.21816,3.21816 3.21816,3.21816c-0.02191,0.58262 -0.16914,1.17406 -0.06573,1.74785c0.08373,0.46455 0.4871,0.82204 0.61099,1.27753c0.02953,0.10856 -0.28869,0.2325 -0.18712,0.2809c0.31897,0.15199 1.49935,-0.96312 1.57304,-1.0092c1.28725,-0.80488 2.4615,-2.30181 3.97741,-2.21894c1.44476,0.07898 3.78862,1.46108 4.02063,2.76625c0.08054,-0.03485 0.16001,-0.06918 0.23408,-0.10592c2.06016,-1.02215 4.32525,-1.29683 6.21766,-2.50439l1.9551,-0.45861c0,0 3.21816,0 3.21816,3.21816z" fill="#2c5a1c"/><path d="M386.57791,48.9484c0.16846,0.38767 0.27099,0.85955 0.27099,1.43398c0,3.21816 -3.21816,3.21816 -3.21816,3.21816l-3.51752,-3.21816c0,-0.74992 -0.3106,-1.61593 -0.20448,-2.33525l-1.88351,-0.53815c-0.79664,-0.20811 -1.47297,-0.71383 -1.90309,-1.39126c-0.88951,0.00554 -1.77924,-0.00129 -2.66977,-0.00129c0,0 -3.21816,0 -3.21816,-3.21816c0,-3.21816 3.21816,-3.21816 3.21816,-3.21816c2.10069,0 4.19619,0.00735 6.2965,0.05807l0.48432,0.42784l0.10229,-0.25573l1.42722,0.57089c0.57702,0.21545 1.07561,0.59177 1.44122,1.07439c0.40898,0.26916 0.9175,0.66911 1.54658,1.23066c1.87701,1.67553 1.88505,3.95268 1.82741,6.16218z" fill="#2c5a1c"/><path d="M388.90066,20.3763c-0.52907,3.17438 -3.70344,2.64531 -3.70344,2.64531l-1.75925,-0.29343c-0.90268,-0.13288 -1.88478,0.08987 -2.75571,-0.1259c-0.07158,0.72967 -0.57061,1.7841 -0.95089,2.30953c-1.98693,2.74537 -5.53323,4.34614 -8.93424,3.42537c-0.96501,-0.26126 -1.88151,-0.78714 -2.61829,-1.46291c-1.05915,-0.97144 -2.36036,-1.98263 -2.66877,-3.38633c-0.63304,-2.88131 1.68081,-4.5577 3.27177,-6.21565c0,0 2.27558,-2.27558 4.55117,0c2.27558,2.27559 0,4.55117 0,4.55117c-0.0546,0.05094 -0.10708,0.10581 -0.15819,0.16321c0.40914,0.06289 0.82223,-0.00459 1.18324,-0.618c0.72707,-1.23543 0.24623,-3.13456 1.30916,-4.09638c2.13734,-1.93402 6.21813,-1.25858 8.75499,-0.90473l1.83312,0.3053c0,0 3.17438,0.52907 2.64532,3.70344z" fill="#2c5a1c"/><path d="M328.32322,33.91735c0,-3.21816 3.21816,-3.21816 3.21816,-3.21816h0.80222l-0.13162,-0.05266c-1.22223,-0.45637 -2.09257,-1.63446 -2.09257,-3.01583c0,-1.66982 1.27175,-3.04259 2.89951,-3.20259c-0.3313,-0.10648 -3.00683,-1.06359 -2.17696,-3.96816c0.88409,-3.09434 3.97844,-2.21024 3.97844,-2.21024c1.76132,0.52352 3.65598,0.84136 4.98385,2.31557c1.98768,2.20673 2.32909,5.27348 0.93492,7.63713c0.79534,0.70008 1.40865,1.55029 1.48036,2.62745c0.37096,5.57204 -6.02566,6.28821 -9.78006,6.30565h-0.89809c0,0 -3.21816,0 -3.21816,-3.21816z" fill="#2c5a1c"/><path d="M301.35625,34.39094c0.18997,-0.57485 0.37015,-1.15293 0.54435,-1.73284c-0.52706,-0.80869 -1.1782,-2.40934 0.42244,-4.00997c2.27559,-2.27559 4.55117,0 4.55117,0l1.71685,4.05778c-1.00456,3.51147 -1.88509,8.32778 -6.42967,8.9098c-1.16605,0.14933 -2.30359,-0.54042 -3.37414,-1.0261c-0.51187,-0.23222 -0.91861,-0.65733 -1.3054,-1.0681c-0.03942,0.36347 -0.39702,0.3656 -0.87222,0.92659c-2.01312,2.37654 -2.17682,4.1757 -6.46449,3.11991c-3.55162,-0.87455 -2.11016,-3.7292 -4.70355,-4.56711c0,0 -2.98799,-1.19519 -1.79279,-4.18319c1.19519,-2.98799 4.18319,-1.79279 4.18319,-1.79279c1.4032,0.60919 3.28234,1.45011 4.21563,2.8555c1.08135,-1.15375 3.26197,-2.89451 4.13381,-3.02266c1.60645,-0.23612 3.75476,0.40092 5.17482,1.53319z" fill="#2c5a1c"/><path d="M273.05017,31.46482l0.01554,-0.44131l-0.29407,2.35255c-0.17752,1.60943 -1.54187,2.86135 -3.19861,2.86135c-0.55609,0 -1.07922,-0.14104 -1.5356,-0.3893c-0.54424,0.70208 -1.01889,1.25994 -1.25129,1.39824c-3.57554,2.12782 -7.12526,0.04966 -9.02094,-2.98855c-0.53142,-0.85169 -0.58184,-2.05433 -1.36205,-2.68606c-1.52589,-1.23551 -3.5542,-2.331 -5.38844,-3.04861c0,0 -2.98799,-1.19519 -1.79279,-4.18319c1.19519,-2.98799 4.18319,-1.79279 4.18319,-1.79279c2.34461,0.95283 5.32688,2.38577 7.18486,4.13613c0.84248,0.79368 1.59863,1.6945 2.2148,2.67431c0.34159,0.54319 0.37766,1.22791 0.61425,1.82437c0.02734,0.06891 0.06819,0.13074 0.11224,0.19097c0.46585,-1.09333 1.39449,-2.17168 1.9977,-3.0147l0.11231,-0.0624l-0.0373,-0.03109l1.48108,-1.7773c0.59021,-0.71851 1.48558,-1.17683 2.48799,-1.17683c1.59815,0 2.92422,1.16495 3.17536,2.692c1.28539,1.49497 0.30178,3.46219 0.30178,3.46219z" fill="#2c5a1c"/><path d="M296.50472,-2.2891c2.67767,1.78512 0.89256,4.46279 0.89256,4.46279l-0.76344,1.12335c-0.70706,0.86355 -0.98384,2.05673 -1.78745,2.83124c-0.03076,0.02965 -0.06168,0.0591 -0.09275,0.08838l0.03125,0.01874l-0.86775,1.44625c-0.55587,0.96408 -1.5971,1.61301 -2.7899,1.61301c-1.49551,0 -2.75277,-1.02012 -3.11389,-2.40248l-0.57919,-2.02714c-0.09689,-0.34877 -0.21997,-0.69205 -0.32389,-1.03934c-0.01177,0.01341 -0.02263,0.02681 -0.03248,0.04019c-0.24274,0.33004 -0.41954,0.70413 -0.61361,1.06494c-1.38776,2.58003 -1.19992,5.70379 -4.69493,6.95177c-1.12571,0.40197 -2.359,-0.40886 -3.51242,-0.72257c-2.0365,-0.5539 -3.69275,-1.88796 -5.30564,-3.16931c0,0 -2.51297,-2.01037 -0.50259,-4.52334c2.01037,-2.51297 4.52334,-0.50259 4.52334,-0.50259c0.89944,0.72587 1.40251,1.23078 2.4133,1.72553c0.02712,0.01327 0.05504,0.02538 0.08358,0.03652c0.38072,-1.1179 1.18989,-2.59626 1.35324,-2.89325c1.91642,-3.48425 5.8066,-7.13747 10.12153,-4.33305c0.41807,0.27172 0.76834,0.67489 1.06655,1.15215l0.03177,-0.04925c0,0 1.78512,-2.67767 4.46279,-0.89256z" fill="#2c5a1c"/><path d="M326.07799,7.87268c0,3.21816 -3.21816,3.21816 -3.21816,3.21816l-2.21513,-0.16514c-3.33891,-1.18893 -5.68456,-2.62958 -6.09146,-6.57547c-0.01213,-0.11764 -0.01919,-0.24143 -0.01977,-0.36787c-2.04926,-0.13557 -4.23513,-1.24573 -5.15948,-3.04883c-0.53765,-1.0488 1.46602,-6.90749 2.29397,-7.94719c0.59576,-0.74813 1.56759,-1.09597 2.35139,-1.64395c0,0 2.75955,-1.65573 4.41528,1.10382c1.65573,2.75955 -1.10382,4.41528 -1.10382,4.41528c-0.54122,0.12828 -0.69964,0.35608 -0.72795,0.63832c1.0543,0.01011 2.18811,-0.11267 2.97195,0.52329c3.01566,2.44667 2.06099,3.68791 1.41321,6.18732c-0.15039,0.58028 1.11658,0.44122 1.692,0.60926l0.17979,-0.16515c0,0 3.21816,0 3.21816,3.21816z" fill="#2c5a1c"/><path d="M287.8939,181.64845c-1.13779,-1.13779 0,-2.27558 0,-2.27558l0.59873,-0.59873c2.39968,-2.39968 4.98521,-4.39969 7.37752,-6.76772c1.10449,-1.67087 2.41175,-3.26075 3.48135,-4.93627c1.7817,-2.79103 2.5219,-6.05317 3.77099,-9.05351c1.0896,-2.61726 2.24032,-5.07217 2.91509,-7.85721c0.32238,-1.33058 0.43499,-4.29607 0.55394,-5.44866c0.20617,-1.99778 0.92709,-3.91382 1.21688,-5.81663c0.31661,-2.07886 0.32131,-4.39218 0.58652,-6.51382c1.22685,-7.30918 3.11528,-14.88316 3.57865,-22.32019c0.08755,-1.40522 -0.11246,-2.82058 0.00238,-4.22383c0.24998,-3.05463 0.70249,-5.92535 -0.48913,-8.84933c0,0 -0.59759,-1.49399 0.8964,-2.09159c1.49399,-0.59759 2.09159,0.8964 2.09159,0.8964c1.35589,3.44172 1.01358,6.7165 0.70833,10.30997c-0.11732,1.38115 0.08909,2.77495 0.00238,4.15836c-0.47194,7.52958 -2.38227,15.18127 -3.60609,22.58443c-0.26988,2.15905 -0.28231,4.54057 -0.61094,6.65819c-0.28618,1.84414 -0.97949,3.62668 -1.17803,5.55921c-0.19756,1.9229 -0.1939,4.02435 -0.64352,5.92718c-0.69231,2.92994 -1.92523,5.55825 -3.07219,8.30844c-1.32075,3.16691 -2.13884,6.55469 -4.01248,9.50705c-1.12847,1.77818 -2.52227,3.48335 -3.70339,5.24211c-2.45394,2.47478 -5.11546,4.52781 -7.59068,7.00303l-0.59873,0.59873c0,0 -1.13779,1.13779 -2.27558,0z" fill="#422d0c"/><path d="M307.77075,176.26195c-1.43921,-0.71961 -0.7196,-2.15882 -0.7196,-2.15882l0.12949,0.12088c0.01372,-4.82942 1.35972,-9.77681 2.43796,-14.4398c1.90177,-8.22445 3.26879,-16.63775 4.46359,-25.00445c1.302,-9.1121 2.62667,-17.96824 3.28231,-27.14728c0.2479,-3.47053 0.70966,-7.00681 0.30372,-10.4667c0,0 -0.17769,-1.59923 1.42155,-1.77693c1.59924,-0.17769 1.77693,1.42155 1.77693,1.42155c0.39063,3.69082 -0.03106,7.39225 -0.29501,11.08751c-0.66009,9.24122 -1.99368,18.16498 -3.3037,27.33697c-1.20954,8.4637 -2.60053,16.9664 -4.51734,25.28871c-1.01505,4.4071 -2.36692,9.13308 -2.35187,13.70042l-0.46924,1.31833c0,0 -0.7196,1.43921 -2.15881,0.71961z" fill="#422d0c"/><path d="M322.67383,178.09005c0.26708,0.38243 0.66655,1.222 -0.17303,2.06158c-1.13779,1.13779 -2.27558,0 -2.27558,0l-0.77065,-1.43715c0.01837,-8.66872 1.50725,-17.34297 1.49682,-26.04468c0.00867,-7.69186 0.60743,-15.51437 1.20294,-23.18375c0.17731,-2.28362 0.74307,-4.54578 0.89507,-6.84164c0.3468,-5.23812 0.76734,-10.49123 1.51053,-15.7055c0,0 0.22756,-1.59291 1.82046,-1.36535c1.59291,0.22756 1.36535,1.82047 1.36535,1.82047c-0.73344,5.12179 -1.13785,10.28402 -1.48311,15.42835c-0.15597,2.32402 -0.72517,4.61822 -0.90111,6.92911c-0.57705,7.57899 -1.2013,15.3176 -1.19198,22.91831c-0.00945,8.48777 -1.44605,16.96641 -1.49572,25.42025z" fill="#422d0c"/><path d="M340.4647,182.42772c-0.7196,1.43921 -2.15881,0.71961 -2.15881,0.71961l-1.73433,-1.03275c-4.16893,-5.33433 -2.55661,-13.09574 -3.0414,-19.43304c-0.21872,-2.8592 -0.90286,-5.73707 -1.18885,-8.60184c-2.47616,-14.81244 -1.5109,-29.87221 -1.5109,-44.81768c0,0 0,-1.60908 1.60908,-1.60908c1.60908,0 1.60908,1.60908 1.60908,1.60908c0,14.80767 -0.95644,29.71613 1.48274,44.39281c0.29233,2.91842 0.98083,5.84735 1.20606,8.76127c0.22313,2.88674 0.0945,5.81142 0.3008,8.70022c0.22998,3.22044 -0.10287,6.38401 2.04636,8.98789l0.66058,0.16471c0,0 1.4392,0.71961 0.7196,2.15882z" fill="#422d0c"/><path d="M276.64551,175.42147c0,-1.60908 1.60908,-1.60908 1.60908,-1.60908l0.30049,0.11509c1.88046,-0.69712 1.93841,-1.67876 3.43047,-3.01059c0.40785,-0.36406 1.03027,-0.43878 1.4179,-0.82429c0.36689,-0.36489 0.44542,-0.94436 0.7676,-1.34928c2.04196,-2.56634 4.17637,-5.07381 5.87579,-7.92045c0,0 0.82787,-1.37978 2.20764,-0.55192c1.37977,0.82787 0.55192,2.20765 0.55192,2.20765c-1.77807,2.95035 -3.96151,5.58694 -6.09877,8.24521c-0.40511,0.50387 -0.57247,1.18616 -1.02859,1.64437c-0.43537,0.43737 -1.11361,0.5629 -1.57575,0.97189c-1.658,1.4673 -2.17964,2.66298 -4.353,3.57541l-1.49569,0.11509c0,0 -1.60908,0 -1.60908,-1.60908z" fill="#422d0c"/><path d="M353.93403,180.45099c-1.13779,1.13779 -2.27558,0 -2.27558,0l-1.04991,-1.06696c-1.50001,-0.8842 -3.83332,-1.86107 -4.8201,-3.34159c-1.72123,-2.58244 -0.28301,-6.4162 -0.28919,-9.30253c0,0 0,-1.60908 1.60908,-1.60908c1.60908,0 1.60908,1.60908 1.60908,1.60908c-0.00307,1.5824 -0.05927,3.17547 -0.31829,4.73652c-0.13299,0.80148 -0.58908,1.92958 0.0291,2.72533c0.85322,1.0983 3.01523,1.94864 4.16082,2.6457l1.345,1.32796c0,0 1.13779,1.13779 0,2.27558z" fill="#422d0c"/></g></g></svg>