<svg version="1.1" xmlns="http://www.w3.org/2000/svg" xmlns:xlink="http://www.w3.org/1999/xlink" width="62.20526" height="17.42085" viewBox="0,0,62.20526,17.42085"><g transform="translate(-130.71149,-302.51315)"><g data-paper-data="{&quot;isPaintingLayer&quot;:true}" fill-rule="nonzero" stroke-linecap="butt" stroke-linejoin="miter" stroke-miterlimit="10" stroke-dasharray="" stroke-dashoffset="0" style="mix-blend-mode: normal"><text transform="translate(165.09925,314.92917) scale(0.26816,0.26816)" font-size="40" xml:space="preserve" fill-opacity="0.69804" fill="#ffffff" fill-rule="nonzero" stroke="none" stroke-width="1" stroke-linecap="butt" stroke-linejoin="miter" stroke-miterlimit="10" stroke-dasharray="" stroke-dashoffset="0" font-family="&quot;ヒラギノ角ゴ Pro W3&quot;, &quot;Hiragino Kaku Gothic Pro&quot;, Osaka, &quot;メイリオ&quot;, Meiryo, &quot;ＭＳ Ｐゴシック&quot;, &quot;MS PGothic&quot;" font-weight="normal" text-anchor="start" style="mix-blend-mode: normal"><tspan x="0" dy="0">button</tspan></text><path d="M130.71149,319.934v-17.42085h21.20257v17.42085z" fill="#000000" stroke="#ffffff" stroke-width="0"/><path d="M143.66742,317.66179c-0.68189,0.31229 -0.99418,-0.3696 -0.99418,-0.3696l-0.19255,-0.47423c-1.17023,-1.46655 -3.00469,-3.37856 -4.8686,-3.89847c-0.014,-0.0033 -0.02806,-0.00713 -0.04217,-0.01153c-0.02862,-0.00766 -0.05725,-0.01498 -0.08588,-0.02197c0,0 -0.72615,-0.18763 -0.53853,-0.91378c0.10248,-0.39663 0.36563,-0.52064 0.58335,-0.55151c1.95854,-1.58372 4.38983,-3.86536 5.71202,-5.91609l0.29253,-0.28316c0,0 0.58579,-0.46835 1.05414,0.11744c0.46835,0.58579 -0.11744,1.05414 -0.11744,1.05414l0.02989,-0.07317c-1.24611,1.91733 -3.38037,4.0246 -5.28749,5.64972c1.7283,0.89517 3.29852,2.48684 4.43976,3.91169l0.38475,0.78634c0,0 0.31229,0.68189 -0.3696,0.99418z" fill="#ffffff" stroke="none" stroke-width="0.5"/></g></g></svg>