<svg version="1.1" xmlns="http://www.w3.org/2000/svg" xmlns:xlink="http://www.w3.org/1999/xlink" width="119.13274" height="101.02291" viewBox="0,0,119.13274,101.02291"><g transform="translate(-263.98505,-126.10622)"><g data-paper-data="{&quot;isPaintingLayer&quot;:true}" fill="#ffffff" fill-rule="nonzero" stroke-linecap="butt" stroke-linejoin="miter" stroke-miterlimit="10" stroke-dasharray="" stroke-dashoffset="0" style="mix-blend-mode: normal"><path d="M263.98506,213.67778v-60.3393h44.90366v60.3393z" stroke="none" stroke-width="0"/><path d="M306.83018,155.32489c0.00784,-0.77714 0.38256,-1.40167 0.38256,-1.40167c1.99706,-3.32844 3.87651,-7.01196 6.25392,-10.07497c3.58227,-4.61531 8.1113,-8.5864 12.44608,-12.46894c1.57417,-1.40994 2.41934,-3.74606 4.34485,-4.61692c6.60672,-2.98808 14.32058,4.90212 16.46047,10.1163c9.753,19.56888 7.3388,42.35391 3.93197,63.14898c-0.95093,6.65653 -2.22065,13.99345 -5.99645,19.70379c-0.48646,0.7357 -1.38175,1.13712 -1.87099,1.87099c-1.1976,1.79639 -1.9447,4.31101 -3.93687,5.14319c-2.38412,0.99591 -5.5595,-0.1858 -7.77627,-0.85687c-3.54823,-1.07413 -7.33549,-2.22813 -10.66247,-3.89068c-2.24761,-1.12317 -4.41306,-3.25949 -6.76907,-4.1033c-0.98622,-0.35322 -2.18306,-0.06085 -3.08665,-0.59086c-1.1995,-0.70358 -1.96663,-1.96663 -2.94995,-2.94995c-2.43594,-12.11741 -4.00982,-24.64099 -4.94826,-36.98321c-0.39978,-5.25782 -2.24238,-11.27091 -0.32007,-16.47664c0.94715,-2.56494 2.24159,-3.47631 4.08173,-5.31645z" stroke="none" stroke-width="0.5"/><path d="M370.93773,195.43567c0,-1.40074 0.78483,-2.01665 1.47501,-2.28747c1.69398,-2.44819 3.98209,-4.82847 4.69049,-7.71307c1.88433,-7.67293 0.20613,-15.55735 -4.28031,-21.73384c-2.08072,-2.86453 -3.91988,-5.84129 -7.32987,-7.10613c0,0 -2.32119,-0.92848 -1.39272,-3.24967c0.92848,-2.32119 3.24967,-1.39272 3.24967,-1.39272c4.3672,1.83306 6.77127,5.03724 9.50901,8.79725c5.34634,7.34267 7.36914,16.91272 5.07462,25.97631c-0.97786,3.86264 -3.90463,6.67938 -5.88443,9.99557l-2.61148,1.21376c0,0 -2.5,0 -2.5,-2.5z" stroke="#000000" stroke-width="0.5"/></g></g></svg>