<svg version="1.1" xmlns="http://www.w3.org/2000/svg" xmlns:xlink="http://www.w3.org/1999/xlink" width="45.72566" height="17.42085" viewBox="0,0,45.72566,17.42085"><g transform="translate(-154.50549,-346.22054)"><g data-paper-data="{&quot;isPaintingLayer&quot;:true}" fill-rule="nonzero" stroke-linecap="butt" stroke-linejoin="miter" stroke-miterlimit="10" stroke-dasharray="" stroke-dashoffset="0" style="mix-blend-mode: normal"><path d="M154.50549,363.64139v-17.42085h45.72566v17.42085z" fill="#000000" stroke="#ffffff" stroke-width="0"/><text transform="translate(161.50165,358.07282) scale(0.2524,0.2524)" font-size="40" xml:space="preserve" fill-opacity="0.69804" fill="#ffffff" fill-rule="nonzero" stroke="none" stroke-width="1" stroke-linecap="butt" stroke-linejoin="miter" stroke-miterlimit="10" stroke-dasharray="" stroke-dashoffset="0" font-family="&quot;ヒラギノ角ゴ Pro W3&quot;, &quot;Hiragino Kaku Gothic Pro&quot;, Osaka, &quot;メイリオ&quot;, Meiryo, &quot;ＭＳ Ｐゴシック&quot;, &quot;MS PGothic&quot;" font-weight="normal" text-anchor="start" style="mix-blend-mode: normal"><tspan x="0" dy="0">close</tspan></text><path d="M187.13171,358.50825c-0.65332,-0.26133 -0.39199,-0.91464 -0.39199,-0.91464l0.24704,-0.61105c0.45364,-0.90341 1.02095,-1.65775 1.6346,-2.37241c-0.6136,-0.80501 -1.30718,-1.51819 -2.4547,-1.88777c0,0 -0.66753,-0.22251 -0.44502,-0.89005c0.22251,-0.66753 0.89005,-0.44502 0.89005,-0.44502c1.39049,0.47557 2.17591,1.31421 2.89297,2.23631c0.48993,-0.53509 0.98853,-1.07681 1.46592,-1.67371c0,0 0.43956,-0.54945 0.98901,-0.10989c0.54945,0.43956 0.10989,0.98901 0.10989,0.98901c-0.55275,0.69074 -1.14078,1.30194 -1.70766,1.91715c0.36813,0.46495 0.77145,0.92317 1.27405,1.34127l0.38171,0.37762c0,0 0.49755,0.49755 0,0.9951c-0.49755,0.49755 -0.9951,0 -0.9951,0l-0.28753,-0.29162c-0.5075,-0.4236 -0.90572,-0.90757 -1.27127,-1.40033c-0.45739,0.5591 -0.87575,1.15547 -1.2182,1.8437l-0.19912,0.50435c0,0 -0.26133,0.65332 -0.91464,0.39199z" fill-opacity="0.69804" fill="#ffffff" stroke="none" stroke-width="0.5"/></g></g></svg>