<svg version="1.1" xmlns="http://www.w3.org/2000/svg" xmlns:xlink="http://www.w3.org/1999/xlink" width="21.20257" height="17.42085" viewBox="0,0,21.20257,17.42085"><g transform="translate(-206.68149,-302.39426)"><g data-paper-data="{&quot;isPaintingLayer&quot;:true}" fill-rule="nonzero" stroke-linecap="butt" stroke-linejoin="miter" stroke-miterlimit="10" stroke-dasharray="" stroke-dashoffset="0" style="mix-blend-mode: normal"><path d="M206.68149,319.81511v-17.42085h21.20257v17.42085z" data-paper-data="{&quot;index&quot;:null}" fill="#000000" stroke="#ffffff" stroke-width="0"/><path d="M214.55853,316.54872l0.38476,-0.78635c1.14124,-1.42485 2.71146,-3.01652 4.43976,-3.91169c-1.90712,-1.62511 -4.04138,-3.73238 -5.28749,-5.64972l0.02989,0.07317c0,0 -0.58579,-0.46835 -0.11744,-1.05414c0.46835,-0.58579 1.05414,-0.11744 1.05414,-0.11744l0.29253,0.28316c1.32219,2.05073 3.75348,4.33237 5.71202,5.91609c0.21773,0.03087 0.48087,0.15489 0.58335,0.55151c0.18762,0.72615 -0.53852,0.91377 -0.53852,0.91377c-0.02863,0.00699 -0.05726,0.01432 -0.08588,0.02197c-0.01412,0.0044 -0.02818,0.00823 -0.04217,0.01153c-1.86391,0.51992 -3.69836,2.43192 -4.86859,3.89847l-0.19255,0.47423c0,0 -0.31229,0.68188 -0.99418,0.3696c-0.68189,-0.31228 -0.36961,-0.99417 -0.36961,-0.99417z" data-paper-data="{&quot;index&quot;:null}" fill="#ffffff" stroke="none" stroke-width="0.5"/></g></g></svg>