<svg version="1.1" xmlns="http://www.w3.org/2000/svg" xmlns:xlink="http://www.w3.org/1999/xlink" width="251.19337" height="476.2841" viewBox="0,0,251.19337,476.2841"><defs><radialGradient cx="180" cy="484.5" r="255.21478" gradientUnits="userSpaceOnUse" id="color-1"><stop offset="0" stop-color="#6f6f6f"/><stop offset="1" stop-color="#1d1e1d"/></radialGradient></defs><g transform="translate(-52.09675,-232.00455)"><g data-paper-data="{&quot;isPaintingLayer&quot;:true}" fill-rule="nonzero" stroke-linecap="butt" stroke-linejoin="miter" stroke-miterlimit="10" stroke-dasharray="" stroke-dashoffset="0" style="mix-blend-mode: normal"><path d="M248.14547,691.25843c-10.54975,35.07304 -50.45899,5.1016 -67.26995,5.1016c-21.96154,0 -61.61799,14.44128 -71.37531,-40.77108c-4.40684,-24.93635 -57.40346,-122.17177 -57.40346,-152.5065c0,-80.69211 139.46328,-267.22391 139.46328,-267.22391c0,0 111.73009,208.05468 111.73009,305.5545c0,0 -45.68783,118.40589 -55.14464,149.84539z" fill="url(#color-1)" stroke="#202020" stroke-width="0"/><path d="M187.0451,235.17986c-0.19212,-0.61054 -0.16599,-1.38965 0.53434,-2.23004c1.60046,-1.92055 3.52101,-0.32009 3.52101,-0.32009l2.16731,1.81945c3.63783,4.33333 8.07266,8.37345 11.28572,13.00854c5.76398,8.31498 8.51757,17.37016 12.00013,26.68262c0.71317,2.8369 1.12418,5.85646 1.99252,8.64306c1.10563,3.54807 4.04149,7.0287 3.78106,10.94187c-0.25749,3.86896 -3.23528,5.84444 -5.39193,8.51181c-0.95422,1.18019 -1.06816,3.55711 -2.57269,3.75654c-1.7385,0.23045 -3.10625,-1.68498 -4.4368,-2.8274c-1.1239,-0.96499 -2.4834,-3.89583 -3.38223,-5.05956c-1.96508,-2.5442 -4.97699,-4.39767 -7.36891,-6.67336c-0.04226,0.89435 -0.10347,1.78757 -0.18508,2.67851c-0.12063,1.31681 -0.3987,5.58558 -1.21988,6.81992c-0.99574,1.49673 -2.05201,3.63135 -3.84326,3.78349c-1.6485,0.14001 -2.76374,-1.88378 -3.85202,-3.12989c-2.19832,-2.51714 -3.59436,-7.82022 -4.56616,-11.08447c-2.89874,7.38767 -5.60332,15.40581 -10.2273,21.73378l0.38967,0.22267l-1.30926,2.2912c-0.42441,0.77572 -1.24811,1.30179 -2.19469,1.30179c-1.05134,0 -1.9511,-0.64897 -2.32056,-1.56816l-0.9773,-2.28038l0.05885,-0.02522l-0.13087,-0.16356c-0.65063,-2.60685 -0.88048,-5.302 -1.40747,-7.93663c-0.93469,-4.6728 -2.23448,-8.28918 -1.70735,-13.13546c0.18726,-1.72161 0.52811,-3.42241 0.81296,-5.13115c-0.21742,0.18966 -0.3711,0.30859 -0.38896,0.32319c-1.64116,1.3415 -6.35591,3.70715 -8.37372,1.85181c-1.23687,-1.13729 -0.14326,-3.36743 0.00908,-5.04077c0.08737,-0.95967 0.47005,-1.86907 0.70507,-2.8036c3.34573,-8.88815 8.44562,-18.75843 14.4536,-26.17503c2.26974,-2.8019 5.14483,-5.17587 7.2132,-8.17426c2.20253,-3.19288 4.20576,-6.60139 6.26683,-9.8991c0,0 0.23489,-0.37582 0.6651,-0.71209z" fill="#ffffff" stroke="none" stroke-width="0.5"/></g></g></svg>