<svg version="1.1" xmlns="http://www.w3.org/2000/svg" xmlns:xlink="http://www.w3.org/1999/xlink" width="121.61347" height="56.11944" viewBox="0,0,121.61347,56.11944"><g transform="translate(-257.85824,-187.58739)"><g data-paper-data="{&quot;isPaintingLayer&quot;:true}" fill-rule="nonzero" stroke-linecap="butt" stroke-linejoin="miter" stroke-miterlimit="10" stroke-dasharray="" stroke-dashoffset="0" style="mix-blend-mode: normal"><path d="M376.83927,241.5715c-9.00609,4.39763 -43.07573,0.63966 -57.42688,0.63966c-18.74809,0 -52.60192,1.81072 -60.93153,-5.11208c-3.76203,-3.12664 10.75338,-29.61237 10.75338,-33.41589c0,-10.11757 4.62744,-14.04847 25.95592,-15.39939c2.48563,-0.15743 13.99416,-0.81411 23.09921,-0.67795c7.16857,0.1072 17.97075,1.19518 20.03742,1.19518c27.21553,0 33.51388,8.34092 33.51388,20.56593c0,0 13.07166,28.26249 4.99859,32.20453z" fill="#2e621e" stroke="#202020" stroke-width="0"/><g fill="#2a571d" stroke="none" stroke-width="0.5"><g><path d="M317.09397,204.22121c0.05936,-0.18993 0.23742,-0.12662 0.23742,-0.12662l0.1596,0.07234c0.14336,0.14011 0.21992,0.27181 0.25477,0.40058c0.02953,0.00367 0.05697,0.01466 0.08068,0.03121c0.00358,-0.01861 0.00998,-0.03847 0.01987,-0.05957c0.08394,-0.17906 0.25182,-0.08954 0.25182,-0.08954l0.16574,0.18057c-0.00008,0.02024 0.00208,0.04145 0.00534,0.06314c0.00367,-0.02994 0.00974,-0.06106 0.01866,-0.09354l0.10987,-0.14709c0,0 0.13272,-0.14157 0.26545,0c0.13272,0.14157 0,0.28312 0,0.28312l-0.01919,-0.00942c-0.0822,0.21438 0.0579,1.2556 0.09937,1.25851c0,0 0.18048,0.055 0.12891,0.2475c-0.05157,0.1925 -0.23204,0.1375 -0.23204,0.1375c-0.10477,-0.04266 -0.24078,-0.03769 -0.31432,-0.128c-0.07489,-0.09197 -0.07971,-0.23368 -0.07937,-0.35549c0.00041,-0.14695 0.13701,-0.26035 0.16481,-0.40427c0.03895,-0.20166 -0.07049,-0.35426 -0.12173,-0.54201c-0.00547,0.01747 -0.01417,0.03352 -0.02717,0.0477c-0.04564,0.04978 -0.13958,0.07178 -0.22714,0.06628c0.18521,0.74827 0.22659,1.46631 -0.61491,1.72878c0,0 -0.18048,0.055 -0.23204,-0.1375c-0.05157,-0.1925 0.12891,-0.2475 0.12891,-0.2475c0.59149,-0.17504 0.50669,-0.67181 0.37205,-1.18825c-0.05195,0.2023 -0.10394,0.41857 -0.0697,0.66759c0,0 0.02328,0.19866 -0.16297,0.22349c-0.18625,0.02483 -0.20953,-0.17382 -0.20953,-0.17382c-0.04913,-0.47911 0.3821,-1.14152 -0.00044,-1.45598l-0.03401,0.0035c0,0 -0.17807,-0.06331 -0.11871,-0.25323z"/><path d="M315.29841,202.42566c0.05936,-0.18993 0.23743,-0.12661 0.23743,-0.12661l0.1596,0.07233c0.14336,0.14011 0.21992,0.27182 0.25477,0.40058c0.02953,0.00367 0.05696,0.01466 0.08067,0.03121c0.00358,-0.01861 0.00998,-0.03846 0.01987,-0.05956c0.08394,-0.17906 0.25182,-0.08954 0.25182,-0.08954l0.16574,0.18057c-0.00008,0.02024 0.00208,0.04145 0.00534,0.06315c0.00367,-0.02994 0.00973,-0.06106 0.01866,-0.09354l0.10988,-0.14709c0,0 0.13273,-0.14156 0.26545,0c0.13272,0.14156 0,0.28313 0,0.28313l-0.01919,-0.00943c-0.0822,0.21438 0.0579,1.2556 0.09937,1.25851c0,0 0.18048,0.055 0.12892,0.2475c-0.05157,0.1925 -0.23204,0.1375 -0.23204,0.1375c-0.10477,-0.04267 -0.24078,-0.03769 -0.31432,-0.12799c-0.07488,-0.09197 -0.07972,-0.23369 -0.07938,-0.3555c0.00041,-0.14695 0.13702,-0.26034 0.16481,-0.40426c0.03895,-0.20166 -0.07049,-0.35426 -0.12172,-0.54201c-0.00547,0.01747 -0.01418,0.03352 -0.02717,0.0477c-0.04564,0.04978 -0.13958,0.07178 -0.22714,0.06628c0.18521,0.74826 0.22659,1.46631 -0.6149,1.72879c0,0 -0.18047,0.055 -0.23204,-0.1375c-0.05157,-0.1925 0.12891,-0.2475 0.12891,-0.2475c0.59149,-0.17504 0.50669,-0.67182 0.37205,-1.18826c-0.05195,0.2023 -0.10395,0.41857 -0.0697,0.66759c0,0 0.02329,0.19866 -0.16296,0.22349c-0.18625,0.02483 -0.20954,-0.17382 -0.20954,-0.17382c-0.04913,-0.47911 0.38212,-1.14152 -0.00043,-1.45599l-0.03401,0.00351c0,0 -0.17807,-0.06331 -0.11872,-0.25323z"/><path d="M320.68508,201.26383c0.05936,-0.18993 0.23743,-0.12661 0.23743,-0.12661l0.1596,0.07233c0.14336,0.14011 0.21991,0.27182 0.25476,0.40058c0.02953,0.00367 0.05697,0.01466 0.08068,0.0312c0.00358,-0.01861 0.00998,-0.03847 0.01987,-0.05957c0.08394,-0.17906 0.25182,-0.08954 0.25182,-0.08954l0.16574,0.18057c-0.00008,0.02024 0.00208,0.04145 0.00533,0.06315c0.00367,-0.02994 0.00974,-0.06106 0.01866,-0.09354l0.10987,-0.14709c0,0 0.13272,-0.14156 0.26545,0c0.13272,0.14156 0,0.28313 0,0.28313l-0.01919,-0.00943c-0.0822,0.21438 0.0579,1.2556 0.09937,1.25851c0,0 0.18048,0.055 0.12891,0.2475c-0.05157,0.1925 -0.23204,0.1375 -0.23204,0.1375c-0.10477,-0.04267 -0.24078,-0.03769 -0.31432,-0.12799c-0.07488,-0.09197 -0.07971,-0.23368 -0.07937,-0.35549c0.00041,-0.14695 0.13701,-0.26035 0.16481,-0.40427c0.03895,-0.20166 -0.0705,-0.35426 -0.12173,-0.54201c-0.00547,0.01747 -0.01418,0.03352 -0.02717,0.0477c-0.04564,0.04978 -0.13957,0.07178 -0.22713,0.06628c0.18521,0.74826 0.22659,1.46631 -0.61491,1.72879c0,0 -0.18048,0.055 -0.23204,-0.1375c-0.05157,-0.1925 0.12891,-0.2475 0.12891,-0.2475c0.59149,-0.17504 0.50669,-0.67181 0.37205,-1.18825c-0.05195,0.2023 -0.10394,0.41857 -0.0697,0.66759c0,0 0.02328,0.19866 -0.16297,0.22349c-0.18625,0.02483 -0.20953,-0.17382 -0.20953,-0.17382c-0.04913,-0.47911 0.38211,-1.14152 -0.00044,-1.45599l-0.034,0.00351c0,0 -0.17807,-0.06331 -0.11872,-0.25324z"/><path d="M322.90312,198.30644c0.05936,-0.18993 0.23743,-0.12662 0.23743,-0.12662l0.1596,0.07234c0.14336,0.14011 0.21991,0.27182 0.25476,0.40058c0.02953,0.00367 0.05697,0.01466 0.08068,0.03121c0.00358,-0.01861 0.00998,-0.03846 0.01987,-0.05956c0.08394,-0.17906 0.25182,-0.08954 0.25182,-0.08954l0.16574,0.18057c-0.00008,0.02024 0.00208,0.04145 0.00534,0.06314c0.00367,-0.02994 0.00973,-0.06106 0.01866,-0.09354l0.10988,-0.14709c0,0 0.13272,-0.14156 0.26544,0c0.13272,0.14156 0,0.28312 0,0.28312l-0.01919,-0.00942c-0.0822,0.21438 0.0579,1.2556 0.09937,1.25851c0,0 0.18048,0.055 0.12892,0.2475c-0.05157,0.1925 -0.23204,0.1375 -0.23204,0.1375c-0.10477,-0.04267 -0.24078,-0.03769 -0.31432,-0.12799c-0.07488,-0.09197 -0.07972,-0.23369 -0.07938,-0.3555c0.00041,-0.14695 0.13702,-0.26034 0.16481,-0.40426c0.03895,-0.20166 -0.0705,-0.35426 -0.12173,-0.54201c-0.00547,0.01747 -0.01417,0.03352 -0.02717,0.0477c-0.04564,0.04978 -0.13958,0.07178 -0.22714,0.06628c0.18521,0.74826 0.22659,1.46631 -0.61491,1.72878c0,0 -0.18047,0.055 -0.23204,-0.1375c-0.05157,-0.1925 0.12891,-0.2475 0.12891,-0.2475c0.59149,-0.17504 0.50669,-0.67182 0.37205,-1.18826c-0.05195,0.2023 -0.10394,0.41857 -0.0697,0.66759c0,0 0.02329,0.19866 -0.16296,0.22349c-0.18625,0.02483 -0.20954,-0.17383 -0.20954,-0.17383c-0.04913,-0.47911 0.38211,-1.14151 -0.00044,-1.45598l-0.034,0.00351c0,0 -0.17807,-0.06331 -0.11872,-0.25324z"/><path d="M327.02234,195.24343c0.05936,-0.18993 0.23742,-0.12661 0.23742,-0.12661l0.1596,0.07233c0.14336,0.14011 0.21992,0.27182 0.25477,0.40058c0.02953,0.00367 0.05696,0.01466 0.08067,0.03121c0.00358,-0.01861 0.00998,-0.03847 0.01987,-0.05957c0.08394,-0.17906 0.25182,-0.08954 0.25182,-0.08954l0.16574,0.18057c-0.00008,0.02024 0.00208,0.04144 0.00534,0.06314c0.00367,-0.02994 0.00973,-0.06106 0.01866,-0.09354l0.10988,-0.14709c0,0 0.13273,-0.14156 0.26545,0c0.13272,0.14156 0,0.28313 0,0.28313l-0.01919,-0.00942c-0.0822,0.21438 0.0579,1.2556 0.09937,1.25851c0,0 0.18048,0.055 0.12891,0.2475c-0.05157,0.1925 -0.23204,0.1375 -0.23204,0.1375c-0.10477,-0.04267 -0.24078,-0.03769 -0.31432,-0.12799c-0.07488,-0.09197 -0.07972,-0.23368 -0.07938,-0.35549c0.00041,-0.14695 0.13701,-0.26035 0.16481,-0.40427c0.03895,-0.20166 -0.07049,-0.35426 -0.12172,-0.54201c-0.00547,0.01747 -0.01418,0.03352 -0.02717,0.0477c-0.04564,0.04978 -0.13958,0.07178 -0.22714,0.06628c0.18521,0.74826 0.22659,1.4663 -0.61491,1.72878c0,0 -0.18047,0.055 -0.23204,-0.1375c-0.05157,-0.1925 0.12891,-0.2475 0.12891,-0.2475c0.59149,-0.17504 0.5067,-0.67181 0.37206,-1.18825c-0.05195,0.2023 -0.10394,0.41857 -0.0697,0.66759c0,0 0.02328,0.19866 -0.16297,0.22349c-0.18625,0.02483 -0.20953,-0.17383 -0.20953,-0.17383c-0.04913,-0.47911 0.38211,-1.14152 -0.00044,-1.45598l-0.03401,0.00351c0,0 -0.17807,-0.06331 -0.11871,-0.25324z"/><path d="M327.44483,200.52448c0.05936,-0.18993 0.23742,-0.12661 0.23742,-0.12661l0.1596,0.07234c0.14336,0.14011 0.21992,0.27182 0.25477,0.40058c0.02953,0.00367 0.05696,0.01466 0.08067,0.03121c0.00358,-0.01861 0.00998,-0.03847 0.01987,-0.05957c0.08394,-0.17906 0.25182,-0.08954 0.25182,-0.08954l0.16574,0.18057c-0.00008,0.02024 0.00208,0.04144 0.00534,0.06314c0.00367,-0.02994 0.00973,-0.06106 0.01866,-0.09354l0.10988,-0.14708c0,0 0.13272,-0.14156 0.26545,0c0.13272,0.14156 0,0.28312 0,0.28312l-0.01919,-0.00942c-0.0822,0.21438 0.0579,1.2556 0.09937,1.25852c0,0 0.18048,0.055 0.12892,0.2475c-0.05157,0.1925 -0.23204,0.1375 -0.23204,0.1375c-0.10477,-0.04267 -0.24079,-0.03769 -0.31433,-0.12799c-0.07488,-0.09197 -0.07971,-0.23369 -0.07937,-0.3555c0.00041,-0.14695 0.13701,-0.26035 0.16481,-0.40427c0.03895,-0.20166 -0.07049,-0.35426 -0.12172,-0.54201c-0.00547,0.01747 -0.01418,0.03352 -0.02717,0.0477c-0.04564,0.04978 -0.13958,0.07178 -0.22714,0.06628c0.18521,0.74826 0.22659,1.4663 -0.6149,1.72878c0,0 -0.18048,0.055 -0.23204,-0.1375c-0.05157,-0.1925 0.12891,-0.2475 0.12891,-0.2475c0.59149,-0.17504 0.5067,-0.67181 0.37206,-1.18825c-0.05195,0.2023 -0.10395,0.41857 -0.0697,0.66759c0,0 0.02328,0.19866 -0.16297,0.22349c-0.18625,0.02483 -0.20953,-0.17383 -0.20953,-0.17383c-0.04913,-0.47911 0.38211,-1.14151 -0.00044,-1.45598l-0.034,0.00351c0,0 -0.17807,-0.06331 -0.11871,-0.25324z"/></g><g><path d="M310.13162,200.86897c0.05936,-0.18993 0.23742,-0.12661 0.23742,-0.12661l0.1596,0.07233c0.14336,0.14011 0.21992,0.27181 0.25477,0.40058c0.02953,0.00367 0.05696,0.01466 0.08067,0.03121c0.00358,-0.01861 0.00998,-0.03847 0.01987,-0.05957c0.08394,-0.17906 0.25183,-0.08954 0.25183,-0.08954l0.16573,0.18057c-0.00008,0.02024 0.00208,0.04145 0.00534,0.06315c0.00367,-0.02994 0.00974,-0.06106 0.01866,-0.09354l0.10988,-0.14709c0,0 0.13272,-0.14157 0.26545,0c0.13272,0.14157 0,0.28313 0,0.28313l-0.01919,-0.00942c-0.0822,0.21438 0.0579,1.2556 0.09937,1.25851c0,0 0.18048,0.055 0.12891,0.2475c-0.05157,0.1925 -0.23204,0.1375 -0.23204,0.1375c-0.10477,-0.04266 -0.24078,-0.03769 -0.31432,-0.128c-0.07489,-0.09197 -0.07971,-0.23368 -0.07937,-0.35549c0.00041,-0.14695 0.13702,-0.26035 0.16481,-0.40427c0.03895,-0.20166 -0.07049,-0.35426 -0.12173,-0.54201c-0.00547,0.01747 -0.01417,0.03352 -0.02717,0.04769c-0.04564,0.04978 -0.13958,0.07178 -0.22714,0.06628c0.18521,0.74827 0.22659,1.46631 -0.6149,1.72879c0,0 -0.18048,0.055 -0.23204,-0.1375c-0.05157,-0.1925 0.12891,-0.2475 0.12891,-0.2475c0.59149,-0.17504 0.5067,-0.67181 0.37206,-1.18825c-0.05195,0.2023 -0.10394,0.41857 -0.0697,0.66759c0,0 0.02328,0.19866 -0.16297,0.22349c-0.18625,0.02483 -0.20953,-0.17382 -0.20953,-0.17382c-0.04913,-0.47911 0.3821,-1.14152 -0.00044,-1.45598l-0.03401,0.00351c0,0 -0.17807,-0.06331 -0.11871,-0.25324z"/><path d="M308.33606,199.07341c0.05936,-0.18993 0.23743,-0.12662 0.23743,-0.12662l0.1596,0.07234c0.14336,0.14011 0.21992,0.27182 0.25477,0.40058c0.02953,0.00367 0.05696,0.01466 0.08067,0.03121c0.00358,-0.01861 0.00998,-0.03846 0.01987,-0.05956c0.08394,-0.17906 0.25182,-0.08954 0.25182,-0.08954l0.16574,0.18057c-0.00008,0.02024 0.00208,0.04145 0.00534,0.06315c0.00367,-0.02994 0.00973,-0.06106 0.01866,-0.09354l0.10988,-0.14709c0,0 0.13272,-0.14156 0.26545,0c0.13272,0.14156 0,0.28313 0,0.28313l-0.01919,-0.00942c-0.0822,0.21438 0.05789,1.2556 0.09936,1.25851c0,0 0.18048,0.055 0.12892,0.2475c-0.05157,0.1925 -0.23204,0.1375 -0.23204,0.1375c-0.10477,-0.04267 -0.24079,-0.03769 -0.31433,-0.12799c-0.07488,-0.09197 -0.07972,-0.23369 -0.07938,-0.3555c0.00041,-0.14695 0.13701,-0.26035 0.16481,-0.40427c0.03895,-0.20166 -0.07049,-0.35426 -0.12172,-0.54201c-0.00547,0.01747 -0.01418,0.03352 -0.02717,0.0477c-0.04564,0.04978 -0.13958,0.07178 -0.22714,0.06628c0.18521,0.74826 0.22659,1.46631 -0.6149,1.72879c0,0 -0.18048,0.055 -0.23204,-0.1375c-0.05157,-0.1925 0.12891,-0.24749 0.12891,-0.24749c0.59149,-0.17504 0.50669,-0.67182 0.37205,-1.18826c-0.05195,0.2023 -0.10395,0.41857 -0.0697,0.66759c0,0 0.02328,0.19866 -0.16297,0.22349c-0.18625,0.02483 -0.20953,-0.17382 -0.20953,-0.17382c-0.04913,-0.47911 0.38211,-1.14152 -0.00044,-1.45599l-0.034,0.0035c0,0 -0.17807,-0.0633 -0.11872,-0.25323z"/><path d="M313.72273,197.91158c0.05936,-0.18993 0.23742,-0.12662 0.23742,-0.12662l0.15961,0.07234c0.14336,0.14011 0.21991,0.27182 0.25476,0.40058c0.02953,0.00367 0.05696,0.01466 0.08067,0.0312c0.00358,-0.01861 0.00998,-0.03846 0.01987,-0.05956c0.08394,-0.17906 0.25183,-0.08954 0.25183,-0.08954l0.16574,0.18057c-0.00008,0.02024 0.00207,0.04145 0.00533,0.06315c0.00367,-0.02994 0.00974,-0.06106 0.01866,-0.09354l0.10987,-0.14709c0,0 0.13273,-0.14156 0.26545,0c0.13272,0.14156 0,0.28313 0,0.28313l-0.01919,-0.00942c-0.0822,0.21438 0.0579,1.2556 0.09937,1.25851c0,0 0.18048,0.055 0.12891,0.2475c-0.05157,0.1925 -0.23204,0.1375 -0.23204,0.1375c-0.10477,-0.04267 -0.24078,-0.03769 -0.31432,-0.12799c-0.07488,-0.09197 -0.07971,-0.23369 -0.07937,-0.3555c0.00041,-0.14695 0.13701,-0.26035 0.16481,-0.40427c0.03895,-0.20166 -0.07049,-0.35426 -0.12173,-0.54201c-0.00547,0.01747 -0.01418,0.03352 -0.02717,0.0477c-0.04564,0.04978 -0.13958,0.07178 -0.22714,0.06628c0.18521,0.74826 0.22659,1.46631 -0.6149,1.72879c0,0 -0.18048,0.055 -0.23204,-0.1375c-0.05157,-0.1925 0.12891,-0.2475 0.12891,-0.2475c0.59149,-0.17504 0.5067,-0.67182 0.37206,-1.18826c-0.05195,0.2023 -0.10394,0.41857 -0.0697,0.66759c0,0 0.02328,0.19866 -0.16297,0.22349c-0.18625,0.02483 -0.20953,-0.17382 -0.20953,-0.17382c-0.04913,-0.47911 0.38211,-1.14152 -0.00044,-1.45599l-0.03401,0.00351c0,0 -0.17807,-0.06331 -0.11871,-0.25324z"/><path d="M315.94077,194.95419c0.05936,-0.18993 0.23743,-0.12662 0.23743,-0.12662l0.1596,0.07234c0.14336,0.14011 0.21992,0.27182 0.25477,0.40058c0.02953,0.00367 0.05696,0.01466 0.08067,0.03121c0.00358,-0.01861 0.00998,-0.03847 0.01987,-0.05957c0.08394,-0.17906 0.25182,-0.08953 0.25182,-0.08953l0.16574,0.18057c-0.00008,0.02024 0.00208,0.04144 0.00534,0.06314c0.00367,-0.02994 0.00973,-0.06106 0.01866,-0.09354l0.10988,-0.14709c0,0 0.13272,-0.14156 0.26544,0c0.13272,0.14156 0,0.28312 0,0.28312l-0.01919,-0.00942c-0.0822,0.21438 0.0579,1.2556 0.09937,1.25851c0,0 0.18048,0.055 0.12892,0.2475c-0.05157,0.1925 -0.23204,0.1375 -0.23204,0.1375c-0.10477,-0.04267 -0.24078,-0.03769 -0.31432,-0.12799c-0.07488,-0.09197 -0.07971,-0.23369 -0.07937,-0.3555c0.00041,-0.14695 0.13701,-0.26035 0.16481,-0.40427c0.03895,-0.20166 -0.07049,-0.35426 -0.12173,-0.54201c-0.00547,0.01747 -0.01418,0.03352 -0.02717,0.0477c-0.04564,0.04978 -0.13958,0.07178 -0.22714,0.06628c0.18521,0.74826 0.22659,1.4663 -0.6149,1.72878c0,0 -0.18048,0.055 -0.23204,-0.1375c-0.05157,-0.1925 0.12891,-0.24749 0.12891,-0.24749c0.59149,-0.17504 0.5067,-0.67182 0.37206,-1.18826c-0.05195,0.2023 -0.10394,0.41857 -0.0697,0.66759c0,0 0.02328,0.19866 -0.16297,0.22349c-0.18625,0.02483 -0.20953,-0.17382 -0.20953,-0.17382c-0.04913,-0.47911 0.38211,-1.14152 -0.00044,-1.45598l-0.03401,0.0035c0,0 -0.17807,-0.06331 -0.11872,-0.25323z"/><path d="M320.05999,191.89118c0.05936,-0.18993 0.23743,-0.12662 0.23743,-0.12662l0.1596,0.07234c0.14336,0.14011 0.21992,0.27182 0.25477,0.40058c0.02953,0.00367 0.05697,0.01466 0.08068,0.03121c0.00358,-0.01861 0.00998,-0.03846 0.01987,-0.05956c0.08394,-0.17906 0.25182,-0.08954 0.25182,-0.08954l0.16574,0.18057c-0.00008,0.02024 0.00208,0.04145 0.00534,0.06314c0.00367,-0.02994 0.00973,-0.06106 0.01866,-0.09354l0.10988,-0.14709c0,0 0.13272,-0.14156 0.26545,0c0.13272,0.14156 0,0.28312 0,0.28312l-0.01919,-0.00942c-0.0822,0.21438 0.0579,1.2556 0.09937,1.25851c0,0 0.18048,0.055 0.12891,0.2475c-0.05157,0.1925 -0.23204,0.1375 -0.23204,0.1375c-0.10477,-0.04267 -0.24078,-0.03769 -0.31432,-0.12799c-0.07488,-0.09197 -0.07972,-0.23369 -0.07938,-0.3555c0.00041,-0.14695 0.13702,-0.26034 0.16481,-0.40426c0.03895,-0.20166 -0.07049,-0.35426 -0.12173,-0.54201c-0.00547,0.01747 -0.01418,0.03352 -0.02717,0.0477c-0.04564,0.04978 -0.13958,0.07178 -0.22714,0.06628c0.18521,0.74826 0.22659,1.46631 -0.6149,1.72878c0,0 -0.18048,0.055 -0.23204,-0.1375c-0.05157,-0.1925 0.12891,-0.2475 0.12891,-0.2475c0.59149,-0.17504 0.50669,-0.67182 0.37205,-1.18826c-0.05195,0.2023 -0.10394,0.41857 -0.0697,0.66759c0,0 0.02328,0.19866 -0.16297,0.22349c-0.18625,0.02483 -0.20954,-0.17383 -0.20954,-0.17383c-0.04913,-0.47911 0.38211,-1.14151 -0.00044,-1.45598l-0.034,0.00351c0,0 -0.17807,-0.06331 -0.11872,-0.25324z"/><path d="M320.48248,197.17223c0.05936,-0.18993 0.23742,-0.12662 0.23742,-0.12662l0.1596,0.07234c0.14336,0.14011 0.21991,0.27182 0.25476,0.40058c0.02953,0.00367 0.05697,0.01466 0.08068,0.03121c0.00358,-0.01861 0.00998,-0.03847 0.01987,-0.05957c0.08394,-0.17906 0.25182,-0.08954 0.25182,-0.08954l0.16574,0.18057c-0.00008,0.02024 0.00208,0.04145 0.00534,0.06314c0.00367,-0.02994 0.00973,-0.06106 0.01866,-0.09354l0.10988,-0.14709c0,0 0.13273,-0.14156 0.26545,0c0.13272,0.14156 0,0.28312 0,0.28312l-0.01919,-0.00942c-0.0822,0.21438 0.0579,1.2556 0.09937,1.25851c0,0 0.18048,0.055 0.12891,0.2475c-0.05157,0.1925 -0.23204,0.1375 -0.23204,0.1375c-0.10477,-0.04267 -0.24079,-0.03769 -0.31433,-0.12799c-0.07488,-0.09197 -0.07971,-0.23368 -0.07937,-0.35549c0.00041,-0.14695 0.13702,-0.26035 0.16481,-0.40427c0.03895,-0.20166 -0.07049,-0.35426 -0.12172,-0.54201c-0.00547,0.01747 -0.01418,0.03352 -0.02717,0.0477c-0.04564,0.04978 -0.13958,0.07178 -0.22714,0.06628c0.18521,0.74826 0.22659,1.46631 -0.6149,1.72878c0,0 -0.18047,0.055 -0.23204,-0.1375c-0.05157,-0.1925 0.12891,-0.2475 0.12891,-0.2475c0.59149,-0.17504 0.50669,-0.67181 0.37205,-1.18825c-0.05195,0.2023 -0.10395,0.41857 -0.0697,0.66759c0,0 0.02329,0.19866 -0.16296,0.22349c-0.18625,0.02483 -0.20954,-0.17383 -0.20954,-0.17383c-0.04913,-0.47911 0.38211,-1.14152 -0.00044,-1.45598l-0.034,0.00351c0,0 -0.17807,-0.06331 -0.11872,-0.25324z"/></g><g><path d="M294.5308,206.02627c0.05936,-0.18993 0.23742,-0.12662 0.23742,-0.12662l0.1596,0.07234c0.14336,0.14011 0.21992,0.27181 0.25477,0.40058c0.02953,0.00367 0.05697,0.01466 0.08068,0.03121c0.00358,-0.01861 0.00998,-0.03847 0.01987,-0.05956c0.08394,-0.17906 0.25182,-0.08954 0.25182,-0.08954l0.16574,0.18057c-0.00008,0.02024 0.00208,0.04145 0.00534,0.06315c0.00367,-0.02994 0.00974,-0.06106 0.01866,-0.09354l0.10987,-0.14709c0,0 0.13273,-0.14157 0.26545,0c0.13272,0.14157 0,0.28312 0,0.28312l-0.01919,-0.00942c-0.0822,0.21438 0.0579,1.2556 0.09937,1.25851c0,0 0.18048,0.055 0.12891,0.2475c-0.05157,0.1925 -0.23204,0.1375 -0.23204,0.1375c-0.10477,-0.04266 -0.24078,-0.03769 -0.31432,-0.128c-0.07489,-0.09197 -0.07971,-0.23368 -0.07937,-0.35549c0.00041,-0.14695 0.13701,-0.26035 0.16481,-0.40427c0.03895,-0.20166 -0.07049,-0.35425 -0.12173,-0.542c-0.00547,0.01747 -0.01417,0.03352 -0.02717,0.04769c-0.04564,0.04978 -0.13958,0.07178 -0.22714,0.06628c0.18521,0.74827 0.22659,1.46631 -0.61491,1.72879c0,0 -0.18048,0.055 -0.23204,-0.1375c-0.05157,-0.1925 0.12891,-0.24749 0.12891,-0.24749c0.59149,-0.17504 0.50669,-0.67181 0.37205,-1.18826c-0.05195,0.2023 -0.10394,0.41857 -0.0697,0.66759c0,0 0.02328,0.19866 -0.16297,0.22349c-0.18625,0.02483 -0.20953,-0.17382 -0.20953,-0.17382c-0.04913,-0.47911 0.3821,-1.14151 -0.00044,-1.45598l-0.03401,0.00351c0,0 -0.17807,-0.06331 -0.11871,-0.25324z"/><path d="M292.73523,204.23071c0.05936,-0.18993 0.23743,-0.12662 0.23743,-0.12662l0.1596,0.07234c0.14336,0.14011 0.21992,0.27182 0.25477,0.40058c0.02953,0.00367 0.05696,0.01466 0.08067,0.03121c0.00358,-0.01861 0.00998,-0.03847 0.01987,-0.05957c0.08394,-0.17906 0.25182,-0.08954 0.25182,-0.08954l0.16574,0.18057c-0.00008,0.02024 0.00208,0.04145 0.00534,0.06314c0.00367,-0.02994 0.00973,-0.06106 0.01866,-0.09354l0.10988,-0.14709c0,0 0.13273,-0.14156 0.26545,0c0.13272,0.14156 0,0.28313 0,0.28313l-0.01919,-0.00943c-0.0822,0.21438 0.0579,1.2556 0.09937,1.25852c0,0 0.18048,0.055 0.12892,0.2475c-0.05157,0.1925 -0.23204,0.1375 -0.23204,0.1375c-0.10477,-0.04267 -0.24078,-0.03769 -0.31432,-0.12799c-0.07488,-0.09197 -0.07972,-0.23368 -0.07938,-0.35549c0.00041,-0.14695 0.13702,-0.26035 0.16481,-0.40427c0.03895,-0.20166 -0.07049,-0.35426 -0.12172,-0.54201c-0.00547,0.01747 -0.01418,0.03352 -0.02717,0.0477c-0.04564,0.04978 -0.13958,0.07178 -0.22714,0.06628c0.18521,0.74826 0.22659,1.46631 -0.61491,1.72878c0,0 -0.18047,0.055 -0.23204,-0.1375c-0.05157,-0.1925 0.12891,-0.2475 0.12891,-0.2475c0.59149,-0.17504 0.50669,-0.67181 0.37205,-1.18825c-0.05195,0.2023 -0.10395,0.41857 -0.0697,0.66759c0,0 0.02329,0.19866 -0.16296,0.22349c-0.18625,0.02483 -0.20954,-0.17382 -0.20954,-0.17382c-0.04913,-0.47911 0.38212,-1.14152 -0.00043,-1.45599l-0.03401,0.00351c0,0 -0.17807,-0.0633 -0.11872,-0.25323z"/><path d="M298.12191,203.06888c0.05936,-0.18993 0.23743,-0.12662 0.23743,-0.12662l0.1596,0.07234c0.14336,0.14011 0.21991,0.27182 0.25476,0.40058c0.02953,0.00367 0.05697,0.01466 0.08068,0.0312c0.00358,-0.01861 0.00998,-0.03847 0.01987,-0.05957c0.08394,-0.17906 0.25182,-0.08953 0.25182,-0.08953l0.16574,0.18057c-0.00008,0.02024 0.00208,0.04145 0.00533,0.06314c0.00367,-0.02994 0.00974,-0.06106 0.01866,-0.09354l0.10987,-0.14709c0,0 0.13272,-0.14156 0.26545,0c0.13272,0.14156 0,0.28313 0,0.28313l-0.01919,-0.00943c-0.0822,0.21438 0.0579,1.2556 0.09937,1.25852c0,0 0.18048,0.055 0.12891,0.2475c-0.05157,0.1925 -0.23204,0.1375 -0.23204,0.1375c-0.10477,-0.04267 -0.24078,-0.03769 -0.31432,-0.12799c-0.07488,-0.09197 -0.07971,-0.23369 -0.07937,-0.3555c0.00041,-0.14695 0.13701,-0.26035 0.16481,-0.40427c0.03895,-0.20166 -0.0705,-0.35426 -0.12173,-0.54201c-0.00547,0.01747 -0.01418,0.03352 -0.02717,0.0477c-0.04564,0.04978 -0.13957,0.07178 -0.22713,0.06628c0.18521,0.74826 0.22659,1.46631 -0.61491,1.72878c0,0 -0.18048,0.055 -0.23204,-0.1375c-0.05157,-0.1925 0.12891,-0.2475 0.12891,-0.2475c0.59149,-0.17504 0.50669,-0.67181 0.37205,-1.18825c-0.05195,0.2023 -0.10394,0.41857 -0.0697,0.66759c0,0 0.02328,0.19866 -0.16297,0.22349c-0.18625,0.02483 -0.20953,-0.17382 -0.20953,-0.17382c-0.04913,-0.47911 0.38211,-1.14152 -0.00044,-1.45599l-0.034,0.00351c0,0 -0.17807,-0.06331 -0.11872,-0.25323z"/><path d="M300.33995,200.11149c0.05936,-0.18993 0.23743,-0.12661 0.23743,-0.12661l0.1596,0.07233c0.14336,0.14011 0.21991,0.27182 0.25476,0.40058c0.02953,0.00367 0.05697,0.01466 0.08068,0.03121c0.00358,-0.01861 0.00998,-0.03847 0.01987,-0.05957c0.08394,-0.17906 0.25182,-0.08954 0.25182,-0.08954l0.16574,0.18057c-0.00008,0.02024 0.00208,0.04144 0.00534,0.06314c0.00367,-0.02994 0.00973,-0.06106 0.01866,-0.09354l0.10988,-0.14709c0,0 0.13272,-0.14156 0.26544,0c0.13272,0.14156 0,0.28313 0,0.28313l-0.01919,-0.00942c-0.0822,0.21438 0.0579,1.2556 0.09937,1.25851c0,0 0.18048,0.055 0.12892,0.2475c-0.05157,0.1925 -0.23204,0.1375 -0.23204,0.1375c-0.10477,-0.04267 -0.24078,-0.03769 -0.31432,-0.12799c-0.07488,-0.09197 -0.07971,-0.23368 -0.07937,-0.35549c0.00041,-0.14695 0.13701,-0.26035 0.16481,-0.40427c0.03895,-0.20166 -0.0705,-0.35426 -0.12173,-0.54201c-0.00547,0.01747 -0.01417,0.03352 -0.02717,0.0477c-0.04564,0.04978 -0.13958,0.07177 -0.22714,0.06628c0.18521,0.74826 0.22659,1.46631 -0.61491,1.72878c0,0 -0.18047,0.055 -0.23204,-0.1375c-0.05157,-0.1925 0.12891,-0.2475 0.12891,-0.2475c0.59149,-0.17504 0.50669,-0.67181 0.37205,-1.18825c-0.05195,0.2023 -0.10394,0.41857 -0.0697,0.66759c0,0 0.02329,0.19866 -0.16296,0.22349c-0.18625,0.02483 -0.20953,-0.17383 -0.20953,-0.17383c-0.04913,-0.47911 0.38211,-1.14152 -0.00044,-1.45598l-0.034,0.00351c0,0 -0.17807,-0.06331 -0.11872,-0.25324z"/><path d="M304.45917,197.04848c0.05936,-0.18993 0.23742,-0.12662 0.23742,-0.12662l0.1596,0.07234c0.14336,0.14011 0.21992,0.27182 0.25477,0.40058c0.02953,0.00367 0.05696,0.01466 0.08067,0.03121c0.00358,-0.01861 0.00998,-0.03847 0.01987,-0.05957c0.08394,-0.17906 0.25183,-0.08953 0.25183,-0.08953l0.16573,0.18057c-0.00008,0.02024 0.00208,0.04144 0.00534,0.06314c0.00367,-0.02994 0.00973,-0.06106 0.01866,-0.09354l0.10988,-0.14709c0,0 0.13273,-0.14156 0.26545,0c0.13272,0.14156 0,0.28312 0,0.28312l-0.01919,-0.00942c-0.0822,0.21438 0.0579,1.2556 0.09937,1.25851c0,0 0.18048,0.055 0.12891,0.2475c-0.05157,0.1925 -0.23204,0.1375 -0.23204,0.1375c-0.10477,-0.04267 -0.24078,-0.03769 -0.31432,-0.12799c-0.07488,-0.09197 -0.07972,-0.23369 -0.07938,-0.3555c0.00041,-0.14695 0.13701,-0.26035 0.16481,-0.40427c0.03895,-0.20166 -0.07049,-0.35426 -0.12172,-0.54201c-0.00547,0.01747 -0.01418,0.03352 -0.02717,0.0477c-0.04564,0.04978 -0.13958,0.07178 -0.22714,0.06628c0.18521,0.74826 0.22659,1.4663 -0.61491,1.72878c0,0 -0.18047,0.055 -0.23204,-0.1375c-0.05157,-0.1925 0.12891,-0.24749 0.12891,-0.24749c0.59149,-0.17504 0.5067,-0.67182 0.37206,-1.18826c-0.05195,0.2023 -0.10394,0.41857 -0.0697,0.66759c0,0 0.02328,0.19866 -0.16297,0.22349c-0.18625,0.02483 -0.20953,-0.17382 -0.20953,-0.17382c-0.04913,-0.47911 0.38211,-1.14152 -0.00044,-1.45598l-0.03401,0.0035c0,0 -0.17807,-0.06331 -0.11871,-0.25323z"/><path d="M304.88165,202.32953c0.05936,-0.18993 0.23742,-0.12662 0.23742,-0.12662l0.1596,0.07234c0.14336,0.14011 0.21992,0.27182 0.25477,0.40058c0.02953,0.00367 0.05696,0.01466 0.08067,0.03121c0.00358,-0.01861 0.00998,-0.03846 0.01987,-0.05956c0.08394,-0.17906 0.25182,-0.08954 0.25182,-0.08954l0.16574,0.18057c-0.00008,0.02024 0.00208,0.04144 0.00534,0.06314c0.00367,-0.02994 0.00973,-0.06106 0.01866,-0.09354l0.10988,-0.14709c0,0 0.13272,-0.14156 0.26545,0c0.13272,0.14156 0,0.28312 0,0.28312l-0.01919,-0.00942c-0.0822,0.21438 0.0579,1.2556 0.09937,1.25851c0,0 0.18048,0.055 0.12892,0.2475c-0.05157,0.1925 -0.23204,0.1375 -0.23204,0.1375c-0.10477,-0.04267 -0.24079,-0.03769 -0.31433,-0.12799c-0.07488,-0.09197 -0.07971,-0.23369 -0.07937,-0.3555c0.00041,-0.14695 0.13701,-0.26035 0.16481,-0.40427c0.03895,-0.20166 -0.07049,-0.35426 -0.12172,-0.54201c-0.00547,0.01747 -0.01418,0.03352 -0.02717,0.0477c-0.04564,0.04978 -0.13958,0.07178 -0.22714,0.06628c0.18521,0.74826 0.22659,1.4663 -0.6149,1.72878c0,0 -0.18048,0.055 -0.23204,-0.1375c-0.05157,-0.1925 0.12891,-0.24749 0.12891,-0.24749c0.59149,-0.17504 0.5067,-0.67182 0.37206,-1.18826c-0.05195,0.2023 -0.10395,0.41857 -0.0697,0.66759c0,0 0.02328,0.19866 -0.16297,0.22349c-0.18625,0.02483 -0.20953,-0.17382 -0.20953,-0.17382c-0.04913,-0.47911 0.38211,-1.14151 -0.00044,-1.45598l-0.034,0.0035c0,0 -0.17807,-0.06331 -0.11871,-0.25323z"/></g><g><path d="M299.3013,197.64566c0.05936,-0.18993 0.23742,-0.12662 0.23742,-0.12662l0.1596,0.07234c0.14336,0.14011 0.21992,0.27181 0.25477,0.40058c0.02953,0.00367 0.05697,0.01466 0.08068,0.03121c0.00358,-0.01861 0.00998,-0.03847 0.01987,-0.05957c0.08394,-0.17906 0.25182,-0.08953 0.25182,-0.08953l0.16574,0.18057c-0.00008,0.02024 0.00208,0.04145 0.00534,0.06314c0.00367,-0.02994 0.00974,-0.06106 0.01866,-0.09354l0.10987,-0.14709c0,0 0.13273,-0.14157 0.26545,0c0.13272,0.14157 0,0.28312 0,0.28312l-0.01919,-0.00942c-0.0822,0.21438 0.0579,1.2556 0.09937,1.25851c0,0 0.18048,0.055 0.12891,0.2475c-0.05157,0.1925 -0.23204,0.1375 -0.23204,0.1375c-0.10477,-0.04266 -0.24078,-0.03769 -0.31432,-0.128c-0.07489,-0.09197 -0.07971,-0.23368 -0.07937,-0.35549c0.00041,-0.14695 0.13701,-0.26035 0.16481,-0.40427c0.03895,-0.20166 -0.07049,-0.35426 -0.12173,-0.54201c-0.00547,0.01747 -0.01417,0.03352 -0.02717,0.0477c-0.04564,0.04978 -0.13958,0.07178 -0.22714,0.06628c0.18521,0.74827 0.22659,1.46631 -0.6149,1.72878c0,0 -0.18048,0.055 -0.23205,-0.1375c-0.05157,-0.1925 0.12891,-0.24749 0.12891,-0.24749c0.59149,-0.17504 0.50669,-0.67181 0.37205,-1.18826c-0.05195,0.2023 -0.10394,0.41857 -0.0697,0.66759c0,0 0.02328,0.19866 -0.16297,0.22349c-0.18625,0.02483 -0.20953,-0.17382 -0.20953,-0.17382c-0.04913,-0.47911 0.3821,-1.14152 -0.00044,-1.45598l-0.03401,0.0035c0,0 -0.17807,-0.06331 -0.11871,-0.25323z"/><path d="M297.50573,195.8501c0.05936,-0.18993 0.23743,-0.12661 0.23743,-0.12661l0.1596,0.07233c0.14336,0.14011 0.21992,0.27182 0.25477,0.40058c0.02953,0.00367 0.05696,0.01466 0.08067,0.03121c0.00358,-0.01861 0.00998,-0.03847 0.01987,-0.05957c0.08394,-0.17906 0.25182,-0.08954 0.25182,-0.08954l0.16574,0.18057c-0.00008,0.02024 0.00208,0.04145 0.00534,0.06315c0.00367,-0.02994 0.00973,-0.06106 0.01866,-0.09354l0.10988,-0.14709c0,0 0.13273,-0.14156 0.26545,0c0.13272,0.14156 0,0.28313 0,0.28313l-0.01919,-0.00943c-0.0822,0.21438 0.0579,1.2556 0.09937,1.25851c0,0 0.18048,0.055 0.12892,0.2475c-0.05157,0.1925 -0.23204,0.1375 -0.23204,0.1375c-0.10477,-0.04267 -0.24078,-0.03769 -0.31432,-0.12799c-0.07488,-0.09197 -0.07972,-0.23368 -0.07938,-0.35549c0.00041,-0.14695 0.13701,-0.26035 0.16481,-0.40427c0.03895,-0.20166 -0.07049,-0.35426 -0.12172,-0.54201c-0.00547,0.01747 -0.01418,0.03352 -0.02717,0.0477c-0.04564,0.04978 -0.13958,0.07178 -0.22714,0.06628c0.18521,0.74826 0.22659,1.46631 -0.61491,1.72879c0,0 -0.18047,0.055 -0.23204,-0.1375c-0.05157,-0.1925 0.12891,-0.2475 0.12891,-0.2475c0.59149,-0.17504 0.50669,-0.67181 0.37205,-1.18825c-0.05195,0.2023 -0.10395,0.41857 -0.0697,0.66759c0,0 0.02329,0.19866 -0.16296,0.22349c-0.18625,0.02483 -0.20953,-0.17382 -0.20953,-0.17382c-0.04913,-0.47911 0.38211,-1.14152 -0.00044,-1.45599l-0.03401,0.00351c0,0 -0.17807,-0.06331 -0.11872,-0.25323z"/><path d="M302.89241,194.68827c0.05936,-0.18993 0.23743,-0.12662 0.23743,-0.12662l0.1596,0.07234c0.14336,0.14011 0.21991,0.27182 0.25476,0.40058c0.02953,0.00367 0.05697,0.01466 0.08068,0.0312c0.00358,-0.01861 0.00998,-0.03847 0.01987,-0.05957c0.08394,-0.17906 0.25182,-0.08954 0.25182,-0.08954l0.16574,0.18057c-0.00008,0.02024 0.00208,0.04145 0.00533,0.06314c0.00367,-0.02994 0.00974,-0.06106 0.01866,-0.09354l0.10987,-0.14709c0,0 0.13273,-0.14156 0.26545,0c0.13272,0.14156 0,0.28313 0,0.28313l-0.01919,-0.00943c-0.0822,0.21438 0.0579,1.2556 0.09937,1.25851c0,0 0.18048,0.055 0.12891,0.2475c-0.05157,0.1925 -0.23204,0.1375 -0.23204,0.1375c-0.10477,-0.04267 -0.24078,-0.03769 -0.31432,-0.12799c-0.07488,-0.09197 -0.07971,-0.23368 -0.07937,-0.35549c0.00041,-0.14695 0.13701,-0.26035 0.16481,-0.40427c0.03895,-0.20166 -0.07049,-0.35426 -0.12173,-0.54201c-0.00547,0.01747 -0.01418,0.03352 -0.02717,0.0477c-0.04564,0.04978 -0.13958,0.07178 -0.22714,0.06628c0.18521,0.74826 0.22659,1.46631 -0.61491,1.72878c0,0 -0.18048,0.055 -0.23204,-0.1375c-0.05157,-0.1925 0.12891,-0.2475 0.12891,-0.2475c0.59149,-0.17504 0.50669,-0.67181 0.37205,-1.18825c-0.05195,0.2023 -0.10394,0.41857 -0.0697,0.66759c0,0 0.02328,0.19866 -0.16297,0.22349c-0.18625,0.02483 -0.20953,-0.17382 -0.20953,-0.17382c-0.04913,-0.47911 0.38211,-1.14152 -0.00044,-1.45599l-0.03401,0.00351c0,0 -0.17807,-0.06331 -0.11872,-0.25323z"/><path d="M305.11045,191.73088c0.05936,-0.18993 0.23743,-0.12662 0.23743,-0.12662l0.1596,0.07234c0.14336,0.14011 0.21991,0.27182 0.25476,0.40058c0.02953,0.00367 0.05697,0.01466 0.08068,0.03121c0.00358,-0.01861 0.00998,-0.03847 0.01987,-0.05957c0.08394,-0.17906 0.25182,-0.08954 0.25182,-0.08954l0.16574,0.18057c-0.00008,0.02024 0.00208,0.04145 0.00534,0.06314c0.00367,-0.02994 0.00973,-0.06106 0.01866,-0.09354l0.10988,-0.14709c0,0 0.13272,-0.14156 0.26544,0c0.13272,0.14156 0,0.28312 0,0.28312l-0.01919,-0.00942c-0.0822,0.21438 0.0579,1.2556 0.09937,1.25851c0,0 0.18048,0.055 0.12892,0.2475c-0.05157,0.1925 -0.23204,0.1375 -0.23204,0.1375c-0.10477,-0.04267 -0.24078,-0.03769 -0.31432,-0.12799c-0.07488,-0.09197 -0.07971,-0.23368 -0.07937,-0.35549c0.00041,-0.14695 0.13701,-0.26035 0.16481,-0.40427c0.03895,-0.20166 -0.0705,-0.35426 -0.12173,-0.54201c-0.00547,0.01747 -0.01417,0.03352 -0.02717,0.0477c-0.04564,0.04978 -0.13958,0.07178 -0.22714,0.06628c0.18521,0.74826 0.22659,1.46631 -0.61491,1.72878c0,0 -0.18047,0.055 -0.23204,-0.1375c-0.05157,-0.1925 0.12891,-0.2475 0.12891,-0.2475c0.59149,-0.17504 0.50669,-0.67181 0.37205,-1.18825c-0.05195,0.2023 -0.10394,0.41857 -0.0697,0.66759c0,0 0.02329,0.19866 -0.16296,0.22349c-0.18625,0.02483 -0.20953,-0.17383 -0.20953,-0.17383c-0.04913,-0.47911 0.38211,-1.14151 -0.00044,-1.45598l-0.034,0.00351c0,0 -0.17807,-0.06331 -0.11872,-0.25324z"/><path d="M309.22967,188.66787c0.05936,-0.18993 0.23743,-0.12661 0.23743,-0.12661l0.1596,0.07234c0.14336,0.14011 0.21992,0.27182 0.25477,0.40058c0.02953,0.00367 0.05696,0.01466 0.08067,0.03121c0.00358,-0.01861 0.00998,-0.03847 0.01987,-0.05957c0.08394,-0.17906 0.25183,-0.08953 0.25183,-0.08953l0.16573,0.18057c-0.00008,0.02024 0.00208,0.04144 0.00534,0.06314c0.00367,-0.02994 0.00973,-0.06106 0.01866,-0.09354l0.10988,-0.14708c0,0 0.13272,-0.14156 0.26545,0c0.13272,0.14156 0,0.28312 0,0.28312l-0.01919,-0.00942c-0.0822,0.21438 0.0579,1.2556 0.09937,1.25852c0,0 0.18048,0.055 0.12891,0.2475c-0.05157,0.1925 -0.23204,0.1375 -0.23204,0.1375c-0.10477,-0.04267 -0.24078,-0.03769 -0.31432,-0.12799c-0.07488,-0.09197 -0.07972,-0.23369 -0.07938,-0.3555c0.00041,-0.14695 0.13701,-0.26035 0.16481,-0.40427c0.03895,-0.20166 -0.07049,-0.35426 -0.12172,-0.54201c-0.00547,0.01747 -0.01418,0.03352 -0.02717,0.0477c-0.04564,0.04978 -0.13958,0.07178 -0.22714,0.06628c0.18521,0.74826 0.22659,1.4663 -0.61491,1.72878c0,0 -0.18047,0.055 -0.23204,-0.1375c-0.05157,-0.1925 0.12891,-0.2475 0.12891,-0.2475c0.59149,-0.17504 0.5067,-0.67181 0.37206,-1.18825c-0.05195,0.2023 -0.10394,0.41857 -0.0697,0.66759c0,0 0.02328,0.19866 -0.16297,0.22349c-0.18625,0.02483 -0.20953,-0.17383 -0.20953,-0.17383c-0.04913,-0.47911 0.38211,-1.14152 -0.00044,-1.45598l-0.03401,0.00351c0,0 -0.17807,-0.06331 -0.11871,-0.25324z"/><path d="M309.65215,193.94892c0.05936,-0.18993 0.23742,-0.12662 0.23742,-0.12662l0.1596,0.07234c0.14336,0.14011 0.21992,0.27182 0.25477,0.40058c0.02953,0.00367 0.05696,0.01466 0.08067,0.03121c0.00358,-0.01861 0.00998,-0.03847 0.01987,-0.05957c0.08394,-0.17906 0.25182,-0.08953 0.25182,-0.08953l0.16574,0.18057c-0.00008,0.02024 0.00208,0.04144 0.00534,0.06314c0.00367,-0.02994 0.00973,-0.06106 0.01866,-0.09354l0.10988,-0.14709c0,0 0.13272,-0.14156 0.26545,0c0.13272,0.14156 0,0.28312 0,0.28312l-0.01919,-0.00942c-0.0822,0.21438 0.0579,1.2556 0.09937,1.25851c0,0 0.18048,0.055 0.12892,0.2475c-0.05157,0.1925 -0.23204,0.1375 -0.23204,0.1375c-0.10477,-0.04267 -0.24079,-0.03769 -0.31433,-0.12799c-0.07488,-0.09197 -0.07971,-0.23369 -0.07937,-0.3555c0.00041,-0.14695 0.13701,-0.26035 0.16481,-0.40427c0.03895,-0.20166 -0.07049,-0.35426 -0.12172,-0.54201c-0.00547,0.01747 -0.01418,0.03352 -0.02717,0.0477c-0.04564,0.04978 -0.13958,0.07178 -0.22714,0.06628c0.18521,0.74826 0.22659,1.4663 -0.6149,1.72878c0,0 -0.18048,0.055 -0.23204,-0.1375c-0.05157,-0.1925 0.12891,-0.24749 0.12891,-0.24749c0.59149,-0.17504 0.5067,-0.67182 0.37206,-1.18826c-0.05195,0.2023 -0.10395,0.41857 -0.0697,0.66759c0,0 0.02328,0.19866 -0.16297,0.22349c-0.18625,0.02483 -0.20953,-0.17382 -0.20953,-0.17382c-0.04913,-0.47911 0.38211,-1.14152 -0.00044,-1.45598l-0.034,0.0035c0,0 -0.17807,-0.06331 -0.11871,-0.25323z"/></g><g><path d="M328.3111,207.05773c0.05936,-0.18993 0.23742,-0.12661 0.23742,-0.12661l0.1596,0.07233c0.14336,0.14011 0.21992,0.27181 0.25477,0.40058c0.02953,0.00367 0.05697,0.01466 0.08068,0.03121c0.00358,-0.01861 0.00998,-0.03847 0.01987,-0.05957c0.08394,-0.17906 0.25182,-0.08954 0.25182,-0.08954l0.16573,0.18057c-0.00008,0.02024 0.00208,0.04145 0.00534,0.06315c0.00367,-0.02994 0.00974,-0.06106 0.01866,-0.09354l0.10988,-0.14709c0,0 0.13272,-0.14157 0.26545,0c0.13272,0.14157 0,0.28313 0,0.28313l-0.01919,-0.00942c-0.0822,0.21438 0.0579,1.2556 0.09937,1.25851c0,0 0.18048,0.055 0.12891,0.2475c-0.05157,0.1925 -0.23204,0.1375 -0.23204,0.1375c-0.10477,-0.04266 -0.24078,-0.03769 -0.31432,-0.128c-0.07489,-0.09197 -0.07971,-0.23368 -0.07937,-0.35549c0.00041,-0.14695 0.13702,-0.26035 0.16481,-0.40427c0.03895,-0.20166 -0.07049,-0.35426 -0.12173,-0.54201c-0.00547,0.01747 -0.01417,0.03352 -0.02717,0.04769c-0.04564,0.04978 -0.13958,0.07178 -0.22714,0.06628c0.18521,0.74827 0.22659,1.46631 -0.6149,1.72879c0,0 -0.18048,0.055 -0.23204,-0.1375c-0.05157,-0.1925 0.12891,-0.2475 0.12891,-0.2475c0.59149,-0.17504 0.5067,-0.67181 0.37206,-1.18826c-0.05195,0.2023 -0.10394,0.41857 -0.0697,0.66759c0,0 0.02328,0.19866 -0.16297,0.22349c-0.18625,0.02483 -0.20953,-0.17382 -0.20953,-0.17382c-0.04913,-0.47911 0.3821,-1.14152 -0.00044,-1.45598l-0.03401,0.00351c0,0 -0.17807,-0.06331 -0.11871,-0.25324z"/><path d="M326.51554,205.26217c0.05936,-0.18993 0.23743,-0.12662 0.23743,-0.12662l0.1596,0.07234c0.14336,0.14011 0.21992,0.27182 0.25477,0.40058c0.02953,0.00367 0.05696,0.01466 0.08067,0.03121c0.00358,-0.01861 0.00998,-0.03846 0.01987,-0.05956c0.08394,-0.17906 0.25183,-0.08954 0.25183,-0.08954l0.16574,0.18057c-0.00008,0.02024 0.00208,0.04145 0.00533,0.06315c0.00367,-0.02994 0.00973,-0.06106 0.01866,-0.09354l0.10988,-0.14709c0,0 0.13272,-0.14156 0.26545,0c0.13272,0.14156 0,0.28313 0,0.28313l-0.01919,-0.00942c-0.0822,0.21438 0.0579,1.2556 0.09937,1.25851c0,0 0.18048,0.055 0.12891,0.2475c-0.05157,0.1925 -0.23204,0.1375 -0.23204,0.1375c-0.10477,-0.04267 -0.24078,-0.03769 -0.31432,-0.12799c-0.07488,-0.09197 -0.07972,-0.23369 -0.07938,-0.3555c0.00041,-0.14695 0.13702,-0.26035 0.16481,-0.40427c0.03895,-0.20166 -0.07049,-0.35426 -0.12173,-0.54201c-0.00547,0.01747 -0.01418,0.03352 -0.02717,0.0477c-0.04564,0.04978 -0.13958,0.07178 -0.22714,0.06628c0.18521,0.74826 0.22659,1.46631 -0.6149,1.72879c0,0 -0.18048,0.055 -0.23204,-0.1375c-0.05157,-0.1925 0.12891,-0.24749 0.12891,-0.24749c0.59149,-0.17504 0.50669,-0.67182 0.37205,-1.18826c-0.05195,0.2023 -0.10395,0.41857 -0.0697,0.66759c0,0 0.02328,0.19866 -0.16297,0.22349c-0.18625,0.02483 -0.20953,-0.17382 -0.20953,-0.17382c-0.04913,-0.47911 0.38211,-1.14152 -0.00044,-1.45599l-0.034,0.0035c0,0 -0.17807,-0.0633 -0.11872,-0.25323z"/><path d="M331.90221,204.10034c0.05936,-0.18993 0.23743,-0.12662 0.23743,-0.12662l0.1596,0.07234c0.14336,0.14011 0.21991,0.27182 0.25476,0.40058c0.02953,0.00367 0.05696,0.01466 0.08067,0.0312c0.00358,-0.01861 0.00998,-0.03846 0.01987,-0.05956c0.08394,-0.17906 0.25182,-0.08954 0.25182,-0.08954l0.16574,0.18057c-0.00008,0.02024 0.00207,0.04145 0.00533,0.06315c0.00367,-0.02994 0.00974,-0.06106 0.01866,-0.09354l0.10988,-0.14709c0,0 0.13272,-0.14156 0.26545,0c0.13272,0.14156 0,0.28313 0,0.28313l-0.01919,-0.00942c-0.0822,0.21438 0.0579,1.2556 0.09937,1.25851c0,0 0.18048,0.055 0.12891,0.2475c-0.05157,0.1925 -0.23204,0.1375 -0.23204,0.1375c-0.10477,-0.04267 -0.24078,-0.03769 -0.31432,-0.12799c-0.07488,-0.09197 -0.07971,-0.23369 -0.07937,-0.3555c0.00041,-0.14695 0.13702,-0.26035 0.16481,-0.40427c0.03895,-0.20166 -0.0705,-0.35426 -0.12173,-0.54201c-0.00547,0.01747 -0.01418,0.03352 -0.02717,0.0477c-0.04564,0.04978 -0.13958,0.07178 -0.22714,0.06628c0.18521,0.74826 0.22659,1.46631 -0.6149,1.72879c0,0 -0.18048,0.055 -0.23204,-0.1375c-0.05157,-0.1925 0.12891,-0.2475 0.12891,-0.2475c0.59149,-0.17504 0.5067,-0.67182 0.37206,-1.18826c-0.05195,0.2023 -0.10394,0.41857 -0.0697,0.66759c0,0 0.02328,0.19866 -0.16297,0.22349c-0.18625,0.02483 -0.20953,-0.17382 -0.20953,-0.17382c-0.04913,-0.47911 0.38211,-1.14152 -0.00044,-1.45599l-0.03401,0.00351c0,0 -0.17807,-0.06331 -0.11871,-0.25324z"/><path d="M334.12025,201.14295c0.05936,-0.18993 0.23743,-0.12662 0.23743,-0.12662l0.1596,0.07234c0.14336,0.14011 0.21991,0.27182 0.25476,0.40058c0.02953,0.00367 0.05696,0.01466 0.08067,0.03121c0.00358,-0.01861 0.00998,-0.03847 0.01987,-0.05957c0.08394,-0.17906 0.25183,-0.08953 0.25183,-0.08953l0.16574,0.18057c-0.00008,0.02024 0.00208,0.04144 0.00534,0.06314c0.00367,-0.02994 0.00973,-0.06106 0.01866,-0.09354l0.10988,-0.14709c0,0 0.13272,-0.14156 0.26544,0c0.13272,0.14156 0,0.28312 0,0.28312l-0.01919,-0.00942c-0.0822,0.21438 0.0579,1.2556 0.09937,1.25851c0,0 0.18048,0.055 0.12891,0.2475c-0.05157,0.1925 -0.23204,0.1375 -0.23204,0.1375c-0.10477,-0.04267 -0.24078,-0.03769 -0.31432,-0.12799c-0.07488,-0.09197 -0.07971,-0.23369 -0.07937,-0.3555c0.00041,-0.14695 0.13702,-0.26035 0.16481,-0.40427c0.03895,-0.20166 -0.0705,-0.35426 -0.12173,-0.54201c-0.00547,0.01747 -0.01418,0.03352 -0.02717,0.0477c-0.04564,0.04978 -0.13958,0.07178 -0.22714,0.06628c0.18521,0.74826 0.22659,1.4663 -0.6149,1.72878c0,0 -0.18048,0.055 -0.23204,-0.1375c-0.05157,-0.1925 0.12891,-0.24749 0.12891,-0.24749c0.59149,-0.17504 0.5067,-0.67182 0.37206,-1.18826c-0.05195,0.2023 -0.10394,0.41857 -0.0697,0.66759c0,0 0.02329,0.19866 -0.16296,0.22349c-0.18625,0.02483 -0.20954,-0.17382 -0.20954,-0.17382c-0.04913,-0.47911 0.38211,-1.14152 -0.00044,-1.45598l-0.03401,0.0035c0,0 -0.17807,-0.06331 -0.11871,-0.25323z"/><path d="M338.23947,198.07994c0.05936,-0.18993 0.23743,-0.12662 0.23743,-0.12662l0.1596,0.07234c0.14336,0.14011 0.21992,0.27182 0.25477,0.40058c0.02953,0.00367 0.05697,0.01466 0.08068,0.03121c0.00358,-0.01861 0.00998,-0.03846 0.01987,-0.05956c0.08394,-0.17906 0.25182,-0.08954 0.25182,-0.08954l0.16574,0.18057c-0.00008,0.02024 0.00208,0.04145 0.00534,0.06314c0.00367,-0.02994 0.00973,-0.06106 0.01866,-0.09354l0.10988,-0.14709c0,0 0.13273,-0.14156 0.26545,0c0.13272,0.14156 0,0.28312 0,0.28312l-0.01919,-0.00942c-0.0822,0.21438 0.0579,1.2556 0.09937,1.25851c0,0 0.18048,0.055 0.12891,0.2475c-0.05157,0.1925 -0.23204,0.1375 -0.23204,0.1375c-0.10477,-0.04267 -0.24078,-0.03769 -0.31432,-0.12799c-0.07488,-0.09197 -0.07972,-0.23369 -0.07938,-0.3555c0.00041,-0.14695 0.13702,-0.26034 0.16481,-0.40426c0.03895,-0.20166 -0.07049,-0.35426 -0.12172,-0.54201c-0.00547,0.01747 -0.01418,0.03352 -0.02717,0.0477c-0.04564,0.04978 -0.13958,0.07178 -0.22714,0.06628c0.18521,0.74826 0.22659,1.46631 -0.6149,1.72878c0,0 -0.18048,0.055 -0.23204,-0.1375c-0.05157,-0.1925 0.12891,-0.2475 0.12891,-0.2475c0.59149,-0.17504 0.50669,-0.67182 0.37205,-1.18826c-0.05195,0.2023 -0.10394,0.41857 -0.0697,0.66759c0,0 0.02328,0.19866 -0.16297,0.22349c-0.18625,0.02483 -0.20954,-0.17383 -0.20954,-0.17383c-0.04913,-0.47911 0.38212,-1.14151 -0.00043,-1.45598l-0.03401,0.00351c0,0 -0.17807,-0.06331 -0.11872,-0.25324z"/><path d="M338.66195,203.36099c0.05936,-0.18993 0.23742,-0.12662 0.23742,-0.12662l0.1596,0.07234c0.14336,0.14011 0.21991,0.27182 0.25476,0.40058c0.02953,0.00367 0.05697,0.01466 0.08068,0.03121c0.00358,-0.01861 0.00998,-0.03847 0.01987,-0.05957c0.08394,-0.17906 0.25182,-0.08954 0.25182,-0.08954l0.16574,0.18057c-0.00008,0.02024 0.00208,0.04145 0.00534,0.06314c0.00367,-0.02994 0.00973,-0.06106 0.01866,-0.09354l0.10988,-0.14709c0,0 0.13273,-0.14156 0.26545,0c0.13272,0.14156 0,0.28312 0,0.28312l-0.01919,-0.00942c-0.0822,0.21438 0.0579,1.2556 0.09937,1.25851c0,0 0.18048,0.055 0.12892,0.2475c-0.05157,0.1925 -0.23204,0.1375 -0.23204,0.1375c-0.10477,-0.04267 -0.24079,-0.03769 -0.31433,-0.12799c-0.07488,-0.09197 -0.07971,-0.23369 -0.07937,-0.3555c0.00041,-0.14695 0.13702,-0.26034 0.16481,-0.40426c0.03895,-0.20166 -0.07049,-0.35426 -0.12172,-0.54201c-0.00547,0.01747 -0.01418,0.03352 -0.02717,0.0477c-0.04564,0.04978 -0.13958,0.07178 -0.22714,0.06628c0.18521,0.74826 0.22659,1.46631 -0.6149,1.72878c0,0 -0.18047,0.055 -0.23204,-0.1375c-0.05157,-0.1925 0.12891,-0.2475 0.12891,-0.2475c0.59149,-0.17504 0.50669,-0.67181 0.37205,-1.18825c-0.05195,0.2023 -0.10395,0.41857 -0.0697,0.66759c0,0 0.02329,0.19866 -0.16296,0.22349c-0.18625,0.02483 -0.20954,-0.17383 -0.20954,-0.17383c-0.04913,-0.47911 0.38211,-1.14152 -0.00044,-1.45598l-0.034,0.00351c0,0 -0.17807,-0.06331 -0.11872,-0.25324z"/></g><g><path d="M343.78299,200.9979c0.05936,-0.18993 0.23742,-0.12662 0.23742,-0.12662l0.1596,0.07234c0.14336,0.14011 0.21992,0.27181 0.25477,0.40058c0.02953,0.00367 0.05697,0.01466 0.08068,0.03121c0.00358,-0.01861 0.00998,-0.03847 0.01987,-0.05956c0.08394,-0.17906 0.25182,-0.08954 0.25182,-0.08954l0.16574,0.18057c-0.00008,0.02024 0.00208,0.04145 0.00534,0.06315c0.00367,-0.02994 0.00974,-0.06106 0.01866,-0.09354l0.10987,-0.14709c0,0 0.13273,-0.14157 0.26545,0c0.13272,0.14157 0,0.28312 0,0.28312l-0.01919,-0.00942c-0.0822,0.21438 0.0579,1.2556 0.09937,1.25851c0,0 0.18048,0.055 0.12891,0.2475c-0.05157,0.1925 -0.23204,0.1375 -0.23204,0.1375c-0.10477,-0.04266 -0.24078,-0.03769 -0.31432,-0.128c-0.07489,-0.09197 -0.07971,-0.23368 -0.07937,-0.35549c0.00041,-0.14695 0.13701,-0.26035 0.16481,-0.40427c0.03895,-0.20166 -0.07049,-0.35425 -0.12173,-0.542c-0.00547,0.01747 -0.01417,0.03352 -0.02717,0.04769c-0.04564,0.04978 -0.13958,0.07178 -0.22714,0.06628c0.18521,0.74827 0.22659,1.46631 -0.61491,1.72879c0,0 -0.18048,0.055 -0.23204,-0.1375c-0.05157,-0.1925 0.12891,-0.2475 0.12891,-0.2475c0.59149,-0.17504 0.50669,-0.67181 0.37205,-1.18826c-0.05195,0.2023 -0.10394,0.41857 -0.0697,0.66759c0,0 0.02328,0.19866 -0.16297,0.22349c-0.18625,0.02483 -0.20953,-0.17382 -0.20953,-0.17382c-0.04913,-0.47911 0.3821,-1.14151 -0.00044,-1.45598l-0.03401,0.00351c0,0 -0.17807,-0.06331 -0.11871,-0.25324z"/><path d="M341.98743,199.20235c0.05936,-0.18993 0.23743,-0.12662 0.23743,-0.12662l0.1596,0.07234c0.14336,0.14011 0.21992,0.27182 0.25477,0.40058c0.02953,0.00367 0.05696,0.01466 0.08067,0.03121c0.00358,-0.01861 0.00998,-0.03847 0.01987,-0.05957c0.08394,-0.17906 0.25182,-0.08953 0.25182,-0.08953l0.16574,0.18057c-0.00008,0.02024 0.00208,0.04145 0.00534,0.06314c0.00367,-0.02994 0.00973,-0.06106 0.01866,-0.09354l0.10988,-0.14709c0,0 0.13273,-0.14156 0.26545,0c0.13272,0.14156 0,0.28313 0,0.28313l-0.01919,-0.00943c-0.0822,0.21438 0.0579,1.2556 0.09937,1.25852c0,0 0.18048,0.055 0.12892,0.2475c-0.05157,0.1925 -0.23204,0.1375 -0.23204,0.1375c-0.10477,-0.04267 -0.24078,-0.03769 -0.31432,-0.12799c-0.07488,-0.09197 -0.07972,-0.23369 -0.07938,-0.3555c0.00041,-0.14695 0.13702,-0.26035 0.16481,-0.40427c0.03895,-0.20166 -0.07049,-0.35426 -0.12172,-0.54201c-0.00547,0.01747 -0.01418,0.03352 -0.02717,0.0477c-0.04564,0.04978 -0.13958,0.07178 -0.22714,0.06628c0.18521,0.74826 0.22659,1.46631 -0.6149,1.72878c0,0 -0.18047,0.055 -0.23204,-0.1375c-0.05157,-0.1925 0.12891,-0.2475 0.12891,-0.2475c0.59149,-0.17504 0.50669,-0.67181 0.37205,-1.18825c-0.05195,0.2023 -0.10395,0.41857 -0.0697,0.66759c0,0 0.02329,0.19866 -0.16296,0.22349c-0.18625,0.02483 -0.20954,-0.17382 -0.20954,-0.17382c-0.04913,-0.47911 0.38212,-1.14152 -0.00043,-1.45599l-0.03401,0.00351c0,0 -0.17807,-0.0633 -0.11872,-0.25323z"/><path d="M347.3741,198.04052c0.05936,-0.18993 0.23743,-0.12662 0.23743,-0.12662l0.1596,0.07234c0.14336,0.14011 0.21991,0.27182 0.25476,0.40058c0.02953,0.00367 0.05697,0.01466 0.08068,0.0312c0.00358,-0.01861 0.00998,-0.03847 0.01987,-0.05957c0.08394,-0.17906 0.25182,-0.08953 0.25182,-0.08953l0.16574,0.18057c-0.00008,0.02024 0.00208,0.04145 0.00533,0.06315c0.00367,-0.02994 0.00974,-0.06106 0.01866,-0.09354l0.10987,-0.14709c0,0 0.13272,-0.14156 0.26545,0c0.13272,0.14156 0,0.28313 0,0.28313l-0.01919,-0.00942c-0.0822,0.21438 0.0579,1.2556 0.09937,1.25851c0,0 0.18048,0.055 0.12891,0.2475c-0.05157,0.1925 -0.23204,0.1375 -0.23204,0.1375c-0.10477,-0.04267 -0.24078,-0.03769 -0.31432,-0.12799c-0.07488,-0.09197 -0.07971,-0.23369 -0.07937,-0.3555c0.00041,-0.14695 0.13701,-0.26035 0.16481,-0.40427c0.03895,-0.20166 -0.0705,-0.35426 -0.12173,-0.54201c-0.00547,0.01747 -0.01418,0.03352 -0.02717,0.0477c-0.04564,0.04978 -0.13957,0.07178 -0.22713,0.06628c0.18521,0.74826 0.22659,1.46631 -0.61491,1.72879c0,0 -0.18048,0.055 -0.23204,-0.1375c-0.05157,-0.1925 0.12891,-0.24749 0.12891,-0.24749c0.59149,-0.17504 0.50669,-0.67182 0.37205,-1.18826c-0.05195,0.2023 -0.10394,0.41857 -0.0697,0.66759c0,0 0.02328,0.19866 -0.16297,0.22349c-0.18625,0.02483 -0.20953,-0.17382 -0.20953,-0.17382c-0.04913,-0.47911 0.38211,-1.14152 -0.00044,-1.45599l-0.034,0.00351c0,0 -0.17807,-0.06331 -0.11872,-0.25324z"/><path d="M349.59214,195.08313c0.05936,-0.18993 0.23743,-0.12661 0.23743,-0.12661l0.1596,0.07234c0.14336,0.14011 0.21991,0.27182 0.25476,0.40058c0.02953,0.00367 0.05697,0.01466 0.08068,0.03121c0.00358,-0.01861 0.00998,-0.03847 0.01987,-0.05957c0.08394,-0.17906 0.25182,-0.08954 0.25182,-0.08954l0.16574,0.18057c-0.00008,0.02024 0.00208,0.04144 0.00534,0.06314c0.00367,-0.02994 0.00973,-0.06106 0.01866,-0.09354l0.10988,-0.14708c0,0 0.13272,-0.14156 0.26544,0c0.13272,0.14156 0,0.28312 0,0.28312l-0.01919,-0.00942c-0.0822,0.21438 0.0579,1.2556 0.09937,1.25852c0,0 0.18048,0.055 0.12892,0.2475c-0.05157,0.1925 -0.23204,0.1375 -0.23204,0.1375c-0.10477,-0.04267 -0.24078,-0.03769 -0.31432,-0.128c-0.07488,-0.09197 -0.07971,-0.23368 -0.07937,-0.35549c0.00041,-0.14695 0.13701,-0.26035 0.16481,-0.40427c0.03895,-0.20166 -0.0705,-0.35426 -0.12173,-0.54201c-0.00547,0.01747 -0.01417,0.03352 -0.02717,0.0477c-0.04564,0.04978 -0.13958,0.07178 -0.22714,0.06628c0.18521,0.74826 0.22659,1.4663 -0.61491,1.72878c0,0 -0.18047,0.055 -0.23204,-0.1375c-0.05157,-0.1925 0.12891,-0.2475 0.12891,-0.2475c0.59149,-0.17504 0.50669,-0.67181 0.37205,-1.18825c-0.05195,0.2023 -0.10394,0.41857 -0.0697,0.66759c0,0 0.02329,0.19866 -0.16296,0.22349c-0.18625,0.02483 -0.20954,-0.17383 -0.20954,-0.17383c-0.04913,-0.47911 0.38211,-1.14152 -0.00044,-1.45598l-0.034,0.00351c0,0 -0.17807,-0.06331 -0.11872,-0.25324z"/><path d="M353.71136,192.02012c0.05936,-0.18993 0.23742,-0.12662 0.23742,-0.12662l0.1596,0.07234c0.14336,0.14011 0.21992,0.27182 0.25477,0.40058c0.02953,0.00367 0.05696,0.01466 0.08067,0.03121c0.00358,-0.01861 0.00998,-0.03846 0.01987,-0.05956c0.08394,-0.17906 0.25183,-0.08954 0.25183,-0.08954l0.16573,0.18057c-0.00008,0.02024 0.00208,0.04144 0.00534,0.06314c0.00367,-0.02994 0.00973,-0.06106 0.01866,-0.09354l0.10988,-0.14709c0,0 0.13273,-0.14156 0.26545,0c0.13272,0.14156 0,0.28312 0,0.28312l-0.01919,-0.00942c-0.0822,0.21438 0.0579,1.2556 0.09937,1.25851c0,0 0.18048,0.055 0.12891,0.2475c-0.05157,0.1925 -0.23204,0.1375 -0.23204,0.1375c-0.10477,-0.04267 -0.24078,-0.03769 -0.31432,-0.12799c-0.07488,-0.09197 -0.07972,-0.23369 -0.07938,-0.3555c0.00041,-0.14695 0.13701,-0.26035 0.16481,-0.40427c0.03895,-0.20166 -0.07049,-0.35426 -0.12172,-0.54201c-0.00547,0.01747 -0.01418,0.03352 -0.02717,0.0477c-0.04564,0.04978 -0.13958,0.07178 -0.22714,0.06628c0.18521,0.74826 0.22659,1.4663 -0.61491,1.72878c0,0 -0.18047,0.055 -0.23204,-0.1375c-0.05157,-0.1925 0.12891,-0.24749 0.12891,-0.24749c0.59149,-0.17504 0.5067,-0.67182 0.37206,-1.18826c-0.05195,0.2023 -0.10394,0.41857 -0.0697,0.66759c0,0 0.02328,0.19866 -0.16297,0.22349c-0.18625,0.02483 -0.20953,-0.17382 -0.20953,-0.17382c-0.04913,-0.47911 0.38211,-1.14152 -0.00044,-1.45598l-0.03401,0.0035c0,0 -0.17807,-0.06331 -0.11871,-0.25323z"/><path d="M354.13385,197.30117c0.05936,-0.18993 0.23742,-0.12662 0.23742,-0.12662l0.1596,0.07234c0.14336,0.14011 0.21992,0.27182 0.25477,0.40058c0.02953,0.00367 0.05696,0.01466 0.08067,0.03121c0.00358,-0.01861 0.00998,-0.03846 0.01987,-0.05956c0.08394,-0.17906 0.25182,-0.08954 0.25182,-0.08954l0.16574,0.18057c-0.00008,0.02024 0.00208,0.04145 0.00534,0.06314c0.00367,-0.02994 0.00973,-0.06106 0.01866,-0.09354l0.10988,-0.14709c0,0 0.13272,-0.14156 0.26545,0c0.13272,0.14156 0,0.28312 0,0.28312l-0.01919,-0.00942c-0.0822,0.21438 0.0579,1.2556 0.09937,1.25851c0,0 0.18048,0.055 0.12892,0.2475c-0.05157,0.1925 -0.23204,0.1375 -0.23204,0.1375c-0.10477,-0.04267 -0.24079,-0.03769 -0.31433,-0.12799c-0.07488,-0.09197 -0.07971,-0.23369 -0.07937,-0.3555c0.00041,-0.14695 0.13701,-0.26035 0.16481,-0.40427c0.03895,-0.20166 -0.07049,-0.35426 -0.12172,-0.54201c-0.00547,0.01747 -0.01418,0.03352 -0.02717,0.0477c-0.04564,0.04978 -0.13958,0.07178 -0.22714,0.06628c0.18521,0.74826 0.22659,1.46631 -0.6149,1.72878c0,0 -0.18048,0.055 -0.23204,-0.1375c-0.05157,-0.1925 0.12891,-0.2475 0.12891,-0.2475c0.59149,-0.17504 0.5067,-0.67182 0.37206,-1.18826c-0.05195,0.2023 -0.10395,0.41857 -0.0697,0.66759c0,0 0.02328,0.19866 -0.16297,0.22349c-0.18625,0.02483 -0.20953,-0.17383 -0.20953,-0.17383c-0.04913,-0.47911 0.38211,-1.14151 -0.00044,-1.45598l-0.034,0.00351c0,0 -0.17807,-0.06331 -0.11871,-0.25324z"/></g><g><path d="M340.30182,212.47289c0.05936,-0.18993 0.23742,-0.12662 0.23742,-0.12662l0.1596,0.07234c0.14336,0.14011 0.21992,0.27181 0.25477,0.40058c0.02953,0.00367 0.05696,0.01466 0.08067,0.03121c0.00358,-0.01861 0.00998,-0.03847 0.01987,-0.05956c0.08394,-0.17906 0.25182,-0.08954 0.25182,-0.08954l0.16574,0.18057c-0.00008,0.02024 0.00208,0.04145 0.00534,0.06315c0.00367,-0.02994 0.00974,-0.06106 0.01866,-0.09354l0.10987,-0.14709c0,0 0.13273,-0.14157 0.26545,0c0.13272,0.14157 0,0.28312 0,0.28312l-0.01919,-0.00942c-0.0822,0.21438 0.0579,1.2556 0.09937,1.25851c0,0 0.18048,0.055 0.12891,0.2475c-0.05157,0.1925 -0.23204,0.1375 -0.23204,0.1375c-0.10477,-0.04266 -0.24078,-0.03769 -0.31432,-0.128c-0.07489,-0.09197 -0.07971,-0.23368 -0.07937,-0.35549c0.00041,-0.14695 0.13701,-0.26035 0.16481,-0.40427c0.03895,-0.20166 -0.07049,-0.35425 -0.12173,-0.542c-0.00547,0.01747 -0.01417,0.03352 -0.02717,0.04769c-0.04564,0.04978 -0.13958,0.07178 -0.22714,0.06628c0.18521,0.74827 0.22659,1.46631 -0.6149,1.72879c0,0 -0.18048,0.055 -0.23204,-0.1375c-0.05157,-0.1925 0.12891,-0.24749 0.12891,-0.24749c0.59149,-0.17504 0.50669,-0.67181 0.37205,-1.18826c-0.05195,0.2023 -0.10394,0.41857 -0.0697,0.66759c0,0 0.02328,0.19866 -0.16297,0.22349c-0.18625,0.02483 -0.20953,-0.17382 -0.20953,-0.17382c-0.04913,-0.47911 0.3821,-1.14152 -0.00044,-1.45598l-0.03401,0.00351c0,0 -0.17807,-0.06331 -0.11871,-0.25324z"/><path d="M338.50626,210.67733c0.05936,-0.18993 0.23743,-0.12662 0.23743,-0.12662l0.1596,0.07234c0.14336,0.14011 0.21992,0.27182 0.25477,0.40058c0.02953,0.00367 0.05696,0.01466 0.08067,0.03121c0.00358,-0.01861 0.00998,-0.03847 0.01987,-0.05957c0.08394,-0.17906 0.25182,-0.08954 0.25182,-0.08954l0.16574,0.18057c-0.00008,0.02024 0.00208,0.04145 0.00534,0.06314c0.00367,-0.02994 0.00973,-0.06106 0.01866,-0.09354l0.10988,-0.14709c0,0 0.13272,-0.14156 0.26545,0c0.13272,0.14156 0,0.28313 0,0.28313l-0.01919,-0.00943c-0.0822,0.21438 0.0579,1.2556 0.09937,1.25852c0,0 0.18048,0.055 0.12892,0.2475c-0.05157,0.1925 -0.23204,0.1375 -0.23204,0.1375c-0.10477,-0.04267 -0.24078,-0.03769 -0.31432,-0.128c-0.07488,-0.09197 -0.07972,-0.23368 -0.07938,-0.35549c0.00041,-0.14695 0.13701,-0.26035 0.16481,-0.40427c0.03895,-0.20166 -0.07049,-0.35426 -0.12172,-0.54201c-0.00547,0.01747 -0.01418,0.03352 -0.02717,0.0477c-0.04564,0.04978 -0.13958,0.07178 -0.22714,0.06628c0.18521,0.74826 0.22659,1.46631 -0.6149,1.72878c0,0 -0.18048,0.055 -0.23204,-0.1375c-0.05157,-0.1925 0.12891,-0.2475 0.12891,-0.2475c0.59149,-0.17504 0.5067,-0.67181 0.37206,-1.18825c-0.05195,0.2023 -0.10395,0.41857 -0.0697,0.66759c0,0 0.02328,0.19866 -0.16297,0.22349c-0.18625,0.02483 -0.20953,-0.17382 -0.20953,-0.17382c-0.04913,-0.47911 0.38211,-1.14152 -0.00044,-1.45599l-0.03401,0.00351c0,0 -0.17807,-0.0633 -0.11871,-0.25323z"/><path d="M343.89293,209.5155c0.05936,-0.18993 0.23743,-0.12662 0.23743,-0.12662l0.1596,0.07234c0.14336,0.14011 0.21992,0.27182 0.25477,0.40058c0.02953,0.00367 0.05696,0.01466 0.08067,0.0312c0.00358,-0.01861 0.00998,-0.03847 0.01987,-0.05957c0.08394,-0.17906 0.25182,-0.08953 0.25182,-0.08953l0.16574,0.18057c-0.00008,0.02024 0.00208,0.04145 0.00533,0.06314c0.00367,-0.02994 0.00974,-0.06106 0.01866,-0.09354l0.10987,-0.14709c0,0 0.13273,-0.14156 0.26545,0c0.13272,0.14156 0,0.28313 0,0.28313l-0.01919,-0.00942c-0.0822,0.21438 0.0579,1.2556 0.09937,1.25851c0,0 0.18048,0.055 0.12891,0.2475c-0.05157,0.1925 -0.23204,0.1375 -0.23204,0.1375c-0.10477,-0.04267 -0.24078,-0.03769 -0.31432,-0.12799c-0.07488,-0.09197 -0.07971,-0.23369 -0.07937,-0.3555c0.00041,-0.14695 0.13701,-0.26035 0.16481,-0.40427c0.03895,-0.20166 -0.07049,-0.35426 -0.12173,-0.54201c-0.00547,0.01747 -0.01418,0.03352 -0.02717,0.0477c-0.04564,0.04978 -0.13958,0.07178 -0.22714,0.06628c0.18521,0.74826 0.22659,1.46631 -0.6149,1.72878c0,0 -0.18048,0.055 -0.23204,-0.1375c-0.05157,-0.1925 0.12891,-0.24749 0.12891,-0.24749c0.59149,-0.17504 0.50669,-0.67182 0.37205,-1.18826c-0.05195,0.2023 -0.10394,0.41857 -0.0697,0.66759c0,0 0.02328,0.19866 -0.16297,0.22349c-0.18625,0.02483 -0.20953,-0.17382 -0.20953,-0.17382c-0.04913,-0.47911 0.38211,-1.14152 -0.00044,-1.45599l-0.03401,0.00351c0,0 -0.17807,-0.06331 -0.11872,-0.25323z"/><path d="M346.11097,206.55811c0.05936,-0.18993 0.23743,-0.12661 0.23743,-0.12661l0.1596,0.07233c0.14336,0.14011 0.21991,0.27182 0.25476,0.40058c0.02953,0.00367 0.05697,0.01466 0.08068,0.03121c0.00358,-0.01861 0.00998,-0.03847 0.01987,-0.05957c0.08394,-0.17906 0.25182,-0.08954 0.25182,-0.08954l0.16574,0.18057c-0.00008,0.02024 0.00208,0.04144 0.00534,0.06314c0.00367,-0.02994 0.00973,-0.06106 0.01866,-0.09354l0.10988,-0.14709c0,0 0.13272,-0.14156 0.26544,0c0.13272,0.14156 0,0.28313 0,0.28313l-0.01919,-0.00942c-0.0822,0.21438 0.0579,1.2556 0.09937,1.25852c0,0 0.18048,0.055 0.12892,0.2475c-0.05157,0.1925 -0.23204,0.1375 -0.23204,0.1375c-0.10477,-0.04267 -0.24078,-0.03769 -0.31432,-0.12799c-0.07488,-0.09197 -0.07971,-0.23368 -0.07937,-0.35549c0.00041,-0.14695 0.13701,-0.26035 0.16481,-0.40427c0.03895,-0.20166 -0.07049,-0.35426 -0.12173,-0.54201c-0.00547,0.01747 -0.01418,0.03352 -0.02717,0.0477c-0.04564,0.04978 -0.13958,0.07178 -0.22714,0.06628c0.18521,0.74826 0.22659,1.4663 -0.6149,1.72878c0,0 -0.18048,0.055 -0.23204,-0.1375c-0.05157,-0.1925 0.12891,-0.2475 0.12891,-0.2475c0.59149,-0.17504 0.50669,-0.67181 0.37205,-1.18825c-0.05195,0.2023 -0.10394,0.41857 -0.0697,0.66759c0,0 0.02328,0.19866 -0.16297,0.22349c-0.18625,0.02483 -0.20953,-0.17383 -0.20953,-0.17383c-0.04913,-0.47911 0.38211,-1.14151 -0.00044,-1.45598l-0.03401,0.00351c0,0 -0.17807,-0.06331 -0.11872,-0.25324z"/><path d="M350.23019,203.4951c0.05936,-0.18993 0.23743,-0.12662 0.23743,-0.12662l0.1596,0.07234c0.14336,0.14011 0.21992,0.27182 0.25477,0.40058c0.02953,0.00367 0.05697,0.01466 0.08068,0.03121c0.00358,-0.01861 0.00998,-0.03846 0.01987,-0.05956c0.08394,-0.17906 0.25182,-0.08954 0.25182,-0.08954l0.16573,0.18057c-0.00008,0.02024 0.00208,0.04144 0.00534,0.06314c0.00367,-0.02994 0.00973,-0.06106 0.01866,-0.09354l0.10988,-0.14709c0,0 0.13272,-0.14156 0.26545,0c0.13272,0.14156 0,0.28312 0,0.28312l-0.01919,-0.00942c-0.0822,0.21438 0.0579,1.2556 0.09937,1.25851c0,0 0.18048,0.055 0.12891,0.2475c-0.05157,0.1925 -0.23204,0.1375 -0.23204,0.1375c-0.10477,-0.04267 -0.24078,-0.03769 -0.31432,-0.12799c-0.07488,-0.09197 -0.07972,-0.23369 -0.07938,-0.3555c0.00041,-0.14695 0.13701,-0.26035 0.16481,-0.40427c0.03895,-0.20166 -0.07049,-0.35426 -0.12172,-0.54201c-0.00547,0.01747 -0.01418,0.03352 -0.02717,0.0477c-0.04564,0.04978 -0.13958,0.07178 -0.22714,0.06628c0.18521,0.74826 0.22659,1.4663 -0.6149,1.72878c0,0 -0.18048,0.055 -0.23204,-0.1375c-0.05157,-0.1925 0.12891,-0.24749 0.12891,-0.24749c0.59149,-0.17504 0.5067,-0.67182 0.37206,-1.18826c-0.05195,0.2023 -0.10394,0.41857 -0.0697,0.66759c0,0 0.02328,0.19866 -0.16297,0.22349c-0.18625,0.02483 -0.20953,-0.17382 -0.20953,-0.17382c-0.04913,-0.47911 0.38211,-1.14151 -0.00044,-1.45598l-0.03401,0.0035c0,0 -0.17807,-0.06331 -0.11871,-0.25323z"/><path d="M350.65267,208.77615c0.05936,-0.18993 0.23742,-0.12662 0.23742,-0.12662l0.15961,0.07234c0.14336,0.14011 0.21991,0.27182 0.25476,0.40058c0.02953,0.00367 0.05696,0.01466 0.08067,0.03121c0.00358,-0.01861 0.00998,-0.03846 0.01987,-0.05956c0.08394,-0.17906 0.25183,-0.08954 0.25183,-0.08954l0.16574,0.18057c-0.00008,0.02024 0.00208,0.04145 0.00533,0.06314c0.00367,-0.02994 0.00973,-0.06106 0.01866,-0.09354l0.10988,-0.14709c0,0 0.13272,-0.14156 0.26545,0c0.13272,0.14156 0,0.28312 0,0.28312l-0.01919,-0.00942c-0.0822,0.21438 0.05789,1.2556 0.09936,1.25851c0,0 0.18048,0.055 0.12892,0.2475c-0.05157,0.1925 -0.23204,0.1375 -0.23204,0.1375c-0.10477,-0.04267 -0.24079,-0.03769 -0.31433,-0.12799c-0.07488,-0.09197 -0.07971,-0.23369 -0.07937,-0.3555c0.00041,-0.14695 0.13701,-0.26035 0.16481,-0.40427c0.03895,-0.20166 -0.07049,-0.35426 -0.12172,-0.54201c-0.00547,0.01747 -0.01418,0.03352 -0.02717,0.0477c-0.04564,0.04978 -0.13958,0.07178 -0.22714,0.06628c0.18521,0.74826 0.22659,1.46631 -0.6149,1.72878c0,0 -0.18048,0.055 -0.23204,-0.1375c-0.05157,-0.1925 0.12891,-0.2475 0.12891,-0.2475c0.59149,-0.17504 0.50669,-0.67182 0.37205,-1.18826c-0.05195,0.2023 -0.10395,0.41857 -0.0697,0.66759c0,0 0.02328,0.19866 -0.16297,0.22349c-0.18625,0.02483 -0.20953,-0.17382 -0.20953,-0.17382c-0.04913,-0.47911 0.38211,-1.14152 -0.00044,-1.45598l-0.034,0.00351c0,0 -0.17807,-0.06331 -0.11872,-0.25324z"/></g><g><path d="M311.80775,215.43833c0.05936,-0.18993 0.23742,-0.12662 0.23742,-0.12662l0.1596,0.07234c0.14336,0.14011 0.21992,0.27181 0.25477,0.40058c0.02953,0.00367 0.05697,0.01466 0.08068,0.03121c0.00358,-0.01861 0.00998,-0.03847 0.01987,-0.05956c0.08394,-0.17906 0.25182,-0.08954 0.25182,-0.08954l0.16574,0.18057c-0.00008,0.02024 0.00208,0.04145 0.00534,0.06315c0.00367,-0.02994 0.00974,-0.06106 0.01866,-0.09354l0.10987,-0.14709c0,0 0.13273,-0.14157 0.26545,0c0.13272,0.14157 0,0.28313 0,0.28313l-0.01919,-0.00942c-0.0822,0.21438 0.0579,1.2556 0.09937,1.25851c0,0 0.18048,0.055 0.12891,0.2475c-0.05157,0.1925 -0.23204,0.1375 -0.23204,0.1375c-0.10477,-0.04266 -0.24078,-0.03769 -0.31432,-0.128c-0.07489,-0.09197 -0.07971,-0.23368 -0.07937,-0.35549c0.00041,-0.14695 0.13701,-0.26035 0.16481,-0.40427c0.03895,-0.20166 -0.07049,-0.35426 -0.12173,-0.54201c-0.00547,0.01747 -0.01417,0.03352 -0.02717,0.04769c-0.04564,0.04978 -0.13958,0.07178 -0.22714,0.06628c0.18521,0.74827 0.22659,1.46631 -0.61491,1.72879c0,0 -0.18048,0.055 -0.23204,-0.1375c-0.05157,-0.1925 0.12891,-0.2475 0.12891,-0.2475c0.59149,-0.17504 0.50669,-0.67181 0.37205,-1.18826c-0.05195,0.2023 -0.10394,0.41857 -0.0697,0.66759c0,0 0.02328,0.19866 -0.16297,0.22349c-0.18625,0.02483 -0.20953,-0.17382 -0.20953,-0.17382c-0.04913,-0.47911 0.3821,-1.14151 -0.00044,-1.45598l-0.03401,0.00351c0,0 -0.17807,-0.06331 -0.11871,-0.25324z"/><path d="M310.01219,213.64278c0.05936,-0.18993 0.23743,-0.12662 0.23743,-0.12662l0.1596,0.07234c0.14336,0.14011 0.21992,0.27182 0.25477,0.40058c0.02953,0.00367 0.05696,0.01466 0.08067,0.03121c0.00358,-0.01861 0.00998,-0.03847 0.01987,-0.05957c0.08394,-0.17906 0.25182,-0.08953 0.25182,-0.08953l0.16574,0.18057c-0.00008,0.02024 0.00208,0.04145 0.00534,0.06315c0.00367,-0.02994 0.00973,-0.06106 0.01866,-0.09354l0.10988,-0.14709c0,0 0.13273,-0.14156 0.26545,0c0.13272,0.14156 0,0.28313 0,0.28313l-0.01919,-0.00942c-0.0822,0.21438 0.0579,1.2556 0.09937,1.25851c0,0 0.18048,0.055 0.12892,0.2475c-0.05157,0.1925 -0.23204,0.1375 -0.23204,0.1375c-0.10477,-0.04267 -0.24078,-0.03769 -0.31432,-0.12799c-0.07488,-0.09197 -0.07972,-0.23369 -0.07938,-0.3555c0.00041,-0.14695 0.13701,-0.26035 0.16481,-0.40427c0.03895,-0.20166 -0.07049,-0.35426 -0.12172,-0.54201c-0.00547,0.01747 -0.01418,0.03352 -0.02717,0.0477c-0.04564,0.04978 -0.13958,0.07178 -0.22714,0.06628c0.18521,0.74826 0.22659,1.46631 -0.61491,1.72879c0,0 -0.18047,0.055 -0.23204,-0.1375c-0.05157,-0.1925 0.12891,-0.24749 0.12891,-0.24749c0.59149,-0.17504 0.50669,-0.67182 0.37205,-1.18826c-0.05195,0.2023 -0.10395,0.41857 -0.0697,0.66759c0,0 0.02329,0.19866 -0.16296,0.22349c-0.18625,0.02483 -0.20954,-0.17382 -0.20954,-0.17382c-0.04913,-0.47911 0.38212,-1.14152 -0.00043,-1.45599l-0.03401,0.0035c0,0 -0.17807,-0.0633 -0.11872,-0.25323z"/><path d="M315.39886,212.48095c0.05936,-0.18993 0.23743,-0.12662 0.23743,-0.12662l0.1596,0.07234c0.14336,0.14011 0.21991,0.27182 0.25476,0.40058c0.02953,0.00367 0.05697,0.01466 0.08068,0.0312c0.00358,-0.01861 0.00998,-0.03846 0.01987,-0.05956c0.08394,-0.17906 0.25182,-0.08954 0.25182,-0.08954l0.16574,0.18057c-0.00008,0.02024 0.00208,0.04145 0.00533,0.06315c0.00367,-0.02994 0.00974,-0.06106 0.01866,-0.09354l0.10987,-0.14709c0,0 0.13272,-0.14156 0.26545,0c0.13272,0.14156 0,0.28313 0,0.28313l-0.01919,-0.00942c-0.0822,0.21438 0.0579,1.2556 0.09937,1.25851c0,0 0.18048,0.055 0.12891,0.2475c-0.05157,0.1925 -0.23204,0.1375 -0.23204,0.1375c-0.10477,-0.04267 -0.24078,-0.03769 -0.31432,-0.12799c-0.07488,-0.09197 -0.07971,-0.23369 -0.07937,-0.3555c0.00041,-0.14695 0.13701,-0.26035 0.16481,-0.40427c0.03895,-0.20166 -0.07049,-0.35426 -0.12173,-0.54201c-0.00547,0.01747 -0.01418,0.03352 -0.02717,0.0477c-0.04564,0.04978 -0.13958,0.07178 -0.22714,0.06628c0.18521,0.74826 0.22659,1.46631 -0.61491,1.72879c0,0 -0.18048,0.055 -0.23204,-0.1375c-0.05157,-0.1925 0.12891,-0.24749 0.12891,-0.24749c0.59149,-0.17504 0.50669,-0.67182 0.37205,-1.18826c-0.05195,0.2023 -0.10394,0.41857 -0.0697,0.66759c0,0 0.02328,0.19866 -0.16297,0.22349c-0.18625,0.02483 -0.20953,-0.17382 -0.20953,-0.17382c-0.04913,-0.47911 0.38211,-1.14152 -0.00044,-1.45599l-0.03401,0.00351c0,0 -0.17807,-0.06331 -0.11872,-0.25324z"/><path d="M317.6169,209.52356c0.05936,-0.18993 0.23743,-0.12662 0.23743,-0.12662l0.1596,0.07234c0.14336,0.14011 0.21991,0.27182 0.25476,0.40058c0.02953,0.00367 0.05697,0.01466 0.08068,0.03121c0.00358,-0.01861 0.00998,-0.03847 0.01987,-0.05957c0.08394,-0.17906 0.25182,-0.08953 0.25182,-0.08953l0.16574,0.18057c-0.00008,0.02024 0.00208,0.04144 0.00534,0.06314c0.00367,-0.02994 0.00973,-0.06106 0.01866,-0.09354l0.10988,-0.14709c0,0 0.13272,-0.14156 0.26544,0c0.13272,0.14156 0,0.28312 0,0.28312l-0.01919,-0.00942c-0.0822,0.21438 0.0579,1.2556 0.09937,1.25851c0,0 0.18048,0.055 0.12892,0.2475c-0.05157,0.1925 -0.23204,0.1375 -0.23204,0.1375c-0.10477,-0.04267 -0.24078,-0.03769 -0.31432,-0.12799c-0.07488,-0.09197 -0.07971,-0.23369 -0.07937,-0.3555c0.00041,-0.14695 0.13701,-0.26035 0.16481,-0.40427c0.03895,-0.20166 -0.0705,-0.35426 -0.12173,-0.54201c-0.00547,0.01747 -0.01417,0.03352 -0.02717,0.0477c-0.04564,0.04978 -0.13958,0.07178 -0.22714,0.06628c0.18521,0.74826 0.22659,1.4663 -0.61491,1.72878c0,0 -0.18047,0.055 -0.23204,-0.1375c-0.05157,-0.1925 0.12891,-0.24749 0.12891,-0.24749c0.59149,-0.17504 0.50669,-0.67182 0.37205,-1.18826c-0.05195,0.2023 -0.10394,0.41857 -0.0697,0.66759c0,0 0.02329,0.19866 -0.16296,0.22349c-0.18625,0.02483 -0.20953,-0.17382 -0.20953,-0.17382c-0.04913,-0.47911 0.38211,-1.14151 -0.00044,-1.45598l-0.034,0.0035c0,0 -0.17807,-0.06331 -0.11872,-0.25323z"/><path d="M321.73612,206.46055c0.05936,-0.18993 0.23743,-0.12662 0.23743,-0.12662l0.1596,0.07234c0.14336,0.14011 0.21992,0.27182 0.25477,0.40058c0.02953,0.00367 0.05696,0.01466 0.08067,0.03121c0.00358,-0.01861 0.00998,-0.03846 0.01987,-0.05956c0.08394,-0.17906 0.25183,-0.08954 0.25183,-0.08954l0.16573,0.18057c-0.00008,0.02024 0.00208,0.04145 0.00534,0.06314c0.00367,-0.02994 0.00973,-0.06106 0.01866,-0.09354l0.10988,-0.14709c0,0 0.13272,-0.14156 0.26545,0c0.13272,0.14156 0,0.28312 0,0.28312l-0.01919,-0.00942c-0.0822,0.21438 0.0579,1.2556 0.09937,1.25851c0,0 0.18048,0.055 0.12891,0.2475c-0.05157,0.1925 -0.23204,0.1375 -0.23204,0.1375c-0.10477,-0.04267 -0.24078,-0.03769 -0.31432,-0.12799c-0.07488,-0.09197 -0.07972,-0.23369 -0.07938,-0.3555c0.00041,-0.14695 0.13701,-0.26035 0.16481,-0.40427c0.03895,-0.20166 -0.07049,-0.35426 -0.12172,-0.54201c-0.00547,0.01747 -0.01418,0.03352 -0.02717,0.0477c-0.04564,0.04978 -0.13958,0.07178 -0.22714,0.06628c0.18521,0.74826 0.22659,1.46631 -0.61491,1.72878c0,0 -0.18047,0.055 -0.23204,-0.1375c-0.05157,-0.1925 0.12891,-0.2475 0.12891,-0.2475c0.59149,-0.17504 0.5067,-0.67182 0.37206,-1.18826c-0.05195,0.2023 -0.10394,0.41857 -0.0697,0.66759c0,0 0.02328,0.19866 -0.16297,0.22349c-0.18625,0.02483 -0.20953,-0.17383 -0.20953,-0.17383c-0.04913,-0.47911 0.38211,-1.14152 -0.00044,-1.45598l-0.03401,0.00351c0,0 -0.17807,-0.06331 -0.11871,-0.25324z"/><path d="M322.1586,211.7416c0.05936,-0.18993 0.23742,-0.12662 0.23742,-0.12662l0.1596,0.07234c0.14336,0.14011 0.21992,0.27182 0.25477,0.40058c0.02953,0.00367 0.05696,0.01466 0.08067,0.03121c0.00358,-0.01861 0.00998,-0.03847 0.01987,-0.05957c0.08394,-0.17906 0.25182,-0.08954 0.25182,-0.08954l0.16574,0.18057c-0.00008,0.02024 0.00208,0.04145 0.00534,0.06314c0.00367,-0.02994 0.00973,-0.06106 0.01866,-0.09354l0.10988,-0.14709c0,0 0.13272,-0.14156 0.26545,0c0.13272,0.14156 0,0.28312 0,0.28312l-0.01919,-0.00942c-0.0822,0.21438 0.0579,1.2556 0.09937,1.25851c0,0 0.18048,0.055 0.12892,0.2475c-0.05157,0.1925 -0.23204,0.1375 -0.23204,0.1375c-0.10477,-0.04267 -0.24079,-0.03769 -0.31433,-0.12799c-0.07488,-0.09197 -0.07971,-0.23369 -0.07937,-0.3555c0.00041,-0.14695 0.13701,-0.26034 0.16481,-0.40426c0.03895,-0.20166 -0.07049,-0.35426 -0.12172,-0.54201c-0.00547,0.01747 -0.01418,0.03352 -0.02717,0.0477c-0.04564,0.04978 -0.13958,0.07178 -0.22714,0.06628c0.18521,0.74826 0.22659,1.46631 -0.6149,1.72878c0,0 -0.18048,0.055 -0.23204,-0.1375c-0.05157,-0.1925 0.12891,-0.2475 0.12891,-0.2475c0.59149,-0.17504 0.5067,-0.67182 0.37206,-1.18826c-0.05195,0.2023 -0.10395,0.41857 -0.0697,0.66759c0,0 0.02328,0.19866 -0.16297,0.22349c-0.18625,0.02483 -0.20953,-0.17383 -0.20953,-0.17383c-0.04913,-0.47911 0.38211,-1.14151 -0.00044,-1.45598l-0.034,0.00351c0,0 -0.17807,-0.06331 -0.11871,-0.25324z"/></g><g><path d="M300.0749,214.14901c0.05936,-0.18993 0.23742,-0.12662 0.23742,-0.12662l0.1596,0.07234c0.14336,0.14011 0.21992,0.27181 0.25477,0.40058c0.02953,0.00367 0.05696,0.01466 0.08067,0.03121c0.00358,-0.01861 0.00998,-0.03847 0.01987,-0.05957c0.08394,-0.17906 0.25183,-0.08954 0.25183,-0.08954l0.16573,0.18057c-0.00008,0.02024 0.00208,0.04145 0.00534,0.06314c0.00367,-0.02994 0.00974,-0.06106 0.01866,-0.09354l0.10988,-0.14709c0,0 0.13272,-0.14157 0.26545,0c0.13272,0.14157 0,0.28312 0,0.28312l-0.01919,-0.00942c-0.0822,0.21438 0.0579,1.2556 0.09937,1.25851c0,0 0.18048,0.05499 0.12891,0.24749c-0.05157,0.1925 -0.23204,0.1375 -0.23204,0.1375c-0.10477,-0.04266 -0.24078,-0.03769 -0.31432,-0.128c-0.07489,-0.09197 -0.07971,-0.23368 -0.07937,-0.35549c0.00041,-0.14695 0.13702,-0.26035 0.16481,-0.40427c0.03895,-0.20166 -0.07049,-0.35426 -0.12173,-0.54201c-0.00547,0.01747 -0.01417,0.03352 -0.02717,0.0477c-0.04564,0.04978 -0.13958,0.07178 -0.22714,0.06628c0.18521,0.74827 0.22659,1.46631 -0.6149,1.72878c0,0 -0.18048,0.055 -0.23204,-0.1375c-0.05157,-0.1925 0.12891,-0.2475 0.12891,-0.2475c0.59149,-0.17504 0.5067,-0.67181 0.37206,-1.18825c-0.05195,0.2023 -0.10394,0.41857 -0.0697,0.66759c0,0 0.02328,0.19866 -0.16297,0.22349c-0.18625,0.02483 -0.20953,-0.17382 -0.20953,-0.17382c-0.04913,-0.47911 0.3821,-1.14151 -0.00044,-1.45598l-0.03401,0.0035c0,0 -0.17807,-0.06331 -0.11871,-0.25323z"/><path d="M298.27934,212.35345c0.05936,-0.18993 0.23743,-0.12662 0.23743,-0.12662l0.1596,0.07234c0.14336,0.14011 0.21992,0.27182 0.25477,0.40058c0.02953,0.00367 0.05696,0.01466 0.08067,0.03121c0.00358,-0.01861 0.00998,-0.03846 0.01987,-0.05956c0.08394,-0.17906 0.25182,-0.08954 0.25182,-0.08954l0.16574,0.18057c-0.00008,0.02024 0.00208,0.04145 0.00534,0.06315c0.00367,-0.02994 0.00973,-0.06106 0.01866,-0.09354l0.10988,-0.14709c0,0 0.13272,-0.14156 0.26545,0c0.13272,0.14156 0,0.28313 0,0.28313l-0.01919,-0.00943c-0.0822,0.21438 0.05789,1.2556 0.09936,1.25851c0,0 0.18048,0.055 0.12892,0.2475c-0.05157,0.1925 -0.23204,0.1375 -0.23204,0.1375c-0.10477,-0.04267 -0.24079,-0.03769 -0.31433,-0.12799c-0.07488,-0.09197 -0.07972,-0.23369 -0.07938,-0.3555c0.00041,-0.14695 0.13701,-0.26034 0.16481,-0.40426c0.03895,-0.20166 -0.07049,-0.35426 -0.12172,-0.54201c-0.00547,0.01747 -0.01418,0.03352 -0.02717,0.0477c-0.04564,0.04978 -0.13958,0.07178 -0.22714,0.06628c0.18521,0.74826 0.22659,1.46631 -0.6149,1.72879c0,0 -0.18048,0.055 -0.23204,-0.1375c-0.05157,-0.1925 0.12891,-0.2475 0.12891,-0.2475c0.59149,-0.17504 0.50669,-0.67182 0.37205,-1.18826c-0.05195,0.2023 -0.10395,0.41857 -0.0697,0.66759c0,0 0.02328,0.19866 -0.16297,0.22349c-0.18625,0.02483 -0.20953,-0.17382 -0.20953,-0.17382c-0.04913,-0.47911 0.38211,-1.14152 -0.00044,-1.45599l-0.034,0.00351c0,0 -0.17807,-0.06331 -0.11872,-0.25323z"/><path d="M303.66601,211.19162c0.05936,-0.18993 0.23742,-0.12661 0.23742,-0.12661l0.15961,0.07233c0.14336,0.14011 0.21991,0.27182 0.25476,0.40058c0.02953,0.00367 0.05696,0.01466 0.08067,0.0312c0.00358,-0.01861 0.00998,-0.03847 0.01987,-0.05957c0.08394,-0.17906 0.25183,-0.08954 0.25183,-0.08954l0.16574,0.18057c-0.00008,0.02024 0.00207,0.04145 0.00533,0.06315c0.00367,-0.02994 0.00974,-0.06106 0.01866,-0.09354l0.10987,-0.14709c0,0 0.13273,-0.14156 0.26545,0c0.13272,0.14156 0,0.28313 0,0.28313l-0.01919,-0.00943c-0.0822,0.21438 0.0579,1.2556 0.09937,1.25851c0,0 0.18048,0.055 0.12891,0.2475c-0.05157,0.1925 -0.23204,0.1375 -0.23204,0.1375c-0.10477,-0.04267 -0.24078,-0.03769 -0.31432,-0.12799c-0.07488,-0.09197 -0.07971,-0.23368 -0.07937,-0.35549c0.00041,-0.14695 0.13702,-0.26035 0.16481,-0.40427c0.03895,-0.20166 -0.0705,-0.35426 -0.12173,-0.54201c-0.00547,0.01747 -0.01418,0.03352 -0.02717,0.0477c-0.04564,0.04978 -0.13958,0.07178 -0.22714,0.06628c0.18521,0.74826 0.22659,1.46631 -0.6149,1.72879c0,0 -0.18048,0.055 -0.23204,-0.1375c-0.05157,-0.1925 0.12891,-0.2475 0.12891,-0.2475c0.59149,-0.17504 0.5067,-0.67181 0.37206,-1.18825c-0.05195,0.2023 -0.10394,0.41857 -0.0697,0.66759c0,0 0.02328,0.19866 -0.16297,0.22349c-0.18625,0.02483 -0.20953,-0.17382 -0.20953,-0.17382c-0.04913,-0.47911 0.38211,-1.14152 -0.00044,-1.45599l-0.03401,0.00351c0,0 -0.17807,-0.06331 -0.11871,-0.25324z"/><path d="M305.88404,208.23423c0.05936,-0.18993 0.23743,-0.12662 0.23743,-0.12662l0.1596,0.07234c0.14336,0.14011 0.21992,0.27182 0.25477,0.40058c0.02953,0.00367 0.05696,0.01466 0.08067,0.03121c0.00358,-0.01861 0.00998,-0.03846 0.01987,-0.05956c0.08394,-0.17906 0.25182,-0.08954 0.25182,-0.08954l0.16574,0.18057c-0.00008,0.02024 0.00208,0.04145 0.00534,0.06314c0.00367,-0.02994 0.00973,-0.06106 0.01866,-0.09354l0.10988,-0.14709c0,0 0.13272,-0.14156 0.26544,0c0.13272,0.14156 0,0.28312 0,0.28312l-0.01919,-0.00942c-0.0822,0.21438 0.0579,1.2556 0.09937,1.25851c0,0 0.18048,0.055 0.12892,0.2475c-0.05157,0.1925 -0.23204,0.1375 -0.23204,0.1375c-0.10477,-0.04267 -0.24078,-0.03769 -0.31432,-0.12799c-0.07488,-0.09197 -0.07971,-0.23369 -0.07937,-0.3555c0.00041,-0.14695 0.13701,-0.26035 0.16481,-0.40427c0.03895,-0.20166 -0.07049,-0.35426 -0.12173,-0.54201c-0.00547,0.01747 -0.01418,0.03352 -0.02717,0.0477c-0.04564,0.04978 -0.13958,0.07178 -0.22714,0.06628c0.18521,0.74826 0.22659,1.46631 -0.6149,1.72878c0,0 -0.18048,0.055 -0.23204,-0.1375c-0.05157,-0.1925 0.12891,-0.2475 0.12891,-0.2475c0.59149,-0.17504 0.5067,-0.67182 0.37206,-1.18826c-0.05195,0.2023 -0.10394,0.41857 -0.0697,0.66759c0,0 0.02328,0.19866 -0.16297,0.22349c-0.18625,0.02483 -0.20953,-0.17383 -0.20953,-0.17383c-0.04913,-0.47911 0.38211,-1.14152 -0.00044,-1.45598l-0.03401,0.00351c0,0 -0.17807,-0.06331 -0.11872,-0.25324z"/><path d="M310.00327,205.17122c0.05936,-0.18993 0.23743,-0.12661 0.23743,-0.12661l0.1596,0.07233c0.14336,0.14011 0.21992,0.27182 0.25477,0.40058c0.02953,0.00367 0.05697,0.01466 0.08068,0.03121c0.00358,-0.01861 0.00998,-0.03847 0.01987,-0.05957c0.08394,-0.17906 0.25182,-0.08954 0.25182,-0.08954l0.16574,0.18057c-0.00008,0.02024 0.00208,0.04144 0.00534,0.06314c0.00367,-0.02994 0.00973,-0.06106 0.01866,-0.09354l0.10988,-0.14709c0,0 0.13272,-0.14156 0.26545,0c0.13272,0.14156 0,0.28313 0,0.28313l-0.01919,-0.00942c-0.0822,0.21438 0.0579,1.2556 0.09937,1.25851c0,0 0.18048,0.055 0.12891,0.2475c-0.05157,0.1925 -0.23204,0.1375 -0.23204,0.1375c-0.10477,-0.04267 -0.24078,-0.03769 -0.31432,-0.12799c-0.07488,-0.09197 -0.07972,-0.23368 -0.07938,-0.35549c0.00041,-0.14695 0.13702,-0.26035 0.16481,-0.40427c0.03895,-0.20166 -0.07049,-0.35426 -0.12173,-0.54201c-0.00547,0.01747 -0.01418,0.03352 -0.02717,0.0477c-0.04564,0.04978 -0.13958,0.07177 -0.22714,0.06628c0.18521,0.74826 0.22659,1.46631 -0.6149,1.72878c0,0 -0.18048,0.055 -0.23204,-0.1375c-0.05157,-0.1925 0.12891,-0.2475 0.12891,-0.2475c0.59149,-0.17504 0.50669,-0.67181 0.37205,-1.18825c-0.05195,0.2023 -0.10394,0.41857 -0.0697,0.66759c0,0 0.02328,0.19866 -0.16297,0.22349c-0.18625,0.02483 -0.20954,-0.17383 -0.20954,-0.17383c-0.04913,-0.47911 0.38211,-1.14151 -0.00044,-1.45598l-0.034,0.00351c0,0 -0.17807,-0.06331 -0.11872,-0.25324z"/><path d="M310.42575,210.45227c0.05936,-0.18993 0.23742,-0.12661 0.23742,-0.12661l0.1596,0.07233c0.14336,0.14011 0.21991,0.27182 0.25476,0.40058c0.02953,0.00367 0.05697,0.01466 0.08068,0.03121c0.00358,-0.01861 0.00998,-0.03847 0.01987,-0.05957c0.08394,-0.17906 0.25182,-0.08954 0.25182,-0.08954l0.16574,0.18057c-0.00008,0.02024 0.00208,0.04144 0.00534,0.06314c0.00367,-0.02994 0.00973,-0.06106 0.01866,-0.09354l0.10988,-0.14709c0,0 0.13273,-0.14156 0.26545,0c0.13272,0.14156 0,0.28313 0,0.28313l-0.01919,-0.00942c-0.0822,0.21438 0.0579,1.2556 0.09937,1.25852c0,0 0.18048,0.055 0.12892,0.2475c-0.05157,0.1925 -0.23204,0.1375 -0.23204,0.1375c-0.10477,-0.04267 -0.24079,-0.03769 -0.31433,-0.12799c-0.07488,-0.09197 -0.07971,-0.23368 -0.07937,-0.35549c0.00041,-0.14695 0.13702,-0.26035 0.16481,-0.40427c0.03895,-0.20166 -0.07049,-0.35426 -0.12172,-0.54201c-0.00547,0.01747 -0.01418,0.03352 -0.02717,0.0477c-0.04564,0.04978 -0.13958,0.07178 -0.22714,0.06628c0.18521,0.74826 0.22659,1.4663 -0.6149,1.72878c0,0 -0.18047,0.055 -0.23204,-0.1375c-0.05157,-0.1925 0.12891,-0.2475 0.12891,-0.2475c0.59149,-0.17504 0.50669,-0.67181 0.37205,-1.18825c-0.05195,0.2023 -0.10395,0.41857 -0.0697,0.66759c0,0 0.02329,0.19866 -0.16296,0.22349c-0.18625,0.02483 -0.20954,-0.17383 -0.20954,-0.17383c-0.04913,-0.47911 0.38211,-1.14152 -0.00044,-1.45598l-0.034,0.00351c0,0 -0.17807,-0.06331 -0.11872,-0.25324z"/></g><g><path d="M286.66592,202.28722c0.05936,-0.18993 0.23742,-0.12662 0.23742,-0.12662l0.1596,0.07234c0.14336,0.14011 0.21992,0.27181 0.25477,0.40058c0.02953,0.00367 0.05696,0.01466 0.08067,0.03121c0.00358,-0.01861 0.00998,-0.03847 0.01987,-0.05957c0.08394,-0.17906 0.25183,-0.08954 0.25183,-0.08954l0.16573,0.18057c-0.00008,0.02024 0.00208,0.04145 0.00534,0.06314c0.00367,-0.02994 0.00974,-0.06106 0.01866,-0.09354l0.10988,-0.14709c0,0 0.13272,-0.14157 0.26545,0c0.13272,0.14157 0,0.28312 0,0.28312l-0.01919,-0.00942c-0.0822,0.21438 0.0579,1.2556 0.09937,1.25852c0,0 0.18048,0.05499 0.12891,0.24749c-0.05157,0.1925 -0.23204,0.1375 -0.23204,0.1375c-0.10477,-0.04266 -0.24078,-0.03769 -0.31432,-0.128c-0.07489,-0.09197 -0.07971,-0.23368 -0.07937,-0.35549c0.00041,-0.14695 0.13702,-0.26035 0.16481,-0.40427c0.03895,-0.20166 -0.07049,-0.35426 -0.12173,-0.54201c-0.00547,0.01747 -0.01417,0.03352 -0.02717,0.0477c-0.04564,0.04978 -0.13958,0.07177 -0.22714,0.06628c0.18521,0.74827 0.22659,1.46631 -0.6149,1.72879c0,0 -0.18048,0.055 -0.23204,-0.1375c-0.05157,-0.1925 0.12891,-0.2475 0.12891,-0.2475c0.59149,-0.17504 0.5067,-0.67181 0.37206,-1.18825c-0.05195,0.2023 -0.10394,0.41857 -0.0697,0.66759c0,0 0.02328,0.19866 -0.16297,0.22349c-0.18625,0.02483 -0.20953,-0.17382 -0.20953,-0.17382c-0.04913,-0.47911 0.3821,-1.14152 -0.00044,-1.45598l-0.03401,0.0035c0,0 -0.17807,-0.06331 -0.11871,-0.25323z"/><path d="M284.87036,200.49167c0.05936,-0.18993 0.23743,-0.12662 0.23743,-0.12662l0.1596,0.07234c0.14336,0.14011 0.21992,0.27182 0.25477,0.40058c0.02953,0.00367 0.05696,0.01466 0.08067,0.03121c0.00358,-0.01861 0.00998,-0.03846 0.01987,-0.05956c0.08394,-0.17906 0.25182,-0.08954 0.25182,-0.08954l0.16574,0.18057c-0.00008,0.02024 0.00208,0.04145 0.00534,0.06315c0.00367,-0.02994 0.00973,-0.06106 0.01866,-0.09354l0.10988,-0.14709c0,0 0.13272,-0.14156 0.26545,0c0.13272,0.14156 0,0.28313 0,0.28313l-0.01919,-0.00942c-0.0822,0.21438 0.05789,1.2556 0.09936,1.25851c0,0 0.18048,0.055 0.12892,0.2475c-0.05157,0.1925 -0.23204,0.1375 -0.23204,0.1375c-0.10477,-0.04267 -0.24079,-0.03769 -0.31433,-0.12799c-0.07488,-0.09197 -0.07972,-0.23369 -0.07938,-0.3555c0.00041,-0.14695 0.13701,-0.26035 0.16481,-0.40427c0.03895,-0.20166 -0.07049,-0.35426 -0.12172,-0.54201c-0.00547,0.01747 -0.01418,0.03352 -0.02717,0.0477c-0.04564,0.04978 -0.13958,0.07178 -0.22714,0.06628c0.18521,0.74826 0.22659,1.46631 -0.6149,1.72879c0,0 -0.18048,0.055 -0.23204,-0.1375c-0.05157,-0.1925 0.12891,-0.2475 0.12891,-0.2475c0.59149,-0.17504 0.5067,-0.67182 0.37206,-1.18826c-0.05195,0.2023 -0.10395,0.41857 -0.0697,0.66759c0,0 0.02328,0.19866 -0.16297,0.22349c-0.18625,0.02483 -0.20953,-0.17382 -0.20953,-0.17382c-0.04913,-0.47911 0.38211,-1.14152 -0.00044,-1.45599l-0.034,0.00351c0,0 -0.17807,-0.06331 -0.11872,-0.25323z"/><path d="M290.25703,199.32984c0.05936,-0.18993 0.23743,-0.12661 0.23743,-0.12661l0.1596,0.07233c0.14336,0.14011 0.21992,0.27182 0.25477,0.40058c0.02953,0.00367 0.05696,0.01466 0.08067,0.0312c0.00358,-0.01861 0.00998,-0.03847 0.01987,-0.05957c0.08394,-0.17906 0.25182,-0.08954 0.25182,-0.08954l0.16574,0.18057c-0.00008,0.02024 0.00208,0.04145 0.00533,0.06315c0.00367,-0.02994 0.00974,-0.06106 0.01866,-0.09354l0.10987,-0.14709c0,0 0.13273,-0.14156 0.26545,0c0.13272,0.14156 0,0.28313 0,0.28313l-0.01919,-0.00943c-0.0822,0.21438 0.0579,1.2556 0.09937,1.25851c0,0 0.18048,0.055 0.12891,0.2475c-0.05157,0.1925 -0.23204,0.1375 -0.23204,0.1375c-0.10477,-0.04267 -0.24078,-0.03769 -0.31432,-0.12799c-0.07488,-0.09197 -0.07971,-0.23369 -0.07937,-0.3555c0.00041,-0.14695 0.13701,-0.26034 0.16481,-0.40426c0.03895,-0.20166 -0.07049,-0.35426 -0.12173,-0.54201c-0.00547,0.01747 -0.01418,0.03352 -0.02717,0.0477c-0.04564,0.04978 -0.13958,0.07178 -0.22714,0.06628c0.18521,0.74826 0.22659,1.46631 -0.6149,1.72879c0,0 -0.18048,0.055 -0.23204,-0.1375c-0.05157,-0.1925 0.12891,-0.2475 0.12891,-0.2475c0.59149,-0.17504 0.5067,-0.67181 0.37206,-1.18825c-0.05195,0.2023 -0.10394,0.41857 -0.0697,0.66759c0,0 0.02328,0.19866 -0.16297,0.22349c-0.18625,0.02483 -0.20953,-0.17382 -0.20953,-0.17382c-0.04913,-0.47911 0.38211,-1.14152 -0.00044,-1.45599l-0.03401,0.00351c0,0 -0.17807,-0.06331 -0.11872,-0.25324z"/><path d="M292.47507,196.37245c0.05936,-0.18993 0.23743,-0.12662 0.23743,-0.12662l0.1596,0.07234c0.14336,0.14011 0.21992,0.27182 0.25477,0.40058c0.02953,0.00367 0.05696,0.01466 0.08067,0.03121c0.00358,-0.01861 0.00998,-0.03846 0.01987,-0.05956c0.08394,-0.17906 0.25182,-0.08954 0.25182,-0.08954l0.16574,0.18057c-0.00008,0.02024 0.00208,0.04145 0.00534,0.06314c0.00367,-0.02994 0.00973,-0.06106 0.01866,-0.09354l0.10988,-0.14709c0,0 0.13272,-0.14156 0.26544,0c0.13272,0.14156 0,0.28312 0,0.28312l-0.01919,-0.00942c-0.0822,0.21438 0.0579,1.2556 0.09937,1.25851c0,0 0.18048,0.055 0.12892,0.2475c-0.05157,0.1925 -0.23204,0.1375 -0.23204,0.1375c-0.10477,-0.04267 -0.24078,-0.03769 -0.31432,-0.12799c-0.07488,-0.09197 -0.07971,-0.23369 -0.07937,-0.3555c0.00041,-0.14695 0.13701,-0.26035 0.16481,-0.40427c0.03895,-0.20166 -0.07049,-0.35426 -0.12173,-0.54201c-0.00547,0.01747 -0.01418,0.03352 -0.02717,0.0477c-0.04564,0.04978 -0.13958,0.07178 -0.22714,0.06628c0.18521,0.74826 0.22659,1.46631 -0.6149,1.72878c0,0 -0.18048,0.055 -0.23204,-0.1375c-0.05157,-0.1925 0.12891,-0.2475 0.12891,-0.2475c0.59149,-0.17504 0.50669,-0.67182 0.37205,-1.18826c-0.05195,0.2023 -0.10394,0.41857 -0.0697,0.66759c0,0 0.02328,0.19866 -0.16297,0.22349c-0.18625,0.02483 -0.20953,-0.17383 -0.20953,-0.17383c-0.04913,-0.47911 0.38211,-1.14151 -0.00044,-1.45598l-0.03401,0.00351c0,0 -0.17807,-0.06331 -0.11872,-0.25324z"/><path d="M296.59429,193.30944c0.05936,-0.18993 0.23743,-0.12662 0.23743,-0.12662l0.1596,0.07234c0.14336,0.14011 0.21992,0.27182 0.25477,0.40058c0.02953,0.00367 0.05697,0.01466 0.08068,0.03121c0.00358,-0.01861 0.00998,-0.03847 0.01987,-0.05957c0.08394,-0.17906 0.25182,-0.08954 0.25182,-0.08954l0.16574,0.18057c-0.00008,0.02024 0.00208,0.04145 0.00533,0.06314c0.00367,-0.02994 0.00973,-0.06106 0.01866,-0.09354l0.10988,-0.14709c0,0 0.13272,-0.14156 0.26545,0c0.13272,0.14156 0,0.28313 0,0.28313l-0.01919,-0.00942c-0.0822,0.21438 0.0579,1.2556 0.09937,1.25851c0,0 0.18048,0.055 0.12891,0.2475c-0.05157,0.1925 -0.23204,0.1375 -0.23204,0.1375c-0.10477,-0.04267 -0.24078,-0.03769 -0.31432,-0.12799c-0.07488,-0.09197 -0.07972,-0.23368 -0.07938,-0.35549c0.00041,-0.14695 0.13701,-0.26035 0.16481,-0.40427c0.03895,-0.20166 -0.07049,-0.35426 -0.12172,-0.54201c-0.00547,0.01747 -0.01418,0.03352 -0.02717,0.0477c-0.04564,0.04978 -0.13958,0.07177 -0.22714,0.06628c0.18521,0.74826 0.22659,1.46631 -0.6149,1.72878c0,0 -0.18048,0.055 -0.23204,-0.1375c-0.05157,-0.1925 0.12891,-0.2475 0.12891,-0.2475c0.59149,-0.17504 0.50669,-0.67181 0.37205,-1.18825c-0.05195,0.2023 -0.10394,0.41857 -0.0697,0.66759c0,0 0.02328,0.19866 -0.16297,0.22349c-0.18625,0.02483 -0.20953,-0.17383 -0.20953,-0.17383c-0.04913,-0.47911 0.38211,-1.14152 -0.00044,-1.45598l-0.034,0.00351c0,0 -0.17807,-0.06331 -0.11872,-0.25324z"/><path d="M297.01678,198.59049c0.05936,-0.18993 0.23742,-0.12661 0.23742,-0.12661l0.1596,0.07233c0.14336,0.14011 0.21991,0.27182 0.25476,0.40058c0.02953,0.00367 0.05696,0.01466 0.08067,0.03121c0.00358,-0.01861 0.00998,-0.03847 0.01987,-0.05957c0.08394,-0.17906 0.25182,-0.08954 0.25182,-0.08954l0.16574,0.18057c-0.00008,0.02024 0.00208,0.04144 0.00534,0.06314c0.00367,-0.02994 0.00973,-0.06106 0.01866,-0.09354l0.10988,-0.14709c0,0 0.13273,-0.14156 0.26545,0c0.13272,0.14156 0,0.28313 0,0.28313l-0.01919,-0.00942c-0.0822,0.21438 0.0579,1.2556 0.09937,1.25851c0,0 0.18048,0.055 0.12891,0.2475c-0.05157,0.1925 -0.23204,0.1375 -0.23204,0.1375c-0.10477,-0.04267 -0.24079,-0.03769 -0.31433,-0.12799c-0.07488,-0.09197 -0.07971,-0.23368 -0.07937,-0.35549c0.00041,-0.14695 0.13702,-0.26035 0.16481,-0.40427c0.03895,-0.20166 -0.07049,-0.35426 -0.12172,-0.54201c-0.00547,0.01747 -0.01418,0.03352 -0.02717,0.0477c-0.04564,0.04978 -0.13958,0.07178 -0.22714,0.06628c0.18521,0.74826 0.22659,1.4663 -0.6149,1.72878c0,0 -0.18048,0.055 -0.23204,-0.1375c-0.05157,-0.1925 0.12891,-0.2475 0.12891,-0.2475c0.59149,-0.17504 0.50669,-0.67181 0.37205,-1.18825c-0.05195,0.2023 -0.10395,0.41857 -0.0697,0.66759c0,0 0.02329,0.19866 -0.16296,0.22349c-0.18625,0.02483 -0.20954,-0.17383 -0.20954,-0.17383c-0.04913,-0.47911 0.38211,-1.14151 -0.00044,-1.45598l-0.034,0.00351c0,0 -0.17807,-0.06331 -0.11872,-0.25324z"/></g><g><path d="M279.70357,215.6962c0.05936,-0.18993 0.23742,-0.12662 0.23742,-0.12662l0.1596,0.07234c0.14336,0.14011 0.21992,0.27181 0.25477,0.40058c0.02953,0.00367 0.05697,0.01466 0.08068,0.03121c0.00358,-0.01861 0.00998,-0.03847 0.01987,-0.05957c0.08394,-0.17906 0.25182,-0.08954 0.25182,-0.08954l0.16574,0.18057c-0.00008,0.02024 0.00208,0.04145 0.00534,0.06314c0.00367,-0.02994 0.00974,-0.06106 0.01866,-0.09354l0.10987,-0.14709c0,0 0.13272,-0.14157 0.26545,0c0.13272,0.14157 0,0.28312 0,0.28312l-0.01919,-0.00942c-0.0822,0.21438 0.0579,1.2556 0.09937,1.25851c0,0 0.18048,0.05499 0.12891,0.24749c-0.05157,0.1925 -0.23204,0.1375 -0.23204,0.1375c-0.10477,-0.04266 -0.24078,-0.03769 -0.31432,-0.128c-0.07489,-0.09197 -0.07971,-0.23368 -0.07937,-0.35549c0.00041,-0.14695 0.13701,-0.26035 0.16481,-0.40427c0.03895,-0.20166 -0.07049,-0.35426 -0.12173,-0.54201c-0.00547,0.01747 -0.01417,0.03352 -0.02717,0.0477c-0.04564,0.04978 -0.13958,0.07178 -0.22714,0.06628c0.18521,0.74827 0.22659,1.46631 -0.61491,1.72878c0,0 -0.18048,0.055 -0.23204,-0.1375c-0.05157,-0.1925 0.12891,-0.2475 0.12891,-0.2475c0.59149,-0.17504 0.50669,-0.67181 0.37205,-1.18825c-0.05195,0.2023 -0.10394,0.41857 -0.0697,0.66759c0,0 0.02328,0.19866 -0.16297,0.22349c-0.18625,0.02483 -0.20953,-0.17382 -0.20953,-0.17382c-0.04913,-0.47911 0.3821,-1.14151 -0.00044,-1.45598l-0.03401,0.0035c0,0 -0.17807,-0.06331 -0.11871,-0.25323z"/><path d="M277.90801,213.90064c0.05936,-0.18993 0.23743,-0.12662 0.23743,-0.12662l0.1596,0.07234c0.14336,0.14011 0.21992,0.27182 0.25477,0.40058c0.02953,0.00367 0.05696,0.01466 0.08067,0.03121c0.00358,-0.01861 0.00998,-0.03846 0.01987,-0.05956c0.08394,-0.17906 0.25182,-0.08954 0.25182,-0.08954l0.16574,0.18057c-0.00008,0.02024 0.00208,0.04145 0.00534,0.06315c0.00367,-0.02994 0.00973,-0.06106 0.01866,-0.09354l0.10988,-0.14709c0,0 0.13273,-0.14156 0.26545,0c0.13272,0.14156 0,0.28313 0,0.28313l-0.01919,-0.00943c-0.0822,0.21438 0.0579,1.2556 0.09937,1.25851c0,0 0.18048,0.055 0.12892,0.2475c-0.05157,0.1925 -0.23204,0.1375 -0.23204,0.1375c-0.10477,-0.04267 -0.24078,-0.03769 -0.31432,-0.12799c-0.07488,-0.09197 -0.07972,-0.23369 -0.07938,-0.3555c0.00041,-0.14695 0.13702,-0.26034 0.16481,-0.40426c0.03895,-0.20166 -0.07049,-0.35426 -0.12172,-0.54201c-0.00547,0.01747 -0.01418,0.03352 -0.02717,0.0477c-0.04564,0.04978 -0.13958,0.07178 -0.22714,0.06628c0.18521,0.74826 0.22659,1.46631 -0.6149,1.72879c0,0 -0.18047,0.055 -0.23204,-0.1375c-0.05157,-0.1925 0.12891,-0.2475 0.12891,-0.2475c0.59149,-0.17504 0.50669,-0.67182 0.37205,-1.18826c-0.05195,0.2023 -0.10395,0.41857 -0.0697,0.66759c0,0 0.02329,0.19866 -0.16296,0.22349c-0.18625,0.02483 -0.20954,-0.17382 -0.20954,-0.17382c-0.04913,-0.47911 0.38212,-1.14152 -0.00043,-1.45599l-0.03401,0.00351c0,0 -0.17807,-0.06331 -0.11872,-0.25323z"/><path d="M283.29468,212.73881c0.05936,-0.18993 0.23743,-0.12661 0.23743,-0.12661l0.1596,0.07233c0.14336,0.14011 0.21991,0.27182 0.25476,0.40058c0.02953,0.00367 0.05697,0.01466 0.08068,0.0312c0.00358,-0.01861 0.00998,-0.03847 0.01987,-0.05957c0.08394,-0.17906 0.25182,-0.08954 0.25182,-0.08954l0.16574,0.18057c-0.00008,0.02024 0.00207,0.04145 0.00533,0.06315c0.00367,-0.02994 0.00974,-0.06106 0.01867,-0.09354l0.10987,-0.14709c0,0 0.13272,-0.14156 0.26545,0c0.13272,0.14156 0,0.28313 0,0.28313l-0.01919,-0.00943c-0.0822,0.21438 0.0579,1.2556 0.09937,1.25851c0,0 0.18048,0.055 0.12891,0.2475c-0.05157,0.1925 -0.23204,0.1375 -0.23204,0.1375c-0.10477,-0.04267 -0.24078,-0.03769 -0.31432,-0.12799c-0.07488,-0.09197 -0.07971,-0.23368 -0.07937,-0.35549c0.00041,-0.14695 0.13701,-0.26035 0.16481,-0.40427c0.03895,-0.20166 -0.0705,-0.35426 -0.12173,-0.54201c-0.00547,0.01747 -0.01418,0.03352 -0.02717,0.0477c-0.04564,0.04978 -0.13957,0.07178 -0.22713,0.06628c0.18521,0.74826 0.22659,1.46631 -0.61491,1.72879c0,0 -0.18048,0.055 -0.23204,-0.1375c-0.05157,-0.1925 0.12891,-0.2475 0.12891,-0.2475c0.59149,-0.17504 0.50669,-0.67181 0.37205,-1.18825c-0.05195,0.2023 -0.10394,0.41857 -0.0697,0.66759c0,0 0.02328,0.19866 -0.16297,0.22349c-0.18625,0.02483 -0.20953,-0.17382 -0.20953,-0.17382c-0.04913,-0.47911 0.38211,-1.14152 -0.00044,-1.45599l-0.034,0.00351c0,0 -0.17807,-0.06331 -0.11872,-0.25324z"/><path d="M285.51272,209.78142c0.05936,-0.18993 0.23743,-0.12662 0.23743,-0.12662l0.1596,0.07234c0.14336,0.14011 0.21991,0.27182 0.25476,0.40058c0.02953,0.00367 0.05697,0.01466 0.08068,0.03121c0.00358,-0.01861 0.00998,-0.03846 0.01987,-0.05956c0.08394,-0.17906 0.25182,-0.08954 0.25182,-0.08954l0.16574,0.18057c-0.00008,0.02024 0.00208,0.04145 0.00534,0.06314c0.00367,-0.02994 0.00973,-0.06106 0.01866,-0.09354l0.10988,-0.14709c0,0 0.13272,-0.14156 0.26544,0c0.13272,0.14156 0,0.28312 0,0.28312l-0.01919,-0.00942c-0.0822,0.21438 0.0579,1.2556 0.09937,1.25851c0,0 0.18048,0.055 0.12892,0.2475c-0.05157,0.1925 -0.23204,0.1375 -0.23204,0.1375c-0.10477,-0.04267 -0.24078,-0.03769 -0.31432,-0.12799c-0.07488,-0.09197 -0.07972,-0.23369 -0.07938,-0.3555c0.00041,-0.14695 0.13702,-0.26035 0.16481,-0.40427c0.03895,-0.20166 -0.0705,-0.35426 -0.12173,-0.54201c-0.00547,0.01747 -0.01417,0.03352 -0.02717,0.0477c-0.04564,0.04978 -0.13958,0.07178 -0.22714,0.06628c0.18521,0.74826 0.22659,1.46631 -0.61491,1.72878c0,0 -0.18047,0.055 -0.23204,-0.1375c-0.05157,-0.1925 0.12891,-0.2475 0.12891,-0.2475c0.59149,-0.17504 0.50669,-0.67182 0.37205,-1.18826c-0.05195,0.2023 -0.10394,0.41857 -0.0697,0.66759c0,0 0.02329,0.19866 -0.16296,0.22349c-0.18625,0.02483 -0.20954,-0.17383 -0.20954,-0.17383c-0.04913,-0.47911 0.38211,-1.14152 -0.00044,-1.45598l-0.034,0.00351c0,0 -0.17807,-0.06331 -0.11872,-0.25324z"/><path d="M289.13194,206.21841c0.05936,-0.18993 0.23743,-0.12661 0.23743,-0.12661l0.1596,0.07233c0.14336,0.14011 0.21992,0.27182 0.25477,0.40058c0.02953,0.00367 0.05696,0.01466 0.08067,0.03121c0.00358,-0.01861 0.00998,-0.03847 0.01987,-0.05957c0.08394,-0.17906 0.25182,-0.08954 0.25182,-0.08954l0.16574,0.18057c-0.00008,0.02024 0.00208,0.04145 0.00534,0.06314c0.00367,-0.02994 0.00973,-0.06106 0.01866,-0.09354l0.10988,-0.14709c0,0 0.13273,-0.14156 0.26545,0c0.13272,0.14156 0,0.28313 0,0.28313l-0.01919,-0.00942c-0.0822,0.21438 0.0579,1.2556 0.09937,1.25851c0,0 0.18048,0.055 0.12891,0.2475c-0.05157,0.1925 -0.23204,0.1375 -0.23204,0.1375c-0.10477,-0.04267 -0.24078,-0.03769 -0.31432,-0.12799c-0.07488,-0.09197 -0.07972,-0.23368 -0.07938,-0.35549c0.00041,-0.14695 0.13701,-0.26035 0.16481,-0.40427c0.03895,-0.20166 -0.07049,-0.35426 -0.12172,-0.54201c-0.00547,0.01747 -0.01418,0.03352 -0.02717,0.0477c-0.04564,0.04978 -0.13958,0.07177 -0.22714,0.06628c0.18521,0.74826 0.22659,1.46631 -0.61491,1.72878c0,0 -0.18047,0.055 -0.23204,-0.1375c-0.05157,-0.1925 0.12891,-0.2475 0.12891,-0.2475c0.59149,-0.17504 0.5067,-0.67181 0.37206,-1.18825c-0.05195,0.2023 -0.10394,0.41857 -0.0697,0.66759c0,0 0.02328,0.19866 -0.16297,0.22349c-0.18625,0.02483 -0.20953,-0.17383 -0.20953,-0.17383c-0.04913,-0.47911 0.38211,-1.14151 -0.00044,-1.45598l-0.03401,0.00351c0,0 -0.17807,-0.06331 -0.11872,-0.25324z"/><path d="M290.05443,211.99946c0.05936,-0.18993 0.23742,-0.12661 0.23742,-0.12661l0.1596,0.07233c0.14336,0.14011 0.21991,0.27182 0.25476,0.40058c0.02953,0.00367 0.05697,0.01466 0.08068,0.03121c0.00358,-0.01861 0.00998,-0.03847 0.01987,-0.05957c0.08394,-0.17906 0.25182,-0.08954 0.25182,-0.08954l0.16574,0.18057c-0.00008,0.02024 0.00208,0.04144 0.00534,0.06314c0.00367,-0.02994 0.00973,-0.06106 0.01866,-0.09354l0.10988,-0.14709c0,0 0.13272,-0.14156 0.26545,0c0.13272,0.14156 0,0.28313 0,0.28313l-0.01919,-0.00942c-0.0822,0.21438 0.0579,1.2556 0.09937,1.25852c0,0 0.18048,0.055 0.12892,0.2475c-0.05157,0.1925 -0.23204,0.1375 -0.23204,0.1375c-0.10477,-0.04267 -0.24079,-0.03769 -0.31433,-0.12799c-0.07488,-0.09197 -0.07971,-0.23368 -0.07937,-0.35549c0.00041,-0.14695 0.13701,-0.26035 0.16481,-0.40427c0.03895,-0.20166 -0.07049,-0.35426 -0.12172,-0.54201c-0.00547,0.01747 -0.01418,0.03352 -0.02717,0.0477c-0.04564,0.04978 -0.13958,0.07178 -0.22714,0.06628c0.18521,0.74826 0.22659,1.4663 -0.6149,1.72878c0,0 -0.18048,0.055 -0.23204,-0.1375c-0.05157,-0.1925 0.12891,-0.2475 0.12891,-0.2475c0.59149,-0.17504 0.5067,-0.67181 0.37206,-1.18825c-0.05195,0.2023 -0.10395,0.41857 -0.0697,0.66759c0,0 0.02328,0.19866 -0.16297,0.22349c-0.18625,0.02483 -0.20953,-0.17383 -0.20953,-0.17383c-0.04913,-0.47911 0.38211,-1.14152 -0.00044,-1.45598l-0.034,0.00351c0,0 -0.17807,-0.06331 -0.11871,-0.25324z"/></g></g></g></g></svg>