<svg version="1.1" xmlns="http://www.w3.org/2000/svg" xmlns:xlink="http://www.w3.org/1999/xlink" width="146.31766" height="107.2589" viewBox="0,0,146.31766,107.2589"><g transform="translate(-246.84117,-126.37055)"><g data-paper-data="{&quot;isPaintingLayer&quot;:true}" fill-opacity="0.61176" fill="#e2e2e2" fill-rule="nonzero" stroke="none" stroke-width="0.5" stroke-linecap="butt" stroke-linejoin="miter" stroke-miterlimit="10" stroke-dasharray="" stroke-dashoffset="0" style="mix-blend-mode: normal"><path d="M287.62791,150.261c-0.02406,-2.80906 0.23226,-5.61156 1.17786,-8.2992c3.53412,-10.04482 13.46881,-15.07327 23.55434,-15.53618c3.16658,-0.14534 6.76622,-0.09375 9.69236,1.30739c4.75591,2.27729 7.26564,7.27155 9.851,11.58104c0.60583,0.95198 1.29427,1.85617 1.8175,2.85593c0.22364,0.42732 -0.04167,1.20558 0.40428,1.38929c0.45708,0.1883 0.84835,-0.5257 1.31808,-0.67976c1.46641,-0.48095 4.73772,-1.14753 6.2835,-1.35758c5.3776,-0.73076 11.46826,-0.60306 16.11079,2.53997c5.56237,3.76576 10.64788,9.94285 14.03221,15.67037c1.11061,1.87955 1.99613,3.48996 2.63249,5.60667c0.29443,0.97935 0.60118,1.98419 0.60944,3.0068c0.00328,0.40663 -0.96022,0.94059 -0.57648,1.07512c0.59279,0.20781 1.13998,-0.71243 1.76579,-0.65819c1.44543,0.12527 2.79406,0.78297 4.19109,1.17446c3.31833,1.32497 7.43617,2.44297 10.00616,5.12821c4.53111,4.73429 2.89632,13.2297 -2.05493,17.1466c-6.286,4.9728 -16.0411,5.70964 -23.72542,5.349c-2.26422,-0.10626 -7.95666,-0.75195 -10.31688,-1.08252c-0.02976,-0.00417 -1.97482,0.04082 -3.20778,-0.49117c0.10987,0.74784 0.02204,1.53349 0.12339,2.28702c0.32886,2.44512 0.77177,4.87447 1.07556,7.32283c0.00973,5.35045 0.17595,11.03644 -1.74427,16.15159c-3.71284,9.89039 -13.05901,12.81587 -22.60361,11.63343c-13.56042,-1.67995 -28.628,-12.85826 -35.50285,-24.57186c-0.47069,-0.62844 -1.15453,-1.14879 -1.48787,-1.84687c-1.3716,2.96774 -4.87729,4.50774 -7.66936,6.10675c-8.82384,5.05338 -19.03919,4.90605 -28.01591,0.02204c-8.14126,-4.42945 -9.37253,-12.65638 -5.27813,-20.46091c0.99028,-1.88761 2.86793,-5.05277 4.94536,-5.93645c2.67373,-1.13733 6.58997,-0.27766 9.28434,0.07646c0.59601,0.15813 1.19207,0.31507 1.7881,0.47148c-0.562,-0.38115 -1.14321,-0.76008 -1.75556,-1.12607c-5.41533,-3.23657 -14.72101,-6.69445 -16.80753,-13.36289c-4.13268,-13.20787 10.88128,-18.85805 20.36556,-22.36455c2.71949,-1.00544 6.6612,-3.45897 9.52709,-3.59966c1.21363,-0.05958 2.35409,0.60332 3.53114,0.90498c2.37641,0.73275 4.53652,1.58042 6.65915,2.56644z"/></g></g></svg>