<svg version="1.1" xmlns="http://www.w3.org/2000/svg" xmlns:xlink="http://www.w3.org/1999/xlink" width="86.50002" height="86.50003" viewBox="0,0,86.50002,86.50003"><g transform="translate(-276.74998,-136.74998)"><g data-paper-data="{&quot;isPaintingLayer&quot;:true}" fill-rule="nonzero" stroke-linecap="butt" stroke-linejoin="miter" stroke-miterlimit="10" stroke-dasharray="" stroke-dashoffset="0" style="mix-blend-mode: normal"><path d="M362.5,173.3051v13.3875c0,1.95118 -1.45396,3.59557 -3.39021,3.83463l-9.28028,1.14601c-0.15274,0.39113 -0.31327,0.77878 -0.48095,1.16278l5.75061,7.37259c1.19963,1.5378 1.06483,3.72871 -0.31394,5.1078l-9.46538,9.46804c-1.37959,1.37943 -3.57,1.51472 -5.1088,0.31493l-7.37507,-5.75245c-0.38333,0.16734 -0.77048,0.32755 -1.16095,0.48012l-1.148,9.28376c-0.23956,1.93574 -1.88411,3.3892 -3.83446,3.3892h-13.387c-1.95068,0 -3.59524,-1.45347 -3.83446,-3.38938l-1.14783,-9.28376c-0.38997,-0.15224 -0.77679,-0.31245 -1.15962,-0.47962l-7.37408,5.7521c-1.53797,1.19979 -3.72937,1.06449 -5.10847,-0.31476l-9.46637,-9.46804c-1.37892,-1.37892 -1.51373,-3.56967 -0.31443,-5.10764l5.75061,-7.37441c-0.16751,-0.38316 -0.32771,-0.77031 -0.48045,-1.16111l-9.28028,-1.14568c-1.93624,-0.23923 -3.39021,-1.88394 -3.39021,-3.83479v-13.3875c0,-1.95068 1.4538,-3.59507 3.38955,-3.83446l9.28127,-1.148c0.1529,-0.39097 0.31344,-0.77861 0.48111,-1.16245l-5.75144,-7.37392c-1.19979,-1.53814 -1.06449,-3.72938 0.31476,-5.10847l9.46637,-9.46439c1.37926,-1.37909 3.56967,-1.51373 5.10797,-0.31427l7.37392,5.75095c0.38283,-0.16734 0.76981,-0.32738 1.16012,-0.48012l1.1475,-9.28094c0.23939,-1.93541 1.88411,-3.38937 3.83446,-3.38937h13.38667c1.95068,0 3.59507,1.45347 3.83446,3.38955l1.148,9.28077c0.39047,0.15274 0.77762,0.31294 1.16111,0.48061l7.37342,-5.74962c1.53747,-1.19913 3.72738,-1.06466 5.10698,0.31394l9.46754,9.46222c1.38009,1.37943 1.5154,3.5705 0.31559,5.1088l-5.7521,7.37591c0.16734,0.38349 0.32755,0.77031 0.48012,1.16061l9.28326,1.14783c1.93557,0.23956 3.38937,1.88411 3.38937,3.83446zM329.01514,180.00116c0,-4.97151 -4.04448,-9.01614 -9.01564,-9.01614c-4.97068,0 -9.01465,4.04464 -9.01465,9.01614c0,4.97051 4.04398,9.01365 9.01465,9.01365c4.97118,0 9.01564,-4.04314 9.01564,-9.01365z" fill-opacity="0.7098" fill="#000000" stroke="#ffffff" stroke-width="1.5"/><g fill="#000000" stroke="none" stroke-width="1" font-family="&quot;Helvetica Neue&quot;, Helvetica, Arial, sans-serif" font-weight="400" font-size="16" text-anchor="start"/></g></g></svg>