<svg version="1.1" xmlns="http://www.w3.org/2000/svg" xmlns:xlink="http://www.w3.org/1999/xlink" width="187.00613" height="154.25897" viewBox="0,0,187.00613,154.25897"><g transform="translate(-263.98507,-101.45952)"><g data-paper-data="{&quot;isPaintingLayer&quot;:true}" fill="#ffffff" fill-rule="nonzero" stroke-linecap="butt" stroke-linejoin="miter" stroke-miterlimit="10" stroke-dasharray="" stroke-dashoffset="0" style="mix-blend-mode: normal"><path d="M263.98507,213.67778v-60.3393h44.90366v60.3393z" stroke="none" stroke-width="0"/><path d="M306.83018,155.32489c0.00784,-0.77714 0.38256,-1.40167 0.38256,-1.40167c1.99706,-3.32844 3.87651,-7.01196 6.25392,-10.07497c3.58227,-4.61531 8.1113,-8.5864 12.44608,-12.46894c1.57417,-1.40994 2.41934,-3.74606 4.34485,-4.61692c6.60672,-2.98808 14.32058,4.90212 16.46047,10.1163c9.753,19.56888 7.3388,42.35391 3.93197,63.14898c-0.95093,6.65653 -2.22065,13.99345 -5.99645,19.70379c-0.48646,0.7357 -1.38175,1.13712 -1.87099,1.87099c-1.1976,1.79639 -1.9447,4.31101 -3.93687,5.14319c-2.38412,0.99591 -5.5595,-0.1858 -7.77627,-0.85687c-3.54823,-1.07413 -7.33549,-2.22813 -10.66247,-3.89068c-2.24761,-1.12317 -4.41306,-3.25949 -6.76907,-4.1033c-0.98622,-0.35322 -2.18306,-0.06085 -3.08665,-0.59086c-1.1995,-0.70358 -1.96663,-1.96663 -2.94995,-2.94995c-2.43594,-12.11741 -4.00982,-24.64099 -4.94826,-36.98321c-0.39978,-5.25782 -2.24238,-11.27091 -0.32007,-16.47664c0.94715,-2.56494 2.24159,-3.47631 4.08173,-5.31645z" stroke="none" stroke-width="0.5"/><path d="M369.53451,188.41947c0,-1.40074 0.78483,-2.01665 1.47501,-2.28747c1.69398,-2.44819 3.98209,-4.82847 4.69049,-7.71307c1.88433,-7.67293 0.20613,-15.55735 -4.28031,-21.73384c-2.08072,-2.86453 -3.91988,-5.84129 -7.32987,-7.10613c0,0 -2.32119,-0.92848 -1.39272,-3.24967c0.92848,-2.32119 3.24967,-1.39272 3.24967,-1.39272c4.3672,1.83306 6.77127,5.03724 9.50901,8.79725c5.34634,7.34267 7.36914,16.91272 5.07462,25.97631c-0.97786,3.86264 -3.90463,6.67938 -5.88443,9.99557l-2.61148,1.21376c0,0 -2.5,0 -2.5,-2.5z" stroke="#000000" stroke-width="0.5"/><path d="M375.61521,208.53257c0,-2.5 2.5,-2.5 2.5,-2.5h1.87099c5.1636,0.09981 6.47567,-3.57286 9.50966,-7.13605c1.12117,-3.52575 2.69937,-6.43205 2.96674,-10.21551c0.91454,-12.94114 -2.68581,-25.7878 -7.32329,-37.71275c-1.74694,-4.49214 -2.48132,-10.09006 -7.20664,-12.23259c0,0 -2.23607,-1.11803 -1.11803,-3.3541c1.11803,-2.23607 3.3541,-1.11803 3.3541,-1.11803c1.12344,0.59655 2.46896,0.89213 3.37033,1.78964c3.46029,3.4455 4.56915,8.75427 6.26191,13.10707c4.91026,12.62639 8.632,26.23785 7.6446,39.93317c-0.32483,4.50534 -2.13806,8.06482 -3.58171,12.23633c-3.06123,3.74259 -5.34014,8.60354 -10.59842,9.65772c-1.07186,0.21489 -2.18617,0.03007 -3.27925,0.04511h-1.87099c0,0 -2.5,0 -2.5,-2.5z" stroke="#000000" stroke-width="0.5"/><path d="M397.25983,251.71017c0.79057,-2.37171 3.16228,-1.58114 3.16228,-1.58114l0.61267,0.33945c2.02528,0 4.0841,0.41301 6.07568,0.04511c5.59934,-1.03436 10.91383,-4.41992 15.26272,-7.90101c7.43098,-6.18374 16.22981,-13.85236 20.32542,-22.75003c3.26831,-7.10038 3.09233,-14.87804 3.0427,-22.51582c-0.09349,-14.38725 -0.81629,-29.45527 -5.01592,-43.29154c-1.7953,-5.97697 -4.37449,-11.99635 -8.38123,-16.86701c-6.60471,-8.0288 -17.12153,-12.80589 -25.94077,-17.93953c-7.32291,-4.26263 -14.33043,-8.99339 -21.92227,-12.7875c0,0 -2.23607,-1.11803 -1.11803,-3.3541c1.11803,-2.23607 3.3541,-1.11803 3.3541,-1.11803c7.68676,3.84516 14.78557,8.62241 22.20139,12.93831c9.31863,5.42331 20.27378,10.50676 27.22684,19.0127c4.45117,5.44529 7.33691,12.00186 9.36585,18.66762c4.31591,14.31654 5.13529,29.82375 5.22994,44.70694c0.05348,8.40935 0.0928,16.82582 -3.50033,24.63791c-4.42515,9.62102 -13.67312,17.83072 -21.70533,24.533c-4.96529,3.97012 -11.07695,7.78734 -17.47954,8.93787c-0.3465,0.06227 -6.95538,0.04511 -7.02122,0.04511l-2.19381,-0.59604c0,0 -2.37171,-0.79057 -1.58114,-3.16228z" stroke="#000000" stroke-width="0.5"/></g></g></svg>